<svg xmlns="http://www.w3.org/2000/svg" viewBox="0 0 74.8 70.48"><defs><style>.cls-1{fill:#9a6733;}.cls-1,.cls-2,.cls-4,.cls-5,.cls-7,.cls-8{fill-rule:evenodd;}.cls-2,.cls-6{fill:#fdcd9a;}.cls-3{fill:#6c501f;}.cls-4{fill:#be1e2d;}.cls-5{fill:#efba84;}.cls-7{fill:#ffcd05;}.cls-8{fill:#633e1a;}.cls-9{fill:#1a1a1a;}.cls-10{fill:#fff;}</style></defs><title>archer_top</title><g id="Layer_2" data-name="Layer 2"><g id="Archer"><g id="Upper"><path class="cls-1" d="M64.69,40.28C63.09,50.07,54.89,55,48.77,61.93c-3.15,3.55-1.74,8.73,3.58,8.54-3.83-1.19-4.54-3.09-1.41-6.62,6.74-7.59,14.81-12.13,16.62-23.11C67.8,39,64.92,38.24,64.69,40.28Z"/><path class="cls-2" d="M43.36,41.59l1.27,1.52a1.47,1.47,0,0,0,1.48.46L63,40.44c1.66-.31,3.19,1.14,4.85.84a2.33,2.33,0,0,0,1.34-.8,2.18,2.18,0,0,0,.58-1.41q0-.61,0-1.21c0-1.6-.15-2.38-1.81-2.59s-4.19-.14-5.13,1.39L48,35.77a2.31,2.31,0,0,0-1.77.74l-2.43,2.43A2,2,0,0,0,43.36,41.59Z"/><ellipse class="cls-3" cx="3.94" cy="41.86" rx="4.29" ry="3.94" transform="translate(-38.06 43.58) rotate(-86.97)"/><path class="cls-4" d="M47.06,43.55,48,35.77,36.87,33.92a2.07,2.07,0,0,0-.59-.21c-3.46-1.14-7.05,0-10.5-1.38l-8.06-.43c-3.84,1.31-7.52-.27-11.36,1-2.59.88-1.93,4.17-5.1,5.8l5.41,6.18a13.86,13.86,0,0,1,2.14-2.46c4,8,22.24,13.8,24.89,2.52Z"/><polygon class="cls-2" points="18 26.61 26.05 27.03 25.77 32.32 21.54 35.95 17.72 31.89 18 26.61"/><path class="cls-5" d="M18,26.61l8.06.43-.21,4a12.43,12.43,0,0,1-2.12.07,12.3,12.3,0,0,1-5.87-1.84Z"/><circle class="cls-6" cx="22.57" cy="17.12" r="12.36" transform="translate(4.28 38.76) rotate(-86.97)"/><path class="cls-1" d="M34.91,17.78c.55-7.37-.76-9.51,4.07-14.94C31,3.6,21.36-5.33,15,5.11,6.71,4.06,7.17,9.71,10.21,17.35c.59-2.28,1.31-4.45,4-5,3.65,1.75,9.8,1.91,16.25-1.54C32.53,11.17,34.3,13.75,34.91,17.78Z"/><path class="cls-7" d="M53.15,9.42a.45.45,0,0,1,.33.83l-2.56,1L26.29,36.57l22.2,25.79,2.2,1.76a.45.45,0,1,1-.56.7L47.9,63l0,0,0,0L25.35,36.85l-.27-.31.28-.29,25-25.66.07-.07.08,0Z"/><path class="cls-2" d="M1.51,39.91,3,38a2.18,2.18,0,0,1,1.55-.88l21.72-2a1.54,1.54,0,0,1,1.28.43,1.52,1.52,0,0,1,.44,1.27L27.84,38a3.53,3.53,0,0,1-3.19,3.12,3.89,3.89,0,0,1-3.92-1.7L5.57,44.52a1.75,1.75,0,0,1-1.71-.26L1.65,42.48A1.83,1.83,0,0,1,1.51,39.91Z"/><path class="cls-1" d="M65,35.4c-.57-9.9-8.19-15.71-13.55-23.22-2.76-3.86-.81-8.86,4.46-8.12-3.93.78-4.84,2.59-2.1,6.44,5.9,8.26,13.45,13.62,14.08,24.73C67.91,37,65,37.45,65,35.4Z"/><path class="cls-8" d="M71.06,36.28l-43.12.22v.6l43.12-.22a4.09,4.09,0,0,1-.43,1.49l4.16-1.81-4.18-1.77A4.09,4.09,0,0,1,71.06,36.28Z"/><circle class="cls-9" cx="19.39" cy="19.04" r="1.67" transform="translate(-0.65 37.39) rotate(-86.97)"/><circle class="cls-10" cx="20.21" cy="18.96" r="0.66" transform="translate(0.21 38.13) rotate(-86.97)"/><circle class="cls-9" cx="28.71" cy="19.53" r="1.67" transform="translate(7.69 47.17) rotate(-86.97)"/><circle class="cls-10" cx="29.53" cy="19.45" r="0.66" transform="translate(8.55 47.91) rotate(-86.97)"/><path class="cls-1" d="M27.21,24.81c-2,2-5,3-6.36-.15a5.82,5.82,0,0,0,3.4,1.07A7.61,7.61,0,0,0,27.21,24.81Z"/></g></g></g></svg>