<svg xmlns="http://www.w3.org/2000/svg" viewBox="0 0 53.62 58.5"><defs><style>.cls-1{fill:#fdcd9a;}.cls-1,.cls-2,.cls-3,.cls-4{fill-rule:evenodd;}.cls-2{fill:#e6e6e5;}.cls-3{fill:#7392cb;}.cls-4{fill:#991b1e;}</style></defs><title>archer_lower</title><g id="Layer_2" data-name="Layer 2"><g id="Archer"><g id="Pants"><path class="cls-1" d="M42.45,27.43A88.91,88.91,0,0,0,45.6,51.8a1.25,1.25,0,0,0,.69-.64c1.65,1.11,3.85,3.34,6.94,3.56.53,0,.39,1.29.31,2.22-2.22,1-4.44,2.13-6.66.71a1.75,1.75,0,0,0-2.06.05,4.26,4.26,0,0,1-2.25.8,1,1,0,0,1-1-.89c-.32-1.56-.91-3.78-.42-5.23.26.21.65,0,.66-.14C40,41,33.38,40.23,35.23,28.35,37.63,28.58,40.05,27.2,42.45,27.43Z"/><path class="cls-2" d="M44.94,49.38q.31,1.23.66,2.42a1.25,1.25,0,0,0,.69-.64l.58.41.14,2.8H41a5.12,5.12,0,0,1,.15-2c.26.21.65,0,.66-.14a27.47,27.47,0,0,0-.63-2.86A18.72,18.72,0,0,0,44.94,49.38Z"/><path class="cls-3" d="M45.6,51.8a1.25,1.25,0,0,0,.69-.64c1.65,1.11,3.85,3.34,6.94,3.56.53,0,.39,1.29.31,2.22-2.22,1-4.44,2.13-6.66.71a1.75,1.75,0,0,0-2.06.05,4.26,4.26,0,0,1-2.25.8,1,1,0,0,1-1-.89c-.32-1.56-.91-3.78-.42-5.23.26.21.65,0,.66-.14A3.26,3.26,0,0,0,45.6,51.8Z"/><path class="cls-1" d="M11.17,27.43A88.91,88.91,0,0,1,8,51.8a1.25,1.25,0,0,1-.69-.64C5.68,52.26,3.48,54.5.39,54.72c-.53,0-.39,1.29-.32,2.22,2.22,1,4.44,2.13,6.65.71a1.75,1.75,0,0,1,2.06.05,4.26,4.26,0,0,0,2.25.8,1,1,0,0,0,1-.89c.32-1.56.91-3.78.42-5.23-.26.21-.65,0-.66-.14,1.87-11.18,8.45-12,6.6-23.88C16,28.58,13.57,27.2,11.17,27.43Z"/><path class="cls-2" d="M8.68,49.38Q8.37,50.61,8,51.8a1.25,1.25,0,0,1-.69-.64l-.58.41-.14,2.8h6a5.13,5.13,0,0,0-.15-2c-.26.21-.65,0-.66-.14a27.55,27.55,0,0,1,.63-2.86A18.72,18.72,0,0,1,8.68,49.38Z"/><path class="cls-3" d="M8,51.8a1.25,1.25,0,0,1-.69-.64C5.68,52.26,3.48,54.5.39,54.72c-.53,0-.39,1.29-.32,2.22,2.22,1,4.44,2.13,6.65.71a1.75,1.75,0,0,1,2.06.05,4.26,4.26,0,0,0,2.25.8,1,1,0,0,0,1-.89c.32-1.56.91-3.78.42-5.23-.26.21-.65,0-.66-.14A3.26,3.26,0,0,1,8,51.8Z"/><path class="cls-4" d="M13.82,0,11.17,27.43c4.12,2.67,7,3.39,13.12,1.89l2.14-14.38,2.65,15c5.71,1,10,.06,13.37-2.27L36.77,0Z"/></g></g></g></svg>