<svg xmlns="http://www.w3.org/2000/svg" viewBox="0 0 73.21 65.7"><defs><style>.cls-1{fill:#9a6733;}.cls-1,.cls-2,.cls-4,.cls-5,.cls-7,.cls-8{fill-rule:evenodd;}.cls-2,.cls-6{fill:#fdcd9a;}.cls-3{fill:#6c501f;}.cls-4{fill:#be1e2d;}.cls-5{fill:#efba84;}.cls-7{fill:#ffcd05;}.cls-8{fill:#633e1a;}.cls-9{fill:#1a1a1a;}.cls-10{fill:#fff;}</style></defs><title>archer_top</title><g id="Layer_2" data-name="Layer 2"><g id="Archer"><g id="Upper"><path class="cls-1" d="M64.74,23.47c4.65,8.76,1.14,17.68.44,26.88-.36,4.73,3.9,8,8,4.63-3.77,1.37-5.49.29-5.13-4.42.76-10.12,4.44-18.62-.77-28.45C66.42,20.54,63.69,21.72,64.74,23.47Z"/><path class="cls-2" d="M48.56,37.44l1.93.44A1.47,1.47,0,0,0,52,37.35l11.51-12.7c1.13-1.25,3.23-1,4.37-2.27a2.33,2.33,0,0,0,.59-1.45A2.18,2.18,0,0,0,68,19.46l-.72-1c-1-1.29-1.56-1.8-3-1s-3.42,2.43-3.24,4.21L48.71,30a2.31,2.31,0,0,0-1,1.66l-.46,3.41A2,2,0,0,0,48.56,37.44Z"/><ellipse class="cls-3" cx="17.35" cy="61.52" rx="3.94" ry="4.29" transform="translate(-31.61 20.43) rotate(-34.24)"/><path class="cls-4" d="M52.69,36.76l-4-6.75-10,5.26a2.07,2.07,0,0,0-.6.19c-3.45,1.19-5.59,4.3-9.19,5.26l-6.67,4.54C20,48.62,16.13,49.59,13.87,53c-1.53,2.27,1,4.49-.54,7.71l8,1.64a13.86,13.86,0,0,1,.21-3.25c8,4,26.05-2.49,21.34-13.07Z"/><polygon class="cls-2" points="19.3 40.87 25.98 36.33 28.95 40.71 27.78 46.16 22.28 45.25 19.3 40.87"/><path class="cls-5" d="M19.3,40.87,26,36.33l2.24,3.29A12.43,12.43,0,0,1,26.57,41,12.3,12.3,0,0,1,20.78,43Z"/><circle class="cls-6" cx="17.2" cy="30.56" r="12.36" transform="translate(-14.21 14.97) rotate(-34.24)"/><path class="cls-1" d="M27.42,23.6c-4-6.2-6.36-7.1-5.8-14.36-5.91,5.44-19,4.17-17.72,16.33C-3.34,29.76.45,34,7.51,38.22,6.6,36,5.86,33.88,7.7,31.84c4-.82,9-4.42,12-11.06C21.52,19.79,24.49,20.76,27.42,23.6Z"/><path class="cls-7" d="M36.87,5.91a.45.45,0,0,1,.77.46L36.22,8.73,31.94,43.78l33.29,7.08,2.82.07a.45.45,0,1,1,0,.89l-2.86-.07h-.08L31.35,44.57l-.4-.08,0-.4L35.35,8.53v-.1l0-.08Z"/><path class="cls-2" d="M14.24,61.45q0-1.2,0-2.39a2.18,2.18,0,0,1,.7-1.64L31,42.65a1.54,1.54,0,0,1,1.28-.43,1.52,1.52,0,0,1,1.12.74l.66,1a3.53,3.53,0,0,1-.65,4.41,3.89,3.89,0,0,1-4.15,1l-9,13.22a1.75,1.75,0,0,1-1.52.83l-2.84-.09A1.83,1.83,0,0,1,14.24,61.45Z"/><path class="cls-1" d="M62,19.43c-6.45-7.54-16-7.54-24.84-10.27-4.53-1.4-6-6.56-1.37-9.16C33.13,3,33.5,5,38,6.39c9.7,3,19,2.7,26.18,11.15C65.34,18.95,63.24,21.06,62,19.43Z"/><path class="cls-8" d="M67.39,16.43,33.21,42.72l.36.47L67.75,16.91a4.09,4.09,0,0,1,.56,1.45l2.22-4-4.4,1.13A4.09,4.09,0,0,1,67.39,16.43Z"/><circle class="cls-9" cx="15.83" cy="34.01" r="1.67" transform="translate(-16.39 14.8) rotate(-34.24)"/><circle class="cls-10" cx="16.43" cy="33.44" r="0.66" transform="translate(-15.97 15.04) rotate(-34.24)"/><circle class="cls-9" cx="23.55" cy="28.75" r="1.67" transform="translate(-12.1 18.23) rotate(-34.24)"/><circle class="cls-10" cx="24.15" cy="28.19" r="0.66" transform="translate(-11.68 18.47) rotate(-34.24)"/><path class="cls-1" d="M25.55,33.86c-.39,2.85-2.16,5.44-5.15,3.74a5.82,5.82,0,0,0,3.35-1.21A7.61,7.61,0,0,0,25.55,33.86Z"/></g></g></g></svg>