<svg xmlns="http://www.w3.org/2000/svg" viewBox="0 0 109.53 39.97"><defs><style>.cls-1{fill:#fff;fill-rule:evenodd;opacity:0.35;}</style></defs><title>Cloud2</title><g id="Layer_2" data-name="Layer 2"><g id="Clouds"><path class="cls-1" d="M13,0h0Zm96.56,25.91c0-1.81-6.65-3.27-14.85-3.27-2,0-3.92.09-5.66.25,1.47-.76,2.33-1.65,2.33-2.6,0-2.7-6.77-4.89-15.14-4.91a1.71,1.71,0,0,0,.8-1.31c0-1.43-2.59-2.58-5.83-2.63a2.27,2.27,0,0,0,.19-.89c0-2.34-3.76-4.24-8.4-4.24-3.69,0-6.81,1.2-7.94,2.86h-.13c-2.89,0-5.36.89-6.41,2.14a17.21,17.21,0,0,0-4.16-.48c-4.56,0-8.25,1.59-8.25,3.54a1.67,1.67,0,0,0,0,.34c-.51,0-1-.08-1.56-.08-4.82,0-8.72,2-8.72,4.53a2.54,2.54,0,0,0,.33,1.23A32.06,32.06,0,0,0,18,19.45c-6.38,0-11.55,1.43-11.55,3.19S11.61,25.83,18,25.83a35.54,35.54,0,0,0,6.62-.58,106.14,106.14,0,0,0,15.73,1h.87l.23.2c-3-.13-6.2-.19-9.52-.19C14.3,26.24,0,28.17,0,30.54s14.3,4.29,31.93,4.29l3,0,0,.06c-3.56.19-6.2.9-6.2,1.75s3.63,1.8,8.11,1.8a33.49,33.49,0,0,0,3.51-.18A37.89,37.89,0,0,0,52.26,40c7.3,0,13.58-1.68,16.36-4.08a55.89,55.89,0,0,0,8.69.65,46.92,46.92,0,0,0,14.26-2c.66.05,1.36.08,2.09.08,3.53,0,6.39-.68,6.39-1.51,0-.59-1.43-1.1-3.51-1.35a2.83,2.83,0,0,0,.82-1.88,2.35,2.35,0,0,0-.15-.79C104.2,28.87,109.53,27.53,109.53,25.91Z"/></g></g></svg>