<svg xmlns="http://www.w3.org/2000/svg" viewBox="0 0 101.53 27.5"><defs><style>.cls-1{fill:#fff;fill-rule:evenodd;opacity:1;}</style></defs><title>Cloud3</title><g id="Layer_2" data-name="Layer 2"><g id="Clouds"><path class="cls-1" d="M87.33,13a4.44,4.44,0,0,0,1.6-3.17c0-4.72-10-8.54-22.44-8.54A45.31,45.31,0,0,0,50.18,3.95C45.56,1.53,38.77,0,31.19,0,17.27,0,6,5.15,6,11.5c0,0,0,.08,0,.12C.29,11.81-8.17,27.5,17.93,27.5c9.2,0,16.79-2,18-4.71a44.29,44.29,0,0,0,10.17-2c2,1.76,6.06,3,10.77,3,6.67,0,12.07-2.42,12.07-5.39,0,0,0,0,0-.05l1.44-.09c1.56,1.93,7.84,3.38,15.37,3.38,8.7,0,15.75-1.93,15.75-4.31a1,1,0,0,0,0-.1,1,1,0,0,0,0-.1l0-.1,0-.1,0-.1,0-.1-.06-.1-.07-.1-.07-.1-.08-.1-.09-.1-.1-.1-.11-.1-.11-.09-.12-.09-.13-.09-.14-.09-.14-.09L100,15.4l-.16-.09-.17-.09-.17-.09-.18-.08L99.14,15l-.19-.08-.2-.08-.21-.08-.21-.08-.22-.08-.22-.08-.23-.07h0l-.24-.07-.24-.07-.25-.07-.25-.07-.26-.07L96.15,14l-.27-.06-.28-.06-.28-.06L95,13.77l-.29-.06-.29-.05h0l-.3-.05-.3-.05-.31,0-.31,0-.32,0-.32,0h0l-.33,0-.33,0h0l-.33,0-.34,0h0l-.34,0-.34,0h0l-.35,0h0l-.35,0h0l-.36,0h0l-.36,0h0l-.36,0-.36,0h0l-.37,0h-.74Z"/></g></g></svg>