<svg xmlns="http://www.w3.org/2000/svg" viewBox="0 0 1630.66 159.86"><defs><style>.cls-1{fill:#fff;fill-rule:evenodd;opacity:0.35;}</style></defs><title>Cloud1</title><g id="Layer_2" data-name="Layer 2"><g id="Clouds"><path class="cls-1" d="M1290,12.75h0Zm15.19,14.41a17.38,17.38,0,0,0-5.61-1.16,1.08,1.08,0,0,0,.44-.8c0-.57-.63-1.08-1.63-1.43.72-.33,1.15-.76,1.15-1.23,0-1-2-1.84-4.44-1.84h0c-.27-.8-2.1-1.42-4.32-1.42a10.94,10.94,0,0,0-1.46.1l-.44-.11c-.69-1.81-3.18-3.15-6.15-3.15a7.23,7.23,0,0,0-5.65,2.27,9.92,9.92,0,0,0-4.39-.92c-3.38,0-6.12,1.35-6.12,3v0c-1.91.33-3.24,1.07-3.24,1.93a.9.9,0,0,0,.11.42c-2.3,0-4.19.55-4.46,1.24-2.65.73-4.26,1.68-4.26,2.71,0,1.21,2.19,2.29,5.69,3.06a1.49,1.49,0,0,0-.37.92,1.34,1.34,0,0,0,0,.26c-9.73.23-17.22,1.68-17.22,3.44,0,1.5,5.46,2.77,13.1,3.26-2.16.24-3.55.62-3.55,1,0,.68,3.56,1.23,8.19,1.33-.63.22-1,.46-1,.7,0,1.24,8.61,2.24,19.23,2.24l2.82,0c5.05,1.23,14.77,2.06,25.94,2.06l2.77,0,0,.06c-3.3.18-5.75.83-5.75,1.62s3.37,1.67,7.53,1.67a30.75,30.75,0,0,0,3.25-.17,35.14,35.14,0,0,0,11,1.61c6.78,0,12.61-1.56,15.19-3.79a51.71,51.71,0,0,0,8.07.61A43.52,43.52,0,0,0,1363,44.83c.61,0,1.26.08,1.94.08,3.27,0,5.93-.63,5.93-1.4,0-.55-1.33-1-3.26-1.25a2.62,2.62,0,0,0,.77-1.74,2.14,2.14,0,0,0-.14-.73c6.49-.25,11.44-1.49,11.44-3,0-1.68-6.17-3-13.78-3-1.86,0-3.64.08-5.26.23,1.37-.7,2.16-1.53,2.16-2.42,0-2.51-6.28-4.54-14.05-4.56a1.59,1.59,0,0,0,.74-1.21c0-1.32-2.41-2.4-5.41-2.44a2.12,2.12,0,0,0,.17-.82c0-2.17-3.49-3.93-7.8-3.93-3.42,0-6.32,1.11-7.37,2.66H1329c-2.68,0-5,.82-5.94,2a15.94,15.94,0,0,0-3.86-.45c-4.23,0-7.66,1.47-7.66,3.29a1.42,1.42,0,0,0,0,.32c-.47,0-1-.07-1.45-.07A13.56,13.56,0,0,0,1305.23,27.16Z"/><path class="cls-1" d="M1311.27,114.87c0-.91-2.86-1.7-7.08-2.11h0c0-1-4.72-1.83-10.69-1.89a.93.93,0,0,0,.07-.32c0-.51-.44-1-1.18-1.37.72-.28,1.18-.69,1.18-1.14,0-.76-1.26-1.39-2.91-1.52-.06-1.65-3.72-3-8.24-3a18.52,18.52,0,0,0-5.25.69c-.9-1.51-4-2.62-7.78-2.62h-.32a1.74,1.74,0,0,0,0-.18c0-2.11-3.85-3.82-8.61-3.82s-8.61,1.71-8.61,3.82a1.76,1.76,0,0,0,.07.46h-.43c-5.42,0-9.82,1.51-9.82,3.37,0,.76.74,1.46,2,2-2,.37-3.44,1.15-3.44,2.07,0,.49.41,1,1.1,1.33-3.1.76-5.1,1.94-5.1,3.28a1.47,1.47,0,0,0,.18.65c-3.52.18-6.13.83-6.13,1.6,0,.54,1.27,1,3.22,1.32-1.74.21-2.79.49-2.79.78,0,.68,5.37,1.23,12,1.23a66.28,66.28,0,0,0,10.62-.66c2,1.28,6.81,2.18,12.4,2.18s10.54-.94,12.51-2.26a60.53,60.53,0,0,0,7.63.44,43.08,43.08,0,0,0,10.42-1c.95.09,2,.15,3.09.15,4.15,0,7.52-.74,7.52-1.65a.43.43,0,0,0,0-.1c2.69-.44,4.39-1.07,4.39-1.76Z"/><path class="cls-1" d="M10.11,60h0ZM85.36,80.22c0-1.41-5.18-2.55-11.57-2.55-1.56,0-3.05.07-4.42.19,1.15-.59,1.82-1.28,1.82-2,0-2.11-5.28-3.81-11.8-3.83A1.33,1.33,0,0,0,60,71c0-1.11-2-2-4.54-2.05a1.79,1.79,0,0,0,.15-.69c0-1.82-2.93-3.3-6.55-3.3-2.87,0-5.31.93-6.19,2.23h-.1c-2.25,0-4.18.69-5,1.67a13.4,13.4,0,0,0-3.24-.38c-3.55,0-6.43,1.24-6.43,2.76a1.19,1.19,0,0,0,0,.27c-.4,0-.8-.06-1.22-.06-3.75,0-6.79,1.58-6.79,3.53a2,2,0,0,0,.26,1A25,25,0,0,0,14,75.18c-5,0-9,1.11-9,2.49s4,2.49,9,2.49a27.67,27.67,0,0,0,5.16-.45,82.69,82.69,0,0,0,12.26.77h.68l.18.15c-2.34-.1-4.83-.15-7.42-.15C11.14,80.48,0,82,0,83.82s11.14,3.34,24.89,3.34h2.33l0,0c-2.77.15-4.83.7-4.83,1.36S25.25,90,28.74,90a25.91,25.91,0,0,0,2.73-.14,29.52,29.52,0,0,0,9.26,1.35c5.69,0,10.59-1.31,12.75-3.18a43.43,43.43,0,0,0,6.77.51A36.53,36.53,0,0,0,71.37,87c.51,0,1.06.07,1.63.07,2.75,0,5-.53,5-1.18,0-.46-1.12-.86-2.74-1.05a2.21,2.21,0,0,0,.64-1.46,1.81,1.81,0,0,0-.12-.61C81.21,82.52,85.36,81.48,85.36,80.22Z"/><path class="cls-1" d="M382.34,14h0ZM478.9,39.9c0-1.81-6.65-3.27-14.85-3.27-2,0-3.92.09-5.66.25,1.47-.76,2.33-1.65,2.33-2.6,0-2.7-6.77-4.89-15.14-4.91a1.71,1.71,0,0,0,.8-1.31c0-1.43-2.59-2.58-5.83-2.63a2.27,2.27,0,0,0,.19-.89c0-2.34-3.76-4.24-8.4-4.24-3.69,0-6.81,1.2-7.94,2.86h-.13c-2.89,0-5.36.89-6.41,2.14a17.21,17.21,0,0,0-4.16-.48c-4.56,0-8.25,1.59-8.25,3.54a1.67,1.67,0,0,0,0,.34c-.51,0-1-.08-1.56-.08-4.82,0-8.72,2-8.72,4.53a2.54,2.54,0,0,0,.33,1.23,32.06,32.06,0,0,0-8.17-.94c-6.38,0-11.55,1.43-11.55,3.19s5.17,3.19,11.55,3.19a35.54,35.54,0,0,0,6.62-.58,106.14,106.14,0,0,0,15.73,1h.87l.23.2c-3-.13-6.2-.19-9.52-.19-17.64,0-31.93,1.92-31.93,4.29s14.3,4.29,31.93,4.29l3,0,0,.06c-3.56.19-6.2.9-6.2,1.75s3.63,1.8,8.11,1.8a33.49,33.49,0,0,0,3.51-.18A37.89,37.89,0,0,0,421.63,54c7.3,0,13.58-1.68,16.36-4.08a55.89,55.89,0,0,0,8.69.65,46.92,46.92,0,0,0,14.26-2c.66.05,1.36.08,2.09.08,3.53,0,6.39-.68,6.39-1.51,0-.59-1.43-1.1-3.51-1.35a2.83,2.83,0,0,0,.82-1.88,2.35,2.35,0,0,0-.15-.79C473.57,42.86,478.9,41.52,478.9,39.9Z"/><path class="cls-1" d="M282.36,145.32a4.44,4.44,0,0,0,1.6-3.17c0-4.72-10-8.54-22.44-8.54a45.31,45.31,0,0,0-16.31,2.69c-4.62-2.42-11.41-3.95-19-3.95-13.92,0-25.2,5.15-25.2,11.5,0,0,0,.08,0,.12-5.71.19-14.17,15.88,11.94,15.88,9.2,0,16.79-2,18-4.71a44.29,44.29,0,0,0,10.17-2c2,1.76,6.06,3,10.77,3,6.67,0,12.07-2.42,12.07-5.39,0,0,0,0,0-.05l1.44-.09c1.56,1.93,7.84,3.38,15.37,3.38,8.7,0,15.75-1.93,15.75-4.31a1,1,0,0,0,0-.1,1,1,0,0,0,0-.1l0-.1,0-.1,0-.1,0-.1-.06-.1-.07-.1-.07-.1-.08-.1-.09-.1-.1-.1-.11-.1-.11-.09-.12-.09-.13-.09-.14-.09-.14-.09-.15-.09-.16-.09-.17-.09-.17-.09-.18-.08-.19-.08-.19-.08-.2-.08-.21-.08-.21-.08-.22-.08-.22-.08-.23-.07h0l-.24-.07-.24-.07-.25-.07-.25-.07-.26-.07-.26-.06-.27-.06-.28-.06-.28-.06-.28-.06-.29-.06-.29-.05h0l-.3-.05-.3-.05-.31,0-.31,0-.32,0-.32,0h0l-.33,0-.33,0h0l-.33,0-.34,0h0l-.34,0-.34,0h0l-.35,0h0l-.35,0h0l-.36,0h0l-.36,0h0l-.36,0-.36,0h0l-.37,0h-.74Z"/><path class="cls-1" d="M1630.66,95.37l-5.75,3.94a44.49,44.49,0,0,1-8.4.74c-6.88,0-12.62-1.32-14-3.09l-1.32.08a.42.42,0,0,1,0,.05c0,2.72-4.94,4.93-11,4.93-4.31,0-8-1.1-9.85-2.71a40.49,40.49,0,0,1-9.3,1.86c-1.15,2.43-8.08,4.31-16.5,4.31-9.21,0-16.68-2.24-16.68-5a1.68,1.68,0,0,1,.23-.8c-10.31-.71-17.51-2.33-17.51-4.21,0-2.2,9.87-4,23-4.5,0,0,0-.07,0-.11,0-5.81,10.31-10.52,23-10.52,6.93,0,13.14,1.4,17.36,3.61a41.41,41.41,0,0,1,14.92-2.46c11.33,0,20.52,3.5,20.52,7.81a4.06,4.06,0,0,1-1.46,2.9h0C1624.32,92.35,1629.49,93.66,1630.66,95.37Z"/><path class="cls-1" d="M735.38,117.59l-5.53,3.79a42.77,42.77,0,0,1-8.08.71c-6.61,0-12.14-1.27-13.51-3l-1.27.08s0,0,0,0c0,2.62-4.75,4.74-10.62,4.74-4.14,0-7.72-1.06-9.47-2.61a39,39,0,0,1-8.94,1.78c-1.1,2.34-7.77,4.14-15.86,4.14-8.86,0-16-2.16-16-4.82a1.62,1.62,0,0,1,.22-.77c-9.91-.69-16.84-2.24-16.84-4.05,0-2.12,9.49-3.89,22.16-4.32,0,0,0-.07,0-.1,0-5.59,9.92-10.11,22.16-10.11,6.66,0,12.63,1.34,16.7,3.47a39.83,39.83,0,0,1,14.35-2.36c10.9,0,19.73,3.36,19.73,7.51a3.9,3.9,0,0,1-1.41,2.78h0C729.29,114.69,734.26,116,735.38,117.59Z"/><path class="cls-1" d="M1118.88,18.28h-5.36s3.88-2.7,0-3.67a5.49,5.49,0,0,0-3.67.21s2.05-2.35-2.28-2.35c-6.92,0-4.46,2.59-4.46,2.59s-6.25-2.29-7.74,0,0,3.67,0,3.67-3.26-2.59-6.68-.9C1085,19.65,1087,22.4,1087,22.4s-.59-6.42-6.55-6.42-6.32,1.18-6.32,1.18,6.65-3.62,3.34-5.76c-3.58-2.32-7.74,1-7.74,1s5.35-4.79-1.48-6a10.31,10.31,0,0,0-4.76,0s-.1-8.08-5.46-3.49c-3.18-4.7-7,.6-7,.6S1048.08,0,1045.25,0,1037,3.77,1037,3.77s-6.54-.4-8.47,2.58,2.11,4.82,2.11,4.82a15.34,15.34,0,0,0-11.16.69c-5.66,2.75-7.89,6.19-7.89,6.19s-14.3.23-17,4.36,2.85,4.12,5.23,4.12,5.06,3.21,11,3.21,17-1.83,22.92-1.83,10.71,4.58,17,4.58,14.88-3.21,14.88-3.21,4.46,5.5,11,2.75,8-2.29,13.09-2.29C1105.66,29.74,1141.88,18.28,1118.88,18.28Z"/><path class="cls-1" d="M775.07,12.36h0ZM678.5,38.27c0-1.81,6.65-3.27,14.85-3.27,2,0,3.92.09,5.66.25-1.47-.76-2.33-1.65-2.33-2.6,0-2.7,6.77-4.89,15.14-4.91a1.71,1.71,0,0,1-.8-1.31c0-1.43,2.59-2.58,5.83-2.63a2.28,2.28,0,0,1-.19-.89c0-2.34,3.76-4.24,8.4-4.24,3.69,0,6.81,1.2,7.94,2.86h.12c2.89,0,5.36.89,6.41,2.14a17.2,17.2,0,0,1,4.16-.49c4.56,0,8.25,1.59,8.25,3.54a1.66,1.66,0,0,1,0,.34c.51,0,1-.08,1.56-.08,4.82,0,8.72,2,8.72,4.53a2.54,2.54,0,0,1-.33,1.23A32.05,32.05,0,0,1,770,31.8c6.38,0,11.55,1.43,11.55,3.19s-5.17,3.19-11.55,3.19a35.51,35.51,0,0,1-6.62-.58,106.11,106.11,0,0,1-15.73,1h-.87l-.23.2c3-.13,6.2-.19,9.52-.19,17.63,0,31.93,1.92,31.93,4.29s-14.3,4.29-31.93,4.29l-3,0,0,.06c3.56.19,6.2.9,6.2,1.75s-3.63,1.8-8.11,1.8a33.55,33.55,0,0,1-3.51-.18,37.89,37.89,0,0,1-11.88,1.73c-7.3,0-13.58-1.68-16.36-4.08a55.89,55.89,0,0,1-8.69.65,46.92,46.92,0,0,1-14.26-2c-.66.05-1.36.08-2.09.08-3.53,0-6.39-.68-6.39-1.51,0-.59,1.43-1.1,3.51-1.35a2.83,2.83,0,0,1-.82-1.88,2.35,2.35,0,0,1,.15-.79C683.83,41.23,678.5,39.89,678.5,38.27Z"/><path class="cls-1" d="M830.15,112.56l5.75,3.94a44.49,44.49,0,0,0,8.4.74c6.88,0,12.62-1.32,14-3.09l1.32.08a.42.42,0,0,0,0,.05c0,2.72,4.94,4.93,11,4.93,4.31,0,8-1.1,9.85-2.71a40.49,40.49,0,0,0,9.3,1.86c1.15,2.43,8.08,4.31,16.5,4.31,9.21,0,16.68-2.24,16.68-5a1.68,1.68,0,0,0-.23-.8c10.31-.71,17.51-2.33,17.51-4.21,0-2.2-9.87-4-23-4.5,0,0,0-.07,0-.11,0-5.81-10.31-10.52-23-10.52-6.93,0-13.14,1.4-17.36,3.61a41.41,41.41,0,0,0-14.92-2.46c-11.33,0-20.52,3.5-20.52,7.81a4.06,4.06,0,0,0,1.46,2.9h0C836.49,109.54,831.32,110.86,830.15,112.56Z"/></g></g></svg>