<svg xmlns="http://www.w3.org/2000/svg" viewBox="0 0 80.98 23.45"><defs><style>.cls-1{fill:#fff;fill-rule:evenodd;opacity:0.35;}</style></defs><title>Cloud4</title><g id="Layer_2" data-name="Layer 2"><g id="Clouds"><path class="cls-1" d="M81,17.29c0-.91-2.86-1.7-7.08-2.11h0c0-1-4.72-1.83-10.69-1.89a.93.93,0,0,0,.07-.32c0-.51-.44-1-1.18-1.37.72-.28,1.18-.69,1.18-1.14,0-.76-1.26-1.39-2.91-1.52-.06-1.65-3.72-3-8.24-3a18.52,18.52,0,0,0-5.25.69C46,5.11,42.83,4,39.09,4h-.32a1.74,1.74,0,0,0,0-.18C38.79,1.71,34.94,0,30.18,0s-8.61,1.71-8.61,3.82a1.76,1.76,0,0,0,.07.46h-.43c-5.42,0-9.82,1.51-9.82,3.37,0,.76.74,1.46,2,2-2,.37-3.44,1.15-3.44,2.07,0,.49.41,1,1.1,1.33-3.1.76-5.1,1.94-5.1,3.28a1.47,1.47,0,0,0,.18.65C2.61,17.18,0,17.82,0,18.6c0,.54,1.27,1,3.22,1.32-1.74.21-2.79.49-2.79.78,0,.68,5.37,1.23,12,1.23A66.28,66.28,0,0,0,23,21.27c2,1.28,6.81,2.18,12.4,2.18S46,22.51,47.95,21.19a60.53,60.53,0,0,0,7.63.44,43.08,43.08,0,0,0,10.42-1c.95.09,2,.15,3.09.15,4.15,0,7.52-.74,7.52-1.65a.43.43,0,0,0,0-.1C79.28,18.61,81,18,81,17.29Z"/></g></g></svg>