<svg xmlns="http://www.w3.org/2000/svg" viewBox="0 0 132.43 32.8"><defs><style>.cls-1{fill:#fff;fill-rule:evenodd;opacity:0.35;}</style></defs><title>Cloud1</title><g id="Layer_2" data-name="Layer 2"><g id="Clouds"><path class="cls-1" d="M125,18.28h-5.36s3.88-2.7,0-3.67a5.49,5.49,0,0,0-3.67.21s2.05-2.35-2.28-2.35c-6.92,0-4.46,2.59-4.46,2.59s-6.25-2.29-7.74,0,0,3.67,0,3.67-3.26-2.59-6.68-.9c-3.66,1.81-1.66,4.56-1.66,4.56S92.55,16,86.6,16s-6.32,1.18-6.32,1.18,6.65-3.62,3.34-5.76c-3.58-2.32-7.74,1-7.74,1s5.35-4.79-1.48-6a10.31,10.31,0,0,0-4.76,0s-.1-8.08-5.46-3.49c-3.18-4.7-7,.6-7,.6S54.19,0,51.36,0s-8.25,3.77-8.25,3.77-6.54-.4-8.47,2.58,2.11,4.82,2.11,4.82a15.34,15.34,0,0,0-11.16.69C19.93,14.61,17.7,18,17.7,18s-14.3.23-17,4.36,2.85,4.12,5.23,4.12S11,29.74,17,29.74s17-1.83,22.92-1.83,10.71,4.58,17,4.58,14.88-3.21,14.88-3.21,4.46,5.5,11,2.75,8-2.29,13.09-2.29C111.77,29.74,148,18.28,125,18.28Z"/></g></g></svg>