<svg xmlns="http://www.w3.org/2000/svg" viewBox="0 0 1473 84"><defs><style>.cls-1{fill:#43b649;}.cls-1,.cls-2,.cls-3,.cls-4,.cls-5{fill-rule:evenodd;}.cls-2{fill:#1bb24b;}.cls-3{fill:#00a94c;}.cls-4{fill:#00753d;}.cls-5{fill:#009347;}</style></defs><title>Asset 7</title><g id="Layer_2" data-name="Layer 2"><g id="Ground"><path class="cls-1" d="M1205,1.15c-69.25,7.31-148.18,22.64-223,22.68-2-.14-281.32-20-355.54-20s-67.54,19.86-135.29,20c-32.76-.13-196.32-21-259.53-21-63.41,0-181.44,21-231.67,21V84.52H1473.27V23.83C1372.33,23.83,1274.33-6.17,1205,1.15Z"/><path class="cls-2" d="M1425.27,35.74c-55.94,17.5-59.4-11.51-88.2-6.87-46.87,7.55-69.46,5.82-99,2.22s-59.14,2.25-81.88,5.75c-46.32,7.13-29.38-20.53-93.76-11.06-35.49,5.22-53.66-1.55-80.39-1.6h-.29v0c-21.3,1.08-35.24,7.63-47.71,11.54-55.94,17.5-59.4-11.51-88.2-6.87-46.87,7.55-69.46,5.82-99,2.22S687.7,33.35,665,36.85C618.64,44,635.58,16.32,571.2,25.78,536,31,517.86,24.35,491.52,24.19h-1v.07c-20.89,1.19-34.67,7.63-47,11.49-55.94,17.5-59.4-11.51-88.2-6.87-46.87,7.55-69.46,5.82-99,2.22s-59.14,2.25-81.88,5.75C128.12,44,145.06,16.32,80.68,25.78,45.06,31,26.89,24.18,0,24.18V77.52H1473.27V24.18C1451.81,25.21,1437.81,31.81,1425.27,35.74Z"/><path class="cls-3" d="M1420.47,45c-52.94,13.65-61.57-15-90.51-9.41-42.5,8.17-49.92,12.85-82.29,4.77-23.42-5.85-62.51-4.09-91.58,2.82-33.27,7.9-23.68-12.13-93.66-9.37-35.92,1.42-53.66,0-80.39,0h-.29v0c-21.34.8-40.22,8-52.51,11.18-52.94,13.65-61.57-15-90.51-9.41-42.5,8.17-49.92,12.85-82.29,4.77-23.42-5.85-62.51-4.09-91.58,2.82-33.27,7.9-23.68-12.13-93.66-9.37-35.6,1.41-53.35,0-79.68,0h-1v.05c-21,.93-39.65,8-51.8,11.14-52.94,13.65-61.57-15-90.51-9.41-42.5,8.17-49.92,12.85-82.29,4.77-23.42-5.85-62.51-4.09-91.58,2.82-33.27,7.9-23.68-12.13-93.66-9.37-36.05,1.42-53.79,0-80.68,0V77.52H1473.27V33.83C1451.81,34.57,1432.82,41.84,1420.47,45Z"/><path class="cls-4" d="M1424.68,63c-59.39,7.89-61.67-14.7-90.61-10.94-42.51,5.52-48.55,15.81-81.6,13.93-24.06-1.37-47.34-16.34-74.8-6.24-45.07,16.57-72-27-115.24-4.7-29.44,15.2-53.61.11-80.39,0h-.29c-21.3.55-35.57,6.25-48.31,7.94-59.39,7.89-61.67-14.7-90.61-10.94-42.51,5.52-48.55,15.81-81.6,13.93-24.06-1.37-47.34-16.34-74.8-6.24-45.07,16.57-72-27-115.24-4.7C542,70.08,518,55.39,491.52,55v0h-1v0c-20.9.65-35,6.24-47.59,7.92-59.39,7.89-61.67-14.7-90.61-10.94-42.51,5.52-48.55,15.81-81.6,13.93-24.06-1.37-47.34-16.34-74.8-6.24-45.07,16.57-72-27-115.24-4.7C51.13,70.27,26.89,55,0,55V84.52H1473.27V55C1451.81,55.51,1437.48,61.26,1424.68,63Z"/><path class="cls-5" d="M1425.27,53.66c-59.39,9.55-63.38-14.19-92.32-9.64-42.5,6.68-53.9,16-80.48,9.64-22.41-5.34-50.7-12.43-84.3-3.14-51.6,14.26-24.85-17.41-105.74-4.7-35.17,5.53-53.66,0-80.39,0h-.29c-21.3.64-35,5.79-47.71,7.83-59.39,9.55-63.38-14.19-92.32-9.64-42.5,6.68-53.9,16-80.48,9.64-22.41-5.34-50.7-12.43-84.3-3.14-51.6,14.26-24.85-17.41-105.74-4.7-34.86,5.48-53.33.14-79.68,0h-1v0c-20.88.74-34.4,5.78-47,7.8C384.13,63.21,380.14,39.47,351.2,44c-42.5,6.68-53.9,16-80.48,9.64-22.41-5.34-50.7-12.43-84.3-3.14-51.6,14.26-24.85-17.41-105.74-4.7-35.3,5.54-53.79,0-80.68,0v35.7H1473.27V45.82C1451.81,46.42,1438.07,51.6,1425.27,53.66Z"/></g></g></svg>