<svg xmlns="http://www.w3.org/2000/svg" viewBox="0 0 101.21 179.99"><defs><style>.cls-1{fill:#633b16;}.cls-1,.cls-10,.cls-2,.cls-3,.cls-4,.cls-5,.cls-6,.cls-7,.cls-8,.cls-9{fill-rule:evenodd;}.cls-2{fill:#804b1f;}.cls-3{fill:#422810;}.cls-4{fill:#33b44a;}.cls-5{fill:#39b54a;}.cls-6{fill:#43b649;}.cls-7{fill:#58b947;}.cls-8{fill:#008b45;}.cls-9{fill:#80c342;}.cls-10{fill:#00ad4c;}</style></defs><title>tree2</title><g id="Layer_2" data-name="Layer 2"><g id="Treeline_Back" data-name="Treeline Back"><path class="cls-1" d="M50.91,31c0-6.31,0-13.4-1.85-18.46-3.76,3.57-3.84,17.25-4.43,22.8-1.45,13.69-1.61,27.46-2,41.25-.68,23.78,1,50.93-4.57,73.84-1.41,5.87-5.13,11.09-8.47,15.17s-8.67,6-11.53,9.76c3.51,1.65,7.61.53,11.12-.65,1-.35,10.95-3.93,10.91-5.1.1,3.44,1.7,7.5,3,10.34,1.45-3.1,2.79-7,4.3-10.23-1.55,3.32,21.29,8.15,23,9.2-1.51-5.7-7.19-8.39-9.75-13.26-2.76-5.3-4.26-11.56-5.17-17.83-5.27-36.55-3.61-74.53-4.52-111.56C50.9,34.67,50.91,32.88,50.91,31Z"/><path class="cls-2" d="M52.85,152.84A45.05,45.05,0,0,0,67.15,177.9,20.93,20.93,0,0,1,70.38,179c-1.51-5.7-7.19-8.39-9.75-13.26-2.76-5.3-4.26-11.56-5.17-17.83-5.27-36.55-3.61-74.53-4.52-111.56,0-1.65,0-3.43,0-5.28,0-2.9,0-5.95-.18-8.9A376.47,376.47,0,0,0,52.85,152.84Z"/><path class="cls-3" d="M48.78,152.84C39.44,106.22,47.94,59.6,48.72,13c-3.41,4.07-3.51,17-4.08,22.39-1.45,13.69-1.61,27.46-2,41.25-.68,23.78,1,50.93-4.57,73.84-1.41,5.87-5.13,11.09-8.47,15.17s-8.49,5.92-11.39,9.58c7.84-.25,16.35-9.3,23.24-13.3a19,19,0,0,0-1.61,8.14c.17-.16.26-.29.26-.41.1,3.44,1.7,7.5,3,10.34l.17-.38c-1.27-5.79-.49-12.88,1.41-18.82,0,4,.65,7.17,2.52,9.42l.2-.44a.8.8,0,0,0,0,.64c.18.2.36.41.56.6-.2-.19-.37-.39-.56-.6.86,2.27,10.86,5,17.41,6.86C57.27,172.29,51.25,164.88,48.78,152.84Z"/><path class="cls-4" d="M17.14,103.8a6,6,0,0,0-2,4.5,5.93,5.93,0,0,0,.15,1.27,60.58,60.58,0,0,0,10-7.06A56.82,56.82,0,0,1,14,97,73.31,73.31,0,0,0,17.14,103.8Z"/><path class="cls-5" d="M19.34,114.08A57.82,57.82,0,0,0,30,108c1.29-1,2.53-2,3.74-3.07a60.45,60.45,0,0,1-8.46-2.38,60.58,60.58,0,0,1-10,7.06A6.2,6.2,0,0,0,19.34,114.08Z"/><path class="cls-6" d="M33.75,104.89C32.55,105.95,31.31,107,30,108a57.82,57.82,0,0,1-10.68,6.12,6.42,6.42,0,0,0,4.52-.11c.27.33.53.66.81,1a8.22,8.22,0,0,0-1.11,4.12A8.51,8.51,0,0,0,30,127.25c10.58-4.22,20.3-12.42,27.76-21.87A69.12,69.12,0,0,1,33.75,104.89Z"/><path class="cls-7" d="M82.1,104.11a74.06,74.06,0,0,0,3.82-8.42,83.92,83.92,0,0,1-28.16,9.69C50.3,114.83,40.59,123,30,127.25a9,9,0,0,0,2.26.3,8.81,8.81,0,0,0,5.89-2.24,27.78,27.78,0,0,0,22.1.42,8.8,8.8,0,0,0,6.31,2.64,8.59,8.59,0,0,0,8.72-8.46A8.25,8.25,0,0,0,75,118a8.11,8.11,0,0,0,2.9.55,7.9,7.9,0,0,0,8-7.78A7.73,7.73,0,0,0,82.1,104.11Z"/><path class="cls-8" d="M70.5,124.28c-11.25-8.16-20.24,1.17-32.61-2.33-4.5-1.17-9-5.83-5.62-11.65-5.62,0-11.25-1.17-10.12-8.16a3.63,3.63,0,0,1,.69-.56A57.23,57.23,0,0,1,14,97a73.31,73.31,0,0,0,3.17,6.84,6,6,0,0,0-2,4.5,6.24,6.24,0,0,0,6.33,6.14,6.45,6.45,0,0,0,2.41-.47c.27.33.53.66.81,1a8.22,8.22,0,0,0-1.11,4.12,8.59,8.59,0,0,0,8.72,8.46,8.81,8.81,0,0,0,5.89-2.24,27.78,27.78,0,0,0,22.1.42,8.8,8.8,0,0,0,6.31,2.64A8.59,8.59,0,0,0,75.27,120,8.35,8.35,0,0,0,70.5,124.28Z"/><path class="cls-9" d="M79.5,108c6.1.7,4,6.07-.31,10.47A7.85,7.85,0,0,0,86,110.75a7.73,7.73,0,0,0-3.86-6.64,74.06,74.06,0,0,0,3.82-8.42,82,82,0,0,1-36.41,10.46C58.85,109.86,70,106,79.5,108Z"/><path class="cls-4" d="M70.5,124.28c.05-.11.11-.2.16-.3l-.42.12Z"/><path class="cls-4" d="M101.21,53.71A13,13,0,0,0,89.68,41c-.09-.41-.18-.83-.27-1.24a8.23,8.23,0,0,0,6.18-7.88,8.32,8.32,0,0,0-8.43-8.19,8.59,8.59,0,0,0-3,.53c-.47-1,.3.54-.21-.45C65.35-1.81,41.26-13.39,21.45,23.48a13.4,13.4,0,0,0-8.23-2.81A13,13,0,0,0,0,33.51,12.78,12.78,0,0,0,7,44.84,8.09,8.09,0,0,0,7.63,59.6c0,.86,0,1.72,0,2.58,0,.15,0,.31,0,.46,9,6.4,21.07,9.41,31.48,10.19,16.53,1.46,36.58.47,52.76-6.53,0-.1,0-.2,0-.3A12.89,12.89,0,0,0,101.21,53.71Z"/><path class="cls-8" d="M16.59,59.76c-4.5-1.17-4.5-9.32,0-11.65,2,0,4.8-1.79,7.74-1.45-5.19-1.25-10.16-3.65-12.24-9C10.47,30.9,16.43,25.4,23.26,24.15c-.6-.22-1.22-.43-1.81-.67a13.4,13.4,0,0,0-8.23-2.81A13,13,0,0,0,0,33.51,12.78,12.78,0,0,0,7,44.84,8.09,8.09,0,0,0,7.63,59.6c0,.86,0,1.72,0,2.58,0,.15,0,.31,0,.46,9,6.4,21.07,9.41,31.48,10.19,16.53,1.46,36.58.47,52.76-6.53,0-.1,0-.2,0-.3a13,13,0,0,0,9.08-9.66C80.33,75.36,40.77,70.36,16.59,59.76Z"/><path class="cls-9" d="M89.68,41c-.09-.41-.18-.83-.27-1.24a8.23,8.23,0,0,0,6.18-7.88,8.32,8.32,0,0,0-8.43-8.19c-14,0-24.23,4.74-39.06,4.72,12.11,3.41,25.44-3.12,37.1-.1,4.5,1.17,1.12,11.65-5.62,15.15,7.53-.65,16.09,3.41,21.62,9.76A13,13,0,0,0,89.68,41Z"/><path class="cls-10" d="M30,27.09c-1.92-.93-5-2.75-7-2.9s-4.67,1.54-6.18,2.59c-3.08,2.15-6.35,6.72-4.76,10.83,2.08,5.39,7.06,7.79,12.24,9a5.83,5.83,0,0,1,1.25.28l-1.25-.28c-2.94-.34-5.77,1.45-7.74,1.45C12.32,50.32,11.88,54.3,14,58.4c3.48,6.71,13.46,6.65,19.78,8.16,2.7.64,5.24,1.19,7.74,1.54,1.67.24,4.9.75,6.49.32-3.56-3-8.84-4-12.74-6.72-2.34-1.62-6-4.15-6.14-7.42-.19-3.64,4.26-3.89,6.69-4.62-3.08-1.94-5.94-2.55-8.38-5.45A20.42,20.42,0,0,1,23.19,36c-.61-2.17-1-5.31.56-7.15C25.43,26.85,27.68,27.26,30,27.09Z"/><path class="cls-5" d="M57,29.4a31.62,31.62,0,0,1-7.83-.76,92.25,92.25,0,0,1-.51,39.71c2.76.34,5.53.57,8.3.7A93.51,93.51,0,0,0,57,29.4Z"/><path class="cls-6" d="M69.1,28.19A113.35,113.35,0,0,1,57,29.4a93.51,93.51,0,0,1,0,39.64,87.26,87.26,0,0,0,17.3-.84A90.86,90.86,0,0,0,69.1,28.19Z"/><path class="cls-7" d="M101.21,53.71c0-.17,0-.34,0-.51-5.53-6.35-14.1-10.41-21.62-9.76,6.75-3.5,10.12-14,5.62-15.15-5.12-1.33-10.56-.81-16.08-.1a90.86,90.86,0,0,1,5.11,40c10.22-1.6,19.6-5.3,26.71-11.88A12.54,12.54,0,0,0,101.21,53.71Z"/><path class="cls-4" d="M45.83,75.2c.24-.63.47-1.28.7-1.92-2.54-.09-5-.25-7.44-.46C28.67,72,16.56,69,7.6,62.64q0,2.36.13,4.68a4.55,4.55,0,0,0,.12,8.34,11.46,11.46,0,0,0-4.48,9A11.71,11.71,0,0,0,13.68,96.18c.12.31.24.63.36.94A57.23,57.23,0,0,0,27,103.24,75.68,75.68,0,0,0,45.83,75.2Z"/><path class="cls-10" d="M27.06,72.25c-3.11-1.74-6.59-2.75-9.75-4.35C16,67.25,7.6,64.25,7.6,62.64q0,2.36.13,4.68a4.55,4.55,0,0,0,.12,8.34,11.46,11.46,0,0,0-4.48,9A11.71,11.71,0,0,0,13.68,96.18c.12.31.24.63.36.94A54.34,54.34,0,0,0,25,102.53c2.36.84,2.59,0,4.51-1.35a9.66,9.66,0,0,1,3.16-1.76c-2.84-3-14.68-15.43-6.17-18.2-2.1-1.35-6.08-3.11-5.93-6C20.69,71.91,24.59,71.43,27.06,72.25Z"/><path class="cls-5" d="M46.52,73.29c-.23.64-.45,1.28-.7,1.92a75.68,75.68,0,0,1-18.84,28,61.11,61.11,0,0,0,8.65,2.16,73.36,73.36,0,0,0,19.57-32C52.27,73.42,49.36,73.39,46.52,73.29Z"/><path class="cls-6" d="M55.21,73.36a73.36,73.36,0,0,1-19.57,32,70.26,70.26,0,0,0,24-.15,79.1,79.1,0,0,0,8.71-14.9A86.44,86.44,0,0,0,73.5,71.62,120.77,120.77,0,0,1,55.21,73.36Z"/><path class="cls-7" d="M96.52,77.42a6,6,0,0,0,1-3.36,6.21,6.21,0,0,0-5.81-6.12c0-.55.07-1.09.1-1.65A82.36,82.36,0,0,1,73.5,71.62a86.44,86.44,0,0,1-5.18,18.73,79.1,79.1,0,0,1-8.71,14.9A84.28,84.28,0,0,0,85.77,96c.4,0,.81.06,1.22.06A11.78,11.78,0,0,0,99,84.46,11.33,11.33,0,0,0,96.52,77.42Z"/><path class="cls-8" d="M14.34,79.86c1.13,0,2.25-2.33,3.37-1.17-3.37-3.5-5.62-7-4.5-11.65a2.49,2.49,0,0,1,.55-.75A44.8,44.8,0,0,1,7.6,62.64q0,2.36.13,4.68a4.55,4.55,0,0,0,.12,8.34,11.46,11.46,0,0,0-4.48,9A11.71,11.71,0,0,0,13.68,96.18c.12.31.24.63.36.94,19.9,12.7,45.1,11.4,66.24,1.62C55.46,104.83,25.28,105.38,14.34,79.86Z"/><path class="cls-4" d="M85.18,85.69l2-2.1A7,7,0,0,0,85.18,85.69Z"/><path class="cls-9" d="M99,84.46a11.33,11.33,0,0,0-2.44-7,6,6,0,0,0,1-3.36,6.21,6.21,0,0,0-5.81-6.12c0-.55.07-1.09.1-1.65C76.49,72.94,57.66,74.16,41.65,73,58.09,80.76,76,71,93.06,75.2c1.86,0-2.42,4.76-5.86,8.39a5.73,5.73,0,0,1,5.86-.23A9.58,9.58,0,0,1,95,93,11.43,11.43,0,0,0,99,84.46Z"/><path class="cls-8" d="M32.72,7.88a62.61,62.61,0,0,0-11.27,15.6,13.4,13.4,0,0,0-8.23-2.81l-.84,0,2,3.37,8.85.07S29.13,23,29,17.52C28.78,12.43,32.28,8.37,32.72,7.88Z"/><path class="cls-8" d="M23.26,24.15c-.6-.22-1.22-.43-1.81-.67a13.4,13.4,0,0,0-8.23-2.81l-.84,0,2,3.37Z"/></g></g></svg>