<svg xmlns="http://www.w3.org/2000/svg" viewBox="0 0 64.85 82.79"><defs><style>.cls-1{fill:#955523;}.cls-1,.cls-2,.cls-3,.cls-4,.cls-5,.cls-6,.cls-7,.cls-8,.cls-9{fill-rule:evenodd;}.cls-2{fill:#6c3e18;}.cls-3{fill:#c38031;}.cls-4{fill:#7c113f;}.cls-5{fill:#a91d59;}.cls-6{fill:#5c0631;}.cls-7{fill:#3b1023;}.cls-8{fill:#270e19;}.cls-9{fill:#ffdd96;}</style></defs><title>tree4</title><g id="Layer_2" data-name="Layer 2"><g id="Treeline_Front" data-name="Treeline Front"><polygon class="cls-1" points="28.11 57.68 27.01 63.64 27.01 70.08 27.17 81.29 31.1 82.79 36.6 81.29 34.4 70.08 34.72 64.59 34.72 54.34 28.74 54.58 28.11 57.68"/><polygon class="cls-2" points="32.72 72.42 34.28 81.29 36.6 81.29 34.4 70.08 34.72 64.59 34.72 54.34 33.3 54.4 32.2 66.13 32.72 72.42"/><polygon class="cls-3" points="28.31 63.38 29.69 54.54 28.74 54.58 28.11 57.68 27.01 63.64 27.01 70.08 27.17 81.29 28.78 81.29 29.35 71.25 28.31 63.38"/><path class="cls-4" d="M64,34c.92-.32,1.2-1.14.41-1.48S64,32,64,31.35s-1.28.43-1.6-.32.45-.55.51-1.27-.06-1.07-1.14-.87h0a.53.53,0,0,1,.3-.37c.7-.37,1.52-.89.27-1.46-.72-.33-.54-.8.38-1.12s1.2-1.14.41-1.48-.36-.53-.36-1.18-1.28.43-1.59-.32.45-.55.51-1.27-.06-1.07-1.14-.87-1.32.15-1-.39.11-1.09-.32-.84a2,2,0,0,0-.43-.26c-.72-.33-.54-.8.38-1.12s1.19-1.14.41-1.48-.36-.53-.36-1.18-1.28.43-1.6-.32.45-.55.51-1.27-.06-1.07-1.14-.87-1.32.15-1-.39.07-1.23-.46-.74-1.07-.31-1.62,0c-.34.22-1,.11-1.46.21a.4.4,0,0,1,0-.35c.31-.75.72-.1,1.28-.58s.72-.81-.2-1.4-1.06-.77-.45-1,.93-.84.19-.84-.56-.94-1.2-1.06-1.37-1.44-1.78-.67l0,0c-.37-.87-1.4-.39-1.41-1.58s-1.24.54-1.33-1-1,.26-1.78-.77c-.54-.7-.7-.35-1.09-.23a1.29,1.29,0,0,1-.06-.41c0-1.32-1.24.54-1.33-1s-1,.26-1.78-.77-.76.2-1.84-.35S38.42,1.46,38,.69c-.26-.48-.64-.14-1,.21C36.49.51,36,0,35.72.52c-.41.77-.56-1-1.63-.4s-1-.48-1.66.15c-.62-.62-.67.36-1.66-.15s-1.14.64-1.44.6a1.73,1.73,0,0,0-.2-.21c-.22-.4-.54-.2-.88.08a1,1,0,0,1-.68-.13c-1.07-.55-1.22,1.17-1.63.41s-1.13.56-1.78.67c-.41.07-.49.48-.69.77a1,1,0,0,1-.7-.13c-1.07-.55-1.22,1.17-1.63.41s-1.13.56-1.78.67-.47,1.05-1.21,1.05-.41.66.19.84.47.37-.45,1h0c-.63-.65-.68.35-1.67-.16S15,7.12,14.57,6.36s-1.13.56-1.78.67-.47,1.05-1.2,1.06-.41.66.19.84.47.37-.45,1-.77.89-.27,1.34a.59.59,0,0,1-.54.31c-.46,0-.5.25-.33.49-.29.1-.59.21-.88,0-.53-.49-.77.2-.46.74s.08.58-1,.39-1.2.15-1.14.87.82.52.51,1.27-1.59-.32-1.59.32.42.84-.36,1.18-.51,1.16.41,1.48,1.1.79.38,1.12a2,2,0,0,0-.43.26c-.43-.25-.59.35-.32.84s.08.58-1,.39-1.2.15-1.14.87.82.52.51,1.27-1.59-.32-1.59.32.42.83-.37,1.18-.51,1.16.41,1.48,1.1.79.38,1.12c-1.25.57-.43,1.1.27,1.46a.54.54,0,0,1,.31.37H3c-1.09-.19-1.2.15-1.14.87s.83.52.51,1.27-1.59-.32-1.59.32.42.84-.36,1.18S-.05,33.69.87,34s1.1.79.38,1.12c-1.25.58-.43,1.1.27,1.46.48.25.28.65.36,1-.14.87.75,1.23,0,1-1.66-.5-.21,1-.21,1s-.21.1-.62.8.62.81.31,1.51-.63,1.61.73,1.31c.77-.17.94.3.42,1.11s-.21,1.61.63,1.41.62.2,1,.71c.12.14.23.11.35,0-.92.9.32.7-.1,1.8s1.37,1,.64,1.51c-.47.33,0,.65.4,1-.14.1-.2.21-.06.35.46.47.9.32.58,1.09s.46,1.18,1.36.79,1.36-.16,1.08.55c-.5,1.25.46,1.08,1.22.88.29.3.82.61.94,1,.21.6,1.15.3,1.25,1s.73.3.83-.3.31-.5,1,.3,1,.6,1.46,0a.85.85,0,0,0,.09-.76,1.11,1.11,0,0,0,.33-.09c.57-.26.61,0,.33,1s.08,1.17.83,1.16.62-.65,1.21-.46a.57.57,0,0,0,.4.48c0,.47-.51,1.09,0,1.12.67,0,.89-.35,1.19.43s1.17.57,1.55-.3a1.7,1.7,0,0,1,.43-.63c.1.3-.27.54,0,1,.34.64.63.88,1.45.16s1-.8,1.07-.19.52,1,.74.51c.38-.05.57-.16.81.44.3.78,1.16.57,1.55-.3a2.3,2.3,0,0,1,.28-.47,1.45,1.45,0,0,0,.13.24c.18.28.41,0,.67-.27a1.31,1.31,0,0,1,.1.2c.3.73.63.77.93.55a.73.73,0,0,0,.09.32c.34.64.63.88,1.45.16l.44-.36c.2.08.43.1.63.17h0c0,.45.35.83.59.71.24.12.56-.25.59-.71h0c.2-.07.43-.09.63-.17l.44.36c.82.72,1.1.49,1.45-.16a.7.7,0,0,0,.09-.32c.3.22.63.18.93-.55a1.27,1.27,0,0,1,.11-.2c.26.27.48.55.67.27a1.42,1.42,0,0,0,.13-.24,2.27,2.27,0,0,1,.28.47c.39.87,1.25,1.08,1.55.3.23-.6.42-.5.81-.44.22.49.71.06.74-.51s.25-.54,1.07.19,1.11.48,1.45-.16c.26-.49-.11-.74,0-1a1.71,1.71,0,0,1,.43.63c.39.87,1.25,1.08,1.55.3s.53-.38,1.19-.43c.48,0,0-.65,0-1.12a.57.57,0,0,0,.4-.48c.59-.19.51.45,1.21.46s1.1-.12.83-1.16a4.85,4.85,0,0,1-.15-.74,1.26,1.26,0,0,0,.77.13.69.69,0,0,0,.13.46c.42.6.73.8,1.46,0s.94-.91,1-.3.73,1,.83.3,1-.4,1.25-1,1.66-1.11.94-1.61c-.57-.39.38-.42.64-.93H56c.89-.13.51-.7.7-1a1,1,0,0,1,.07.26c.1.6.73,1,.83.3s1-.4,1.25-1,1.67-1.11.94-1.61,1.06-.4.64-1.51.83-.91-.1-1.8c.11.1.23.14.34,0,.42-.5.21-.91,1-.71s1.14-.6.62-1.41-.35-1.28.42-1.11c1.35.3,1-.6.73-1.31s.73-.81.31-1.51-.62-.8-.62-.8,1.46-1.51-.21-1c-.71.21.18-.15,0-1,.08-.33-.12-.74.36-1,.7-.36,1.52-.89.27-1.46C62.87,34.8,63,34.33,64,34Z"/><path class="cls-5" d="M27.23,1.89a6.41,6.41,0,0,1,2.41-.55c-.33-.17-.62-.67-.87-.85A1.66,1.66,0,0,0,29,.39c-.22-.24-.49-.05-.79.2a1,1,0,0,1-.68-.13c-1.07-.55-1.22,1.17-1.63.41s-1.13.56-1.78.67c-.41.07-.49.48-.69.77a1,1,0,0,1-.7-.13c-1.07-.55-1.22,1.17-1.63.41s-1.13.56-1.78.67-.47,1.05-1.21,1.05-.41.66.19.84.47.37-.45,1h0c-.63-.65-.68.35-1.67-.16S15,7.12,14.57,6.36s-1.13.56-1.78.67-.47,1.05-1.2,1.06-.41.66.19.84.47.37-.45,1-.77.89-.27,1.34a.59.59,0,0,1-.54.31c-.46,0-.5.25-.33.49-.29.1-.59.21-.88,0-.53-.49-.77.2-.46.74s.08.58-1,.39-1.2.15-1.14.87.82.52.51,1.27-1.59-.32-1.59.32.42.84-.36,1.18-.51,1.16.41,1.48,1.1.79.38,1.12a2,2,0,0,0-.43.26c-.43-.25-.59.35-.32.84s.08.58-1,.39-1.2.15-1.14.87.82.52.51,1.27-1.59-.32-1.59.32.42.83-.37,1.18-.51,1.16.41,1.48,1.1.79.38,1.12c-1.25.57-.43,1.1.27,1.46a.54.54,0,0,1,.31.37H3c-1.09-.19-1.2.15-1.14.87s.83.52.51,1.27-1.59-.32-1.59.32.42.84-.36,1.18S-.05,33.69.87,34s1.1.79.38,1.12c-1.25.58-.43,1.1.27,1.46.48.25.28.65.36,1-.14.87.75,1.23,0,1H1.87c-1.57-.45-.15,1-.15,1s-.21.1-.62.8.62.81.31,1.51-.63,1.61.73,1.31c.77-.17.94.3.42,1.11s-.21,1.61.63,1.41.62.2,1,.71c.12.14.23.11.35,0a1.92,1.92,0,0,0-.21.24l0,0a.71.71,0,0,0-.09.17v0a.32.32,0,0,0,0,.13v0a.36.36,0,0,0,0,.11l0,.05,0,0a1.58,1.58,0,0,1,.13.19h0a.8.8,0,0,1,.07.18h0a.78.78,0,0,1,0,.23,1.34,1.34,0,0,1-.08.34c-.42,1.11,1.37,1,.64,1.51-.47.33,0,.65.4,1-.14.1-.2.21-.06.35.46.47.9.32.58,1.09s.46,1.18,1.36.79,1.36-.16,1.08.55c-.43,1.07.22,1.1.9,1a1.82,1.82,0,0,1-.75-1.95c-.34,0-.75-.32-1-.35a1.81,1.81,0,0,1,.68-.29c-1.54-1.88,2.36-.73,2.86-.72.34,1.73,3.11.94,4.16.88.25,0,.19.51.61.47s.79-.51,1.17-.62a14.22,14.22,0,0,1,3.22-.57c.28-.33.61-.61.95-1a18.55,18.55,0,0,1-2.82-.14,1.79,1.79,0,0,0,.44-.18c-2.51-.15-5.09.24-7.21-1-.53-.32,0-.95-.44-1.19-.73-.44-1.9.12-2.77-.13A4.25,4.25,0,0,1,8.77,47c-.78.15-1.46,0-1.38-.83-2.08-.33-.87-1.85.5-2.2a5,5,0,0,1-3-.25A14.71,14.71,0,0,0,6,42.82c-.34-.11-.67-.49-1-.59a3.56,3.56,0,0,1,2.56-.8c-.59-.15-.57-.51-.87-.81.41-.16.73-.54,1.27-.53a2.92,2.92,0,0,1-2.16-.68,8,8,0,0,1,2.23-1.14c-2.66-1,.51-2.07,1.54-2.22-.39-.17-.53-.5-.7-.64.23,0,.47,0,.71,0A2,2,0,0,1,8,34.62a5.8,5.8,0,0,1,2.72-.76,3.45,3.45,0,0,1-1.19-.47,3.68,3.68,0,0,1,3.17-1,.88.88,0,0,0-.19-.12A10.42,10.42,0,0,0,14.71,32c-.26,0-.6,0-.86,0a4.7,4.7,0,0,0,0-.62,3.1,3.1,0,0,1-2.27-.25c.33-.32.57-.73,1-.91-1.8.27-4.13.93-6,.56.2-.07.55-.43.82-.55-.21-.18-.28-.57-.42-.72.32-.11.65-.45,1-.5-.18,0-.67-.36-.88-.41A5.27,5.27,0,0,0,8,28.25c-.09-.11-.25-.51-.33-.59a7,7,0,0,0,1.43-.13c-.31-.27-.49-.84-.76-1.12A22.82,22.82,0,0,0,10.73,25c-1-1.37-1.4-1.66.51-2.66-1.17-.18-1-1-.67-1.71.88-.06,2,.21,2.81-.15.39-.17.44-.86.94-1,1.18-.32,1.48.59,2.62,1a4.17,4.17,0,0,1-.88-.5c1.76-.59,3.59-.94,5.4-1.48-.81.09-1.6-.06-1.91-.78.23-.14.58-.72.67-.78-1-.1-2.66-.23-2.12-1.48a3.09,3.09,0,0,1-1.89-.28c.35-.16.81-.64,1.2-.78-.38-.14-.53-.57-.75-.71a5.84,5.84,0,0,1,1.52-.94,3.37,3.37,0,0,1-2.12-.49c.33-.2.54-.71.86-.91-.14-.14-.29-.51-.41-.63.28,0,.62-.3,1-.29-.07-.44.22-.65.26-.93a10.83,10.83,0,0,1,1.15.85c-.52-2.17,3.13-.68,4.13-.55-.18-.82-.28-1.65.8-1.77-.59-.07-.74-.47-1.1-.7C23.62,6.86,25,7,26.05,7c-.43-.52-1.3-.49-1.93-.9.14,0,.44-.12.66-.13A3.58,3.58,0,0,1,23.62,5c.29,0,.57-.15.87-.17a1,1,0,0,1-1.11-.94,9.38,9.38,0,0,1,3.28-.27c-.31-.14-.52-.43-.79-.59a4.22,4.22,0,0,1,1.93-.66C27.58,2.27,27.42,2,27.23,1.89Z"/><path class="cls-6" d="M64,34c.92-.32,1.2-1.14.41-1.48S64,32,64,31.35s-1.28.43-1.6-.32.45-.55.51-1.27-.06-1.07-1.14-.87h0a.53.53,0,0,1,.3-.37c.7-.37,1.52-.89.27-1.46-.72-.33-.54-.8.38-1.12s1.2-1.14.41-1.48-.36-.53-.36-1.18-1.28.43-1.59-.32.45-.55.51-1.27-.06-1.07-1.14-.87-1.32.15-1-.39.11-1.09-.32-.84a2,2,0,0,0-.43-.26c-.72-.33-.54-.8.38-1.12s1.19-1.14.41-1.48-.36-.53-.36-1.18-1.28.43-1.6-.32.45-.55.51-1.27-.06-1.07-1.14-.87-1.32.15-1-.39.07-1.23-.46-.74-1.07-.31-1.62,0c-.34.22-1,.11-1.46.21a.4.4,0,0,1,0-.35c.31-.75.72-.1,1.28-.58s.72-.81-.2-1.4-1.06-.77-.45-1,.93-.84.19-.84-.56-.94-1.2-1.06-1.37-1.44-1.78-.67l0,0c-.37-.87-1.4-.39-1.41-1.58s-1.24.54-1.33-1-1,.26-1.78-.77c-.54-.7-.7-.35-1.09-.23a1.29,1.29,0,0,1-.06-.41c0-1.32-1.24.54-1.33-1s-1,.26-1.78-.77-.76.2-1.84-.35A.75.75,0,0,0,39,.21l0,.06c-.32.66-.32.81.28,1.3a9.93,9.93,0,0,1-.47,1.18c-.72.06-1.44,0-2.17.06-.12,1.23-1.51.74-2.47.65a9.41,9.41,0,0,0-1.7-.19c-.46,0-.92.46-1.51.37a1.1,1.1,0,0,1,.23.31c-.06.23-.31.25-.28.52.21,0,.57.17.84.17-.43,2.27,4-.12,4.6,1.65.73-.06,1.45-.3,2.17-.3,0,.16,0,.3,0,.46a3.17,3.17,0,0,0,1.86,0c.06.15,0,.31.08.46A12.69,12.69,0,0,1,42,7.51a.22.22,0,0,0-.07.27,6.62,6.62,0,0,0,2-.07.17.17,0,0,0-.06.24,11.22,11.22,0,0,1,1.18,0c-.18.61-.66.62-.89,1-.09.14-.86.28-1.06.47s.13.43,0,.5c-1.14.85-2.05.94-3.62,1.55,0,.18-.08.46-.06.64a8,8,0,0,1-1.68.18,4.4,4.4,0,0,0,.13.62c-.91.07-1.84,0-2.75,0,.5,1.44,1.68.58,2.77.85.64.16,1.62,1.2,2.27,1.29a20.46,20.46,0,0,0,2.41,0c1.86,0,2.21.74,3.93,1.23-.31.3-.43,1-.62,1.3.33,0,.81.36,1.14.37-.67,2-1.47,1.63-3.42,2.32-.93.33-2.6,1.37-3.8,1.89.24.16.4.46.65.62-1.47,1.4-4,1.43-6,1.33.57.94-2.44.63-3,.84-1.15.42-2.08,2.06,0,1.7-1.93,1.91-.56,1.58,1.38,2.53.35.17.47.76,1,.94a16.43,16.43,0,0,0,3.09.26c.37,1.45,2.55,0,3.53.11s1.77.8,3.12.89a1.12,1.12,0,0,0,.3,1.48c-.43.2-.76.72-1.14,1,.17.14.29.42.44.55a4.14,4.14,0,0,0-1.32,1.38.32.32,0,0,1,.23.35,29.84,29.84,0,0,0-3.33.91c.84,1.81-1.72,1.75-3,1.71-.71,2.08-3.62-.65-4.69-.06-1.88,1.05,1,1.92,1.38,2.22a3.35,3.35,0,0,0-.51.32c.36.93,1.51,1,2.47,1.08-1.32,1.58-1.44,1.7-3.66,1.48.06.07.18.07.27.16a8.58,8.58,0,0,0-1.81,1.45c-.23.19.14.49-.07.7-.58.56-2,.69-2.74,1a6.28,6.28,0,0,0,.64,1.82c-.85.59-1.8,1-2.7,1.54.18.34.11.84.45,1.17-.71.71-2.23,1-1.89,2.11a42.84,42.84,0,0,0-4.5,1.07A9.45,9.45,0,0,0,16,55.5c.1.09.07.36-.05.84a1.2,1.2,0,0,1,.09.23l-.17.14c-.19.89.15,1,.86,1s.62-.65,1.21-.46a.57.57,0,0,0,.4.48c0,.47-.51,1.09,0,1.12.67,0,.89-.35,1.19.43s1.17.57,1.55-.3a1.7,1.7,0,0,1,.43-.63c.1.3-.27.54,0,1,.34.64.63.88,1.45.16s1-.8,1.07-.19.52,1,.74.51c.38-.05.57-.16.81.44.3.78,1.16.57,1.55-.3a2.3,2.3,0,0,1,.28-.47,1.45,1.45,0,0,0,.13.24c.18.28.41,0,.67-.27a1.31,1.31,0,0,1,.1.2c.3.73.63.77.93.55a.73.73,0,0,0,.09.32c.34.64.63.88,1.45.16l.44-.36c.2.08.43.1.63.17h0c0,.45.35.83.59.71.24.12.56-.25.59-.71h0c.2-.07.43-.09.63-.17l.44.36c.82.72,1.1.49,1.45-.16a.7.7,0,0,0,.09-.32c.3.22.63.18.93-.55a1.27,1.27,0,0,1,.11-.2c.26.27.48.55.67.27a1.42,1.42,0,0,0,.13-.24,2.27,2.27,0,0,1,.28.47c.39.87,1.25,1.08,1.55.3.23-.6.42-.5.81-.44.22.49.71.06.74-.51s.25-.54,1.07.19,1.11.48,1.45-.16c.26-.49-.11-.74,0-1a1.71,1.71,0,0,1,.43.63c.39.87,1.25,1.08,1.55.3s.53-.38,1.19-.43c.48,0,0-.65,0-1.12a.57.57,0,0,0,.4-.48c.59-.19.51.45,1.21.46s1.1-.12.83-1.16a4.85,4.85,0,0,1-.15-.74,1.26,1.26,0,0,0,.77.13.69.69,0,0,0,.13.46c.42.6.73.8,1.46,0s.94-.91,1-.3.73,1,.83.3,1-.4,1.25-1,1.66-1.11.94-1.61c-.57-.39.38-.42.64-.93H56c.89-.13.51-.7.7-1a1,1,0,0,1,.07.26c.1.6.73,1,.83.3s1-.4,1.25-1,1.67-1.11.94-1.61,1.06-.4.64-1.51.83-.91-.1-1.8c.11.1.23.14.34,0,.42-.5.21-.91,1-.71s1.14-.6.62-1.41-.35-1.28.42-1.11c1.35.3,1-.6.73-1.31s.73-.81.31-1.51-.62-.8-.62-.8,1.46-1.51-.21-1c-.71.21.18-.15,0-1,.08-.33-.12-.74.36-1,.7-.36,1.52-.89.27-1.46C62.87,34.8,63,34.33,64,34Z"/><path class="cls-7" d="M64,34c.92-.32,1.2-1.14.41-1.48S64,32,64,31.35s-1.28.43-1.6-.32.45-.55.51-1.27-.06-1.07-1.14-.87h0a.53.53,0,0,1,.3-.37c.7-.37,1.52-.89.27-1.46-.72-.33-.54-.8.38-1.12s1.2-1.14.41-1.48-.36-.53-.36-1.18-1.28.43-1.59-.32.45-.55.51-1.27-.06-1.07-1.14-.87-1.32.15-1-.39.11-1.09-.32-.84a2,2,0,0,0-.43-.26c-.72-.33-.54-.8.38-1.12s1.19-1.14.41-1.48-.36-.53-.36-1.18-1.28.43-1.6-.32.45-.55.51-1.27-.06-1.07-1.14-.87-1.32.15-1-.39.07-1.23-.46-.74-1.07-.31-1.62,0c-.34.22-1,.11-1.46.21a.4.4,0,0,1,0-.35c.31-.75.72-.1,1.28-.58s.72-.81-.2-1.4-1.06-.77-.45-1,.93-.84.19-.84-.56-.94-1.2-1.06-1.37-1.44-1.78-.67l0,0c-.37-.87-1.4-.39-1.41-1.58s-1.24.54-1.33-1-1,.26-1.78-.77c-.54-.7-.7-.35-1.09-.23a1.29,1.29,0,0,1-.06-.41c0-1.32-1.24.54-1.33-1,0,0,0-.09,0-.13a2.59,2.59,0,0,1-1.32.39c.24.88.4,2,1.61,2a4.55,4.55,0,0,1,.5.8,6,6,0,0,1-.94,0c-.18,0-.45.1-.11,0h.11l.12,0c-.65-.24-1.33-.41-2-.59,0,.85,4.3,2.27,5.25,2.33a6.75,6.75,0,0,0-.94.48A5.51,5.51,0,0,0,47.17,7a2.81,2.81,0,0,0-.44.3c.6.84,1.88.42,2.43,1.3a8.43,8.43,0,0,0-2.26.56c.22.05.72.31,1,.37a7.66,7.66,0,0,0-1.1.36,5.3,5.3,0,0,0,1.45.63,5.18,5.18,0,0,0,2.1,1.82c-1.28-.12-2.36.49-3.59.52a9.46,9.46,0,0,1,1.45.46c-.21.11-.42.22-.63.34.65.53,1.82.49,2.73.71a4.83,4.83,0,0,0-.47.47c1.2.6,2.94,1,3.72,2.14-.41,0-.85.33-1.17.37.32.25.65.79,1,1-.94,0-1.56.52-2.53.6.08.16.14.27.22.43a14.85,14.85,0,0,1-2.27,1c.16.8-.94.91-1.59,1.47.37.48.3.75,1.14.83a3.9,3.9,0,0,0-1.5.55,4.16,4.16,0,0,0,2.58.17l-.06,0c.05,0,.45-.13.34,0l-.28.06a22,22,0,0,0,5.79.65,7.66,7.66,0,0,1-.43,1.13c-.91,0-1.82,0-2.73,0a4.29,4.29,0,0,0,.06.47,37.21,37.21,0,0,1-3.9.73c-1.5.4-2.4,1.07-4.06.93a.24.24,0,0,0,.06-.29,6.74,6.74,0,0,0-2.57.46l.49,0a6,6,0,0,1,1.14,0,7.74,7.74,0,0,1-1.14,0,2,2,0,0,0-1,.38c1.57.75,3.58,0,5.28.15l-.36.17a9.77,9.77,0,0,0,3.16.35c-.11.26-.12.66-.19.83a6.69,6.69,0,0,0,2.6-.34,5.09,5.09,0,0,0-1.23.81,11.43,11.43,0,0,0,1.3.17c-3.67,2.42,2.41,2.48,3.37,4.51-.32.1-.61.48-.9.58.29.18.46.6.83.78a5.88,5.88,0,0,1-.83.47,2.36,2.36,0,0,0,1.11,1.25c-.55.33-1.1.66-1.66,1a6.36,6.36,0,0,0,.58.44,14.9,14.9,0,0,0-2.28.73c-1.75-.8-6-1.16-7.94-.13a16.18,16.18,0,0,0,3.26.32c-.56.12-1.26.2-1.84.36,1,.69,2.15.44,3.05,1.25a37.48,37.48,0,0,0-4.8.75l.19.13-2,0a10.19,10.19,0,0,1,1.16.21,10.71,10.71,0,0,0-3,.82c.34.12.68.36,1,.47a7.24,7.24,0,0,0-2.68.35c.32.17.64.55,1,.73A8.48,8.48,0,0,1,36,45.7a4.6,4.6,0,0,1,.72.47c-.54,0-.85.53-1.21.67.38,1,4,1,5,1-.22.12-.53.5-.8.66a3.18,3.18,0,0,0,2,.49c-.51-.05-.76.26-1.13.38a.94.94,0,0,1,0,.47c-.37.12-.77.54-1.09.63a6.92,6.92,0,0,0,1.22.46c.06,2.12-1.72.74-2.6.61a3.67,3.67,0,0,0-3,.81,7.09,7.09,0,0,0,1,1.34,14.82,14.82,0,0,1-2.36-.41c.36.3.53.77.84,1.08a6.21,6.21,0,0,0-2.18.19c.36.41.37.78,1,1-1.24,0-2.42.19-3.43-.66a7.71,7.71,0,0,0-1.26,1,6.82,6.82,0,0,1,.12-.83c-1.06,1.18-.06,1.94-.43,3.15-.5,1.67-2.84,1.64-4.49,1.33.12.45.52.72.71.29.38-.05.57-.16.81.44.3.78,1.16.57,1.55-.3a2.3,2.3,0,0,1,.28-.47,1.45,1.45,0,0,0,.13.24c.18.28.41,0,.67-.27a1.31,1.31,0,0,1,.1.2c.3.73.63.77.93.55a.73.73,0,0,0,.09.32c.34.64.63.88,1.45.16l.44-.36c.2.08.43.1.63.17h0c0,.45.35.83.59.71.24.12.56-.25.59-.71h0c.2-.07.43-.09.63-.17l.44.36c.82.72,1.1.49,1.45-.16a.7.7,0,0,0,.09-.32c.3.22.63.18.93-.55a1.27,1.27,0,0,1,.11-.2c.26.27.48.55.67.27a1.42,1.42,0,0,0,.13-.24,2.27,2.27,0,0,1,.28.47c.39.87,1.25,1.08,1.55.3.23-.6.42-.5.81-.44.22.49.71.06.74-.51s.25-.54,1.07.19,1.11.48,1.45-.16c.26-.49-.11-.74,0-1a1.71,1.71,0,0,1,.43.63c.39.87,1.25,1.08,1.55.3s.53-.38,1.19-.43c.48,0,0-.65,0-1.12a.57.57,0,0,0,.4-.48c.59-.19.51.45,1.21.46s1.1-.12.83-1.16a4.85,4.85,0,0,1-.15-.74,1.26,1.26,0,0,0,.77.13.69.69,0,0,0,.13.46c.42.6.73.8,1.46,0s.94-.91,1-.3.73,1,.83.3,1-.4,1.25-1,1.66-1.11.94-1.61c-.57-.39.38-.42.64-.93H56c.89-.13.51-.7.7-1a1,1,0,0,1,.07.26c.1.6.73,1,.83.3s1-.4,1.25-1,1.67-1.11.94-1.61,1.06-.4.64-1.51.83-.91-.1-1.8c.11.1.23.14.34,0,.42-.5.21-.91,1-.71s1.14-.6.62-1.41-.35-1.28.42-1.11c1.35.3,1-.6.73-1.31s.73-.81.31-1.51-.62-.8-.62-.8,1.46-1.51-.21-1c-.71.21.18-.15,0-1,.08-.33-.12-.74.36-1,.7-.36,1.52-.89.27-1.46C62.87,34.8,63,34.33,64,34Z"/><path class="cls-8" d="M64,34c.92-.32,1.2-1.14.41-1.48S64,32,64,31.35s-1.28.43-1.6-.32.45-.55.51-1.27-.06-1.07-1.14-.87h0a.53.53,0,0,1,.3-.37c.7-.37,1.52-.89.27-1.46-.72-.33-.54-.8.38-1.12s1.2-1.14.41-1.48-.36-.53-.36-1.18-1.28.43-1.59-.32.45-.55.51-1.27-.06-1.07-1.14-.87-1.32.15-1-.39.11-1.09-.32-.84a2,2,0,0,0-.43-.26c-.72-.33-.54-.8.38-1.12s1.19-1.14.41-1.48-.36-.53-.36-1.18-1.28.43-1.6-.32.45-.55.51-1.27-.06-1.07-1.14-.87-1.32.15-1-.39.07-1.23-.46-.74-1.07-.31-1.62,0c-.34.22-1,.11-1.46.21a.4.4,0,0,1,0-.35c.31-.75.72-.1,1.28-.58s.72-.81-.2-1.4-1.06-.77-.45-1,.93-.84.19-.84-.56-.94-1.2-1.06-1.37-1.44-1.78-.67l0,0c-.37-.87-1.4-.39-1.41-1.58s-1.24.54-1.33-1-1,.26-1.78-.77c-.38-.49-.57-.46-.79-.36-1.91,1.87,2.53,1.8,2.7,3.11.53.13,1.33.19,1.74.25a3.2,3.2,0,0,0-.73.35c.24.09.55.49.84.6-.09.16-.13.41-.24.59.28,0,.63.29.83.32-.21.12-.37.37-.56.5a1.49,1.49,0,0,0,1.32,1.05c-.26.6-2.49.94-1,1.81l-.51,0a1.34,1.34,0,0,0,1,.89c.38.29,0,.47.86.59-.85.91,1.37,1.58,2.27,1.69a.28.28,0,0,1-.08.28c.49.09,1.09.23,1.59.36-.28.22-.34.54-.5.71.29.11.51.41.87.48-.12.08-.28.19-.39.29.27.19.38.6.7.78a2.05,2.05,0,0,1-1.83.31c-.05.21,0,.34.08.53-.29,0-.6.2-.86.23a1.85,1.85,0,0,0,1.38.74c-.4,1.31-2.15.43-3.12.74a3.51,3.51,0,0,0-.08.84c1.35-.48,3.85.25,4.79-.71a2.36,2.36,0,0,1,.76.77c-.18.08-.36.24-.57.32.64.89,2,.55,2.94.61a1.73,1.73,0,0,0,1,1.18c-.14.15-.24.46-.41.62.3.06.63.39,1,.44a3.4,3.4,0,0,1,.37,2.14c0,.17,0,.8,0,1.05,0,.55-.56.79-.18,1.54-.69.17-1.44.27-2.14.46a1.49,1.49,0,0,1-1.13,1.18c-.08-.23-.43-.48-.52-.71-.33.14-1.07.4-1,.38,0,.35-1.42.44-2.32.63s-1.49,1.2-2.39.24a2.87,2.87,0,0,1-.33.5,4.36,4.36,0,0,0-1.22-.71c0,.78.78,1,1.53.92.21,1.75,5.3.23,6.58.31a.31.31,0,0,0-.18.25,10.56,10.56,0,0,0,1.58,0,25.61,25.61,0,0,0,1.41,2.44c-.35,0-.73.38-1.07.44.24.33.31.83.73,1.11-.7.53-.33,1.21-.64,1.64s-1.23.81-1.75,1.4c.2.12.38.3.57.42a4,4,0,0,1-2.39.49c-.19,1.28,1.51,2,2,3.13.56.19.5.23.76.79-.39.05-.76.36-1.23.31.35.15.58.57.83.74-.87.31-.92,1.1-.29,1.7l-.33.27a.39.39,0,0,0,.23.31,2.57,2.57,0,0,1-1.77.47c.1.24,0,.57.24.91a10.75,10.75,0,0,1-1.63.13c-.78.07-1.12.89-1.88-.08-.08.28-.42.56-.51.85a5.11,5.11,0,0,0-2.77-.43,1.74,1.74,0,0,1,.06.42c-.77,0-4.15-.94-2.89.78-1.05.81-2.8-.56-4-.61-1.52-.07-3.17.13-4.73.12.63.14,1.24.61,2.07.79a5.91,5.91,0,0,0,3.6-.26c.15,1.64,3.15,1,4.41,1a17.38,17.38,0,0,0,2.26,0c.72-.06.8-.71,1.51-.26-.54,2-3.54,1.14-5,1.7.4,1-1.09,1.1-1.86,1.24.06.73-.36,1.46-.66,1.42-.46.75-4.51,0-6,.47-.22-1.33-.76-.5-1.55-.6a13.34,13.34,0,0,0-2.48-.26c.26.23.39.68.55.87-.76.38-2.24.5-2.49,0-.5,1.61-1.85,0-2.23-.73a1.15,1.15,0,0,0-.79.55,2.47,2.47,0,0,1,.29.51l-.41-.3a2.21,2.21,0,0,1,.12-.22c-.6-.8-1.49-.75-2.6-.67a1.6,1.6,0,0,1,.44.26,2.25,2.25,0,0,1-.48-.26h0a2.83,2.83,0,0,0-2.78.48c-.32.16-.88.79-1.16.85-.75.18-.39-.17-1-.15s-.95-.46-1.63-.15a.26.26,0,0,1,.31.05,9.16,9.16,0,0,1-1.66,1.2c-.13-.16-.33-.3-.47-.47a3.21,3.21,0,0,1-.36.76h0c0,.47-.51,1.09,0,1.12.67,0,.89-.35,1.19.43s1.17.57,1.55-.3a1.7,1.7,0,0,1,.43-.63c.1.3-.27.54,0,1,.34.64.63.88,1.45.16s1-.8,1.07-.19.52,1,.74.51c.38-.05.57-.16.81.44.3.78,1.16.57,1.55-.3a2.3,2.3,0,0,1,.28-.47,1.45,1.45,0,0,0,.13.24c.18.28.41,0,.67-.27a1.31,1.31,0,0,1,.1.2c.3.73.63.77.93.55a.73.73,0,0,0,.09.32c.34.64.63.88,1.45.16l.44-.36c.2.08.43.1.63.17h0c0,.45.35.83.59.71.24.12.56-.25.59-.71h0c.2-.07.43-.09.63-.17l.44.36c.82.72,1.1.49,1.45-.16a.7.7,0,0,0,.09-.32c.3.22.63.18.93-.55a1.27,1.27,0,0,1,.11-.2c.26.27.48.55.67.27a1.42,1.42,0,0,0,.13-.24,2.27,2.27,0,0,1,.28.47c.39.87,1.25,1.08,1.55.3.23-.6.42-.5.81-.44.22.49.71.06.74-.51s.25-.54,1.07.19,1.11.48,1.45-.16c.26-.49-.11-.74,0-1a1.71,1.71,0,0,1,.43.63c.39.87,1.25,1.08,1.55.3s.53-.38,1.19-.43c.48,0,0-.65,0-1.12a.57.57,0,0,0,.4-.48c.59-.19.51.45,1.21.46s1.1-.12.83-1.16a4.85,4.85,0,0,1-.15-.74,1.26,1.26,0,0,0,.77.13.69.69,0,0,0,.13.46c.42.6.73.8,1.46,0s.94-.91,1-.3.73,1,.83.3,1-.4,1.25-1,1.66-1.11.94-1.61c-.57-.39.38-.42.64-.93H56c.89-.13.51-.7.7-1a1,1,0,0,1,.07.26c.1.6.73,1,.83.3s1-.4,1.25-1,1.67-1.11.94-1.61,1.06-.4.64-1.51.83-.91-.1-1.8c.11.1.23.14.34,0,.42-.5.21-.91,1-.71s1.14-.6.62-1.41-.35-1.28.42-1.11c1.35.3,1-.6.73-1.31s.73-.81.31-1.51-.62-.8-.62-.8,1.46-1.51-.21-1c-.71.21.18-.15,0-1,.08-.33-.12-.74.36-1,.7-.36,1.52-.89.27-1.46C62.87,34.8,63,34.33,64,34Z"/><path class="cls-8" d="M54.21,43.58a3.16,3.16,0,0,0-1.61.61c0-.07.12-.47.17-.59-1-.1-1.94.86-2.64-.16-.89,1-3.49,2.25-4.12.32-1,.25-1.69-.34-2.66-.31.08.73-.18,1.38-1,1.23l.31.25a4.41,4.41,0,0,0-.8,0c.08.08.27.33.37.44-.31,0-.7.06-1,0,.13.09.27.11.34.24a6.92,6.92,0,0,0-1.38.17c.17.08.43.24.58.32a12.07,12.07,0,0,0-1.64,0c1.85,1.14,5.28.35,7.19-.47a3.19,3.19,0,0,0-.57.46,7.1,7.1,0,0,0,2.29.15c-.37,0-.73-.12-1.1-.17a4.26,4.26,0,0,0,2.56-.53,1.72,1.72,0,0,0,1.63-.25c-.5-.17-.76-.48-1.38-.43a31.51,31.51,0,0,1,3.65,0,5.71,5.71,0,0,1-.3-.76,8.44,8.44,0,0,1,2.21-.56Z"/><path class="cls-6" d="M27.89,43.37A.29.29,0,0,1,28,43a12.42,12.42,0,0,1-5.48,1.49c.86,1.43-3,1-4.09,1.08l.07,0a2,2,0,0,1-1.77.15c.29-.1.66-.38.92-.49-.5-.11-1.26.14-1.66,0-.69-.19-1-.94-1.55-1.07s-1,.4-1.58.45a16.26,16.26,0,0,1-1.63-.16,4.1,4.1,0,0,0,2.89,1.08l-.24,0a3,3,0,0,0,.44,0l-.2,0a2.66,2.66,0,0,1,1.68.91.62.62,0,0,1-.24.43,3.79,3.79,0,0,0,1.61-.29,2.8,2.8,0,0,0,2.37.64.24.24,0,0,1-.2.13c1.9,0,4.16.41,5.73-.45.24-.14.32-.71.68-.94.57-.38,1.39-.38,2-.75.31-.2.76-.91,1.16-1.18-.05-.06-.48-.42-.53-.45A3.78,3.78,0,0,1,29,43.3,2.83,2.83,0,0,1,27.89,43.37Z"/><path class="cls-5" d="M35.83,7.07a.2.2,0,0,1,.11-.27,8.63,8.63,0,0,1-3.8,1c.6,1-2.05.72-2.84.75l0,0a1.4,1.4,0,0,1-1.23.1c.2-.07.46-.26.64-.34-.35-.07-.88.1-1.15,0-.48-.13-.71-.65-1.08-.74s-.72.28-1.09.31-.75-.1-1.13-.11a2.85,2.85,0,0,0,2,.75l-.16,0h.3l-.14,0a1.85,1.85,0,0,1,1.17.63.43.43,0,0,1-.16.3,2.65,2.65,0,0,0,1.12-.2,1.94,1.94,0,0,0,1.65.44.18.18,0,0,1-.14.09c1.32,0,2.89.29,4-.32.17-.09.22-.49.47-.65s1-.26,1.37-.52c.22-.14.53-.63.81-.82l-.37-.31A2.5,2.5,0,0,1,36.6,7,2,2,0,0,1,35.83,7.07Z"/><path class="cls-5" d="M32,14a.27.27,0,0,1,.15-.37A11.8,11.8,0,0,1,27,15.08c.82,1.35-2.81,1-3.87,1l.06,0a1.92,1.92,0,0,1-1.68.14c.28-.1.62-.36.87-.47-.48-.1-1.2.14-1.57,0-.65-.18-1-.89-1.47-1s-1,.38-1.49.43a14.88,14.88,0,0,1-1.55-.15,3.89,3.89,0,0,0,2.74,1l-.22,0a2.72,2.72,0,0,0,.42,0l-.19,0a2.53,2.53,0,0,1,1.6.86.58.58,0,0,1-.22.4,3.61,3.61,0,0,0,1.53-.28,2.66,2.66,0,0,0,2.25.6.24.24,0,0,1-.19.12c1.8,0,3.94.39,5.43-.43.23-.13.3-.67.65-.9.54-.36,1.32-.36,1.87-.71.29-.19.72-.86,1.11-1.12,0-.05-.46-.39-.5-.42a3.64,3.64,0,0,1,.55-.3A2.69,2.69,0,0,1,32,14Z"/><path class="cls-5" d="M21.58,26.29a.27.27,0,0,1,.15-.37,11.78,11.78,0,0,1-5.2,1.42c.82,1.35-2.81,1-3.87,1l.06,0a1.91,1.91,0,0,1-1.68.14c.28-.1.62-.36.87-.46-.48-.1-1.2.14-1.57,0-.65-.18-1-.89-1.47-1s-1,.38-1.49.43-1-.14-1.55-.15a3.9,3.9,0,0,0,2.74,1l-.22,0a2.93,2.93,0,0,0,.42,0l-.19,0a2.52,2.52,0,0,1,1.6.86.6.6,0,0,1-.22.4,3.58,3.58,0,0,0,1.53-.28,2.64,2.64,0,0,0,2.25.6.24.24,0,0,1-.19.12c1.8,0,3.94.39,5.43-.43.23-.13.3-.67.65-.89.54-.36,1.31-.36,1.87-.71.29-.19.72-.86,1.11-1.12,0-.05-.46-.39-.5-.42a3.64,3.64,0,0,1,.55-.3A2.75,2.75,0,0,1,21.58,26.29Z"/><path class="cls-6" d="M4.36,35.86c-.26.28-.22.8-.35,1a3.59,3.59,0,0,0,2.06-.39c1.12.48,1.59,1.72,2.57,1.31.29-.12.55-1,1-1.2.57-.28,1.22.17,1.78-.25-.08-.15-.14-.32-.2-.48a5.27,5.27,0,0,0,1.71-.16c-.1-.11-.27-.6-.45-.76.82,0,2,.07,2.07-.87.73-.08,1.55.17,2.33.06,0-.07,0-.15,0-.22a4.64,4.64,0,0,0,1.81.2,6.84,6.84,0,0,1-.08-.74,1.92,1.92,0,0,1,.83-.1.28.28,0,0,1-.27.13c.62,0,1.25,0,1.87,0a1.16,1.16,0,0,1-.42-.38c1.51-.5,6,2.61,6.76-.36-.9,0-1.72.34-2.61.28a.44.44,0,0,1,0-.25c-.39.08-.93-.13-1.33,0,.4-1.16-.29-1.57-1.29-2,.47.58-.89.66-1.55.59a4.25,4.25,0,0,1,.09-.71c-.68.19-2.61.87-2.39,1.77-.47,0-1,.09-1.49,0,.13.28,0,.76.09,1a6.62,6.62,0,0,1-2.36-.25c-.7-.06-.74.88-1.44.07-.37.66-1.65.15-2.59.25.08.09.22.28.35.42a5.15,5.15,0,0,1-1.26-.45,6,6,0,0,1,.82-.44c-1.78-.14-2.23,1.11-3.61,1.34a7.18,7.18,0,0,1-3-.74c.08-.13.13-.42.24-.59A2.06,2.06,0,0,0,3,32.54c0-.13.16-.24.09-.33a2.64,2.64,0,0,1-1.78,0,3.74,3.74,0,0,0,0-.79,2.21,2.21,0,0,1-.46.3c.08.36.19.54-.41.8-.78.34-.51,1.16.41,1.48.5.17.77.39.81.6.42,0,.89-.11,1.44-.14A1.21,1.21,0,0,0,4.36,35.86Z"/><path class="cls-6" d="M16.07,7.26c-.06.22.09.82,0,1.08.88,0,1.76,0,2.64,0-.08.13-.16.66-.28.84A13.84,13.84,0,0,1,20,9.41c0,.12-.15.24-.18.31a2.92,2.92,0,0,1,1.46.45c-.17.21-.25.69-.45.9.7.24,1.55.06,2.32.31,0,.15,0,.3,0,.45,1-.06,1.94.39,2.92,0l-.53-.11c1.61,0,3.47-.35,5-.41a11.16,11.16,0,0,0,3-.81,18.54,18.54,0,0,1-3.5.13.71.71,0,0,1,0-.36c-.66.34-1.5.78-2.13.36a4.07,4.07,0,0,1,.53-.56c-1.17.23-2.31.65-3.48.88a1.3,1.3,0,0,1,0-.41,2.74,2.74,0,0,1-1.5.37c0-.24-.1-.57-.07-.83-1,.08-1.33-.75-1.26-1.65-.78-.05-.6.18-1.08-.48-.14.11-.12.18-.31.26a8.37,8.37,0,0,1-.34-.9c-1.34.23-2.28-.45-3.45-1.1a1.57,1.57,0,0,0,.2-.23.92.92,0,0,1-1,0c-1.07-.55-1.22,1.17-1.63.41a.46.46,0,0,0-.2-.21C14.5,7,14.95,7.28,16.07,7.26Z"/><path class="cls-6" d="M33.54,20.36a4.19,4.19,0,0,1-.22-.42c.31-.13.51-.52.85-.63-.13-.13-.29-.35-.39-.44a10.94,10.94,0,0,1,1.69-.8c.18-.69.06-.51.61-1a11.89,11.89,0,0,1-2.13.61,8,8,0,0,1-2,.57c-.23,0-.51-.22-.8-.18-1.12.13-5.92,2.31-6.28,1.25a14,14,0,0,1-1.69.1c0-.1.08-.15.2-.13a5.75,5.75,0,0,0-.65,0s.06-.4.06-.41c-.81.24-1.83.82-2.32-.15-1.18-.08-2.23.63-3.41.34-.49-.12-1.26-.79-1.9-1a3.7,3.7,0,0,0,0-.44,6,6,0,0,1-1.71-.16,3.1,3.1,0,0,0-1-1.55,4.7,4.7,0,0,0,.18,1.76,2.73,2.73,0,0,0,1.55-.08A2.75,2.75,0,0,0,13.37,19a6,6,0,0,0,2.11.34.73.73,0,0,1-.06.37,13.73,13.73,0,0,0,2.25.37h1.62a1.38,1.38,0,0,0-.23.13,15.71,15.71,0,0,1,2.65.17,2.24,2.24,0,0,1-.48.37,5.16,5.16,0,0,1,2.83-.22c-.2.24-.42.77-.77,1a3.62,3.62,0,0,1,1.7-.21,4.44,4.44,0,0,1-.69,1.06,7.16,7.16,0,0,0-2.28.28c-.5.11-2.65.84-1.83.16a7.65,7.65,0,0,1-1.28,0,.22.22,0,0,1,.19-.21c-2.18.42-4.14.08-6.28.22a18.88,18.88,0,0,0,2.91.9c1.12.2,3.37-.22,4.09.5,1.09,0,2.82.23,3.5-.44,1.11,0,2.67-.14,3.42-.94-.47-1,1.58-.94,1.24-2.25.91,0,1.83,0,2.74,0A15.8,15.8,0,0,0,33.54,20.36Z"/><path class="cls-7" d="M41.18,24.82l.22,0c-1.25,1.23-4.11,1.46-5.79,1.09l.18,0a8.38,8.38,0,0,1-2-.12.37.37,0,0,1,.1-.05c-.5.12-1,.31-1.52.44a2,2,0,0,0-1.82-.78l.09.16c.42.65,1.2.44.94,1.23.65,0,1.31,0,2,0-.22.12-.44.31-.69.41,2,.24,4-.39,6.07-.11L38.74,27a12.46,12.46,0,0,0,2.77-.46c-.19-.14-.29-.39-.39-.48.65-.26,1.33-.45,1.95-.77-.14-.08-.48-.45-.67-.55.34-.19.6-.58,1.14-.63l-.59-.28A5.91,5.91,0,0,1,41.18,24.82Z"/><path class="cls-5" d="M29.58,35.79c.28.1.53.58.71.81l-.58.15a3.87,3.87,0,0,1,.55.33c-1,1.12-6.57,2.21-8.05,1.74a.22.22,0,0,1,0-.33c-.83.29-3.85.12-4.48-.47a7.33,7.33,0,0,1,.6-.86,16.58,16.58,0,0,0,4-.48c-.1-.11-.24-.24-.37-.35,1.5.16,3,.17,4.42.28a.23.23,0,0,0-.06-.28c.65-.26.72-.17,1.21-.56a1.25,1.25,0,0,0,1.84.2S29.22,35.66,29.58,35.79Z"/><path class="cls-9" d="M23.27,26.79s.37-2.2-3.1-2C20.17,24.8,21,28,23.27,26.79Z"/><path class="cls-9" d="M46.62,50.67s.37-2.2-3.1-2C43.51,48.68,44.31,51.85,46.62,50.67Z"/><path class="cls-9" d="M16.7,49s-2.28-.33-2,3C14.67,52,17.95,51.21,16.7,49Z"/><path class="cls-9" d="M14.36,38.79S12.59,37.35,11,40.33C11,40.33,14.22,41.3,14.36,38.79Z"/><path class="cls-9" d="M28.78,50.8s-2.3.19-1.25,3.4C27.54,54.19,30.53,52.67,28.78,50.8Z"/><path class="cls-9" d="M51.53,40.29s-.37-2.2,3.1-2C54.64,38.3,53.84,41.47,51.53,40.29Z"/><path class="cls-9" d="M27.6,10.93s.37,2.2-3.1,2C24.5,12.93,25.3,9.75,27.6,10.93Z"/><path class="cls-9" d="M53.67,26.37s.37-2.2-3.1-2C50.57,24.37,51.37,27.55,53.67,26.37Z"/><path class="cls-9" d="M39.63,10.17s.09,2.23,3.45,1.37C43.08,11.54,41.65,8.58,39.63,10.17Z"/><path class="cls-9" d="M34.88,33.66s-1.49,1.69,1.56,3.25C36.44,36.9,37.46,33.81,34.88,33.66Z"/><path class="cls-9" d="M11.09,24.9s.37,2.2-3.1,2C8,26.89,8.79,23.71,11.09,24.9Z"/><path class="cls-9" d="M22.57,45.55c-1.65.21-.29,2.47.75,2.61C23.87,46.72,24.1,46.31,22.57,45.55Z"/></g></g></svg>