<svg xmlns="http://www.w3.org/2000/svg" viewBox="0 0 98.71 125.73"><defs><style>.cls-1{fill:#955523;}.cls-1,.cls-2,.cls-3,.cls-4,.cls-5,.cls-6,.cls-7,.cls-8,.cls-9{fill-rule:evenodd;}.cls-2{fill:#6c3e18;}.cls-3{fill:#c38031;}.cls-4{fill:#006e7e;}.cls-5{fill:#0095aa;}.cls-6{fill:#005865;}.cls-7{fill:#00454f;}.cls-8{fill:#003942;}.cls-9{fill:#ffdd96;}</style></defs><title>tree3</title><g id="Layer_2" data-name="Layer 2"><g id="Treeline_Front" data-name="Treeline Front"><polygon class="cls-1" points="55.91 87.8 57.59 96.87 57.59 106.67 57.35 123.73 50.29 125.73 42.99 123.73 46.34 106.67 45.86 98.32 45.86 82.71 54.95 83.08 55.91 87.8"/><polygon class="cls-2" points="48.91 110.24 46.52 123.73 42.99 123.73 46.34 106.67 45.86 98.32 45.86 82.71 48.02 82.8 49.7 100.67 48.91 110.24"/><polygon class="cls-3" points="55.62 96.48 53.51 83.02 54.95 83.08 55.91 87.8 57.59 96.87 57.59 106.67 57.35 123.73 54.9 123.73 54.04 108.45 55.62 96.48"/><path class="cls-4" d="M1.33,51.77C-.08,51.28-.49,50,.7,49.52s.55-.81.55-1.79,2,.66,2.43-.49S3,46.4,2.9,45.3,3,43.67,4.64,44h0a.81.81,0,0,0-.46-.56c-1.06-.56-2.32-1.35-.41-2.22,1.09-.5.82-1.22-.58-1.7s-1.82-1.73-.63-2.25.55-.81.55-1.79,1.95.66,2.43-.49-.69-.84-.78-1.94.08-1.62,1.74-1.33,2,.23,1.54-.59-.17-1.65.48-1.28a3,3,0,0,1,.66-.4c1.09-.5.82-1.21-.58-1.7S6.81,26,8,25.46s.55-.81.55-1.79,2,.66,2.43-.49-.69-.84-.78-1.94.08-1.63,1.74-1.33,2,.23,1.54-.59-.11-1.87.7-1.12,1.63-.47,2.47.06c.52.33,1.58.17,2.22.31a.61.61,0,0,0,0-.53c-.47-1.15-1.1-.15-1.95-.88s-1.1-1.23.31-2.12,1.61-1.17.69-1.45-1.42-1.27-.29-1.28.85-1.43,1.83-1.61,2.08-2.19,2.71-1l0,0c.56-1.33,2.12-.59,2.15-2.41,0-2,1.88.83,2-1.51s1.5.39,2.71-1.17c.83-1.07,1.07-.53,1.66-.35a2,2,0,0,0,.09-.63c0-2,1.88.82,2-1.51s1.5.39,2.71-1.16,1.16.3,2.8-.54,1.86,1.79,2.49.62c.39-.73,1-.21,1.59.32.73-.59,1.44-1.43,1.9-.58C45,2,45.19-.67,46.83.17s1.59-.73,2.53.22c.94-1,1,.55,2.53-.22s1.74,1,2.19.91a2.63,2.63,0,0,1,.31-.31c.34-.61.81-.31,1.33.12a1.52,1.52,0,0,0,1-.2c1.63-.84,1.86,1.79,2.49.62s1.72.85,2.7,1c.63.11.75.74,1,1.17A1.51,1.51,0,0,0,64,3.31c1.64-.84,1.86,1.79,2.49.62s1.72.85,2.71,1S70,6.55,71.07,6.55s.62,1-.29,1.28-.72.56.69,1.45l0,0c1-1,1,.53,2.55-.25s1.86,1.79,2.49.62,1.73.85,2.71,1,.71,1.6,1.83,1.61.63,1-.29,1.28-.72.56.69,1.45,1.17,1.35.41,2a.9.9,0,0,0,.82.47c.69,0,.76.38.5.74.45.16.89.33,1.33-.08.81-.75,1.17.3.7,1.12s-.12.89,1.54.59,1.83.23,1.74,1.33-1.26.8-.78,1.94,2.42-.49,2.43.49-.64,1.27.56,1.79.78,1.76-.63,2.25-1.67,1.2-.58,1.7a3,3,0,0,1,.66.4c.65-.38.9.54.48,1.28s-.12.89,1.54.59S94,31.91,93.91,33s-1.26.8-.78,1.94,2.42-.49,2.43.49-.64,1.27.56,1.79.78,1.77-.63,2.25-1.67,1.2-.58,1.7c1.91.87.65,1.67-.41,2.22A.82.82,0,0,0,94,44h0c1.66-.3,1.83.23,1.74,1.33s-1.26.79-.78,1.94,2.42-.49,2.43.49S96.82,49,98,49.52s.78,1.76-.63,2.26-1.67,1.2-.58,1.7c1.91.88.65,1.67-.41,2.23-.72.38-.43,1-.54,1.5.21,1.32-1.14,1.87-.07,1.55,2.53-.77.32,1.53.32,1.53s.32.15,1,1.22-1,1.23-.47,2.3,1,2.45-1.11,2c-1.18-.26-1.43.46-.64,1.68s.32,2.45-1,2.14-.95.31-1.58,1.07c-.18.22-.35.17-.53,0,1.4,1.37-.48,1.07.15,2.75s-2.09,1.53-1,2.3c.72.5,0,1-.61,1.53.21.15.31.31.09.53-.7.71-1.37.49-.88,1.66s-.7,1.8-2.06,1.21-2.07-.25-1.64.84c.75,1.9-.7,1.64-1.86,1.34-.45.46-1.25.93-1.43,1.46-.32.92-1.74.46-1.9,1.53s-1.11.46-1.27-.46-.48-.77-1.58.46-1.58.92-2.22,0a1.29,1.29,0,0,1-.13-1.16,1.69,1.69,0,0,1-.49-.13c-.87-.4-.92-.06-.51,1.52s-.12,1.78-1.26,1.76-.95-1-1.84-.7a.86.86,0,0,1-.6.73c0,.72.78,1.66,0,1.71-1,.07-1.35-.53-1.81.65s-1.78.87-2.37-.46a2.59,2.59,0,0,0-.65-1c-.15.45.41.83,0,1.57-.52,1-1,1.34-2.2.24s-1.58-1.22-1.63-.28-.8,1.52-1.13.77c-.58-.08-.87-.24-1.23.68-.46,1.18-1.77.87-2.37-.46a3.5,3.5,0,0,0-.42-.72,2.2,2.2,0,0,1-.19.37c-.28.43-.62,0-1-.41a2,2,0,0,0-.16.31c-.46,1.11-1,1.17-1.41.83a1.11,1.11,0,0,1-.13.49c-.52,1-1,1.34-2.2.24-.26-.23-.48-.41-.66-.55-.3.11-.66.15-1,.26v0c0,.69-.53,1.26-.89,1.08-.37.18-.86-.39-.9-1.08v0c-.3-.11-.66-.14-1-.26-.19.15-.4.32-.67.55-1.24,1.1-1.68.74-2.2-.24a1.07,1.07,0,0,1-.13-.49c-.46.33-1,.27-1.41-.83a1.94,1.94,0,0,0-.16-.31c-.4.41-.74.84-1,.41a2.16,2.16,0,0,1-.19-.37,3.47,3.47,0,0,0-.42.72c-.59,1.33-1.91,1.64-2.37.46-.36-.92-.65-.76-1.23-.68-.33.75-1.08.09-1.13-.77s-.38-.82-1.63.28-1.68.74-2.2-.24c-.39-.74.17-1.12,0-1.57a2.6,2.6,0,0,0-.66,1c-.59,1.33-1.91,1.65-2.37.46s-.8-.58-1.81-.65c-.73,0,0-1,0-1.71a.87.87,0,0,1-.61-.73c-.9-.29-.78.68-1.84.7s-1.67-.19-1.26-1.76a7.42,7.42,0,0,0,.24-1.13,1.91,1.91,0,0,1-1.17.2,1,1,0,0,1-.2.7c-.63.92-1.11,1.22-2.22,0s-1.42-1.38-1.58-.46-1.11,1.53-1.26.46-1.58-.61-1.9-1.53-2.53-1.68-1.43-2.45c.86-.6-.57-.64-1-1.41l-.22,0c-1.35-.2-.77-1.07-1.07-1.57a1.5,1.5,0,0,0-.11.39c-.16.92-1.11,1.53-1.27.46s-1.58-.61-1.9-1.53-2.54-1.68-1.42-2.45-1.61-.61-1-2.3-1.26-1.38.15-2.75c-.17.16-.34.21-.52,0-.63-.77-.32-1.38-1.59-1.07s-1.74-.92-.95-2.14.54-1.95-.63-1.68c-2.06.46-1.58-.92-1.11-2S1,62.57,1.66,61.5s.95-1.22.95-1.22S.39,58,2.93,58.75c1.08.32-.27-.23-.06-1.55-.12-.5.18-1.12-.54-1.5-1.06-.56-2.32-1.35-.41-2.23C3,53,2.73,52.26,1.33,51.77Z"/><path class="cls-5" d="M57.26,2.88A9.76,9.76,0,0,0,53.6,2c.51-.27.95-1,1.32-1.3A2.53,2.53,0,0,1,54.5.6c.33-.36.75-.08,1.21.3a1.52,1.52,0,0,0,1-.2c1.63-.84,1.86,1.79,2.49.62s1.72.85,2.7,1c.63.11.75.74,1,1.17A1.51,1.51,0,0,0,64,3.31c1.64-.84,1.86,1.79,2.49.62s1.72.85,2.71,1S70,6.55,71.07,6.55s.62,1-.29,1.28-.72.56.69,1.45l0,0c1-1,1,.53,2.55-.25s1.86,1.79,2.49.62,1.73.85,2.71,1,.71,1.6,1.83,1.61.63,1-.29,1.28-.72.56.69,1.45,1.17,1.35.41,2a.9.9,0,0,0,.82.47c.69,0,.76.38.5.74.45.16.89.33,1.33-.08.81-.75,1.17.3.7,1.12s-.12.89,1.54.59,1.83.23,1.74,1.33-1.26.8-.78,1.94,2.42-.49,2.43.49-.64,1.27.56,1.79.78,1.76-.63,2.25-1.67,1.2-.58,1.7a3,3,0,0,1,.66.4c.65-.38.9.54.48,1.28s-.12.89,1.54.59S94,31.91,93.91,33s-1.26.8-.78,1.94,2.42-.49,2.43.49-.64,1.27.56,1.79.78,1.77-.63,2.25-1.67,1.2-.58,1.7c1.91.87.65,1.67-.41,2.22A.82.82,0,0,0,94,44h0c1.66-.3,1.83.23,1.74,1.33s-1.26.79-.78,1.94,2.42-.49,2.43.49S96.82,49,98,49.52s.78,1.76-.63,2.26-1.67,1.2-.58,1.7c1.91.88.65,1.67-.41,2.23-.72.38-.43,1-.54,1.5.21,1.32-1.14,1.87-.07,1.55l.05,0h0c2.39-.68.23,1.56.23,1.56s.32.15,1,1.22-1,1.23-.47,2.3,1,2.45-1.11,2c-1.18-.26-1.43.46-.64,1.68s.32,2.45-1,2.14-.95.31-1.58,1.07c-.18.22-.35.17-.53,0a2.92,2.92,0,0,1,.32.36l0,0a1.07,1.07,0,0,1,.14.26l0,0a.48.48,0,0,1,0,.2v0a.54.54,0,0,1-.07.17l-.05.08,0,.07a2.4,2.4,0,0,0-.19.29h0a1.22,1.22,0,0,0-.1.27v0a1.19,1.19,0,0,0,0,.35,2,2,0,0,0,.13.52c.63,1.68-2.09,1.53-1,2.3.72.5,0,1-.61,1.53.21.15.31.31.09.53-.7.71-1.37.49-.88,1.66s-.7,1.8-2.06,1.21-2.07-.25-1.64.84c.65,1.63-.34,1.67-1.37,1.46a2.76,2.76,0,0,0,1.14-3c.51-.06,1.14-.49,1.46-.53A2.76,2.76,0,0,0,86,79c2.34-2.86-3.6-1.12-4.35-1.1-.52,2.63-4.74,1.43-6.33,1.34-.38,0-.29.78-.93.71s-1.2-.78-1.78-.95a21.65,21.65,0,0,0-4.9-.87c-.43-.5-.93-.93-1.45-1.47a28.24,28.24,0,0,0,4.3-.21,2.73,2.73,0,0,1-.68-.28c3.82-.22,7.74.36,11-1.58.81-.49.06-1.44.68-1.81,1.12-.67,2.89.18,4.21-.19a6.47,6.47,0,0,0-.43-1c1.18.22,2.23-.06,2.1-1.26,3.16-.5,1.32-2.81-.76-3.35,1.45.22,3.49.35,4.64-.38a22.4,22.4,0,0,1-1.8-1.44c.51-.16,1-.74,1.46-.9a5.42,5.42,0,0,0-3.9-1.22c.89-.23.87-.78,1.32-1.23-.62-.25-1.11-.82-1.94-.81a4.45,4.45,0,0,0,3.3-1,12.15,12.15,0,0,0-3.39-1.74c4.05-1.45-.78-3.15-2.35-3.38.59-.27.8-.76,1.07-1-.35,0-.72,0-1.08,0a3,3,0,0,0,2.56-1.18,8.83,8.83,0,0,0-4.14-1.16,5.26,5.26,0,0,0,1.81-.71,5.6,5.6,0,0,0-4.82-1.58,1.33,1.33,0,0,1,.28-.19,15.87,15.87,0,0,1-3.39-.3c.39-.06.91,0,1.3-.07a7.15,7.15,0,0,1-.06-.94c1.22.12,2.57.35,3.46-.38-.51-.49-.87-1.1-1.59-1.38,2.75.41,6.28,1.41,9.08.85-.3-.11-.83-.66-1.24-.84.31-.27.42-.87.64-1.1-.48-.16-1-.69-1.56-.76.28-.06,1-.54,1.34-.62A8,8,0,0,1,86.57,43c.14-.17.39-.78.5-.9a10.63,10.63,0,0,1-2.18-.2c.47-.41.74-1.27,1.16-1.7a34.73,34.73,0,0,1-3.69-2.08c1.52-2.09,2.13-2.53-.78-4.06,1.78-.28,1.49-1.52,1-2.6-1.34-.09-3,.32-4.28-.23-.59-.26-.67-1.3-1.43-1.51-1.79-.49-2.26.9-4,1.52a6.35,6.35,0,0,0,1.34-.76c-2.68-.9-5.47-1.43-8.22-2.26,1.23.14,2.44-.1,2.9-1.19-.35-.21-.89-1.09-1-1.18,1.49-.16,4-.34,3.23-2.26A4.7,4.7,0,0,0,74,23.18c-.54-.25-1.23-1-1.83-1.18.58-.22.81-.86,1.15-1.08A8.9,8.9,0,0,0,71,19.49a5.14,5.14,0,0,0,3.23-.74c-.5-.3-.82-1.08-1.32-1.39.22-.21.43-.78.62-1-.43,0-.94-.46-1.55-.45.11-.67-.33-1-.4-1.41a16.51,16.51,0,0,0-1.76,1.29c.79-3.31-4.76-1-6.28-.83.28-1.24.43-2.51-1.22-2.69.9-.1,1.13-.72,1.67-1.07-1.27-.81-3.42-.64-5-.65.65-.79,2-.75,2.94-1.37-.21,0-.67-.18-1-.2a5.45,5.45,0,0,0,1.77-1.36c-.44,0-.87-.23-1.32-.26A1.58,1.58,0,0,0,63.13,6a14.28,14.28,0,0,0-5-.41c.47-.21.79-.66,1.2-.9a6.43,6.43,0,0,0-2.93-1C56.72,3.45,57,3.07,57.26,2.88Z"/><path class="cls-6" d="M1.33,51.77C-.08,51.28-.49,50,.7,49.52s.55-.81.55-1.79,2,.66,2.43-.49S3,46.4,2.9,45.3,3,43.67,4.64,44h0a.81.81,0,0,0-.46-.56c-1.06-.56-2.32-1.35-.41-2.22,1.09-.5.82-1.22-.58-1.7s-1.82-1.73-.63-2.25.55-.81.55-1.79,1.95.66,2.43-.49-.69-.84-.78-1.94.08-1.62,1.74-1.33,2,.23,1.54-.59-.17-1.65.48-1.28a3,3,0,0,1,.66-.4c1.09-.5.82-1.21-.58-1.7S6.81,26,8,25.46s.55-.81.55-1.79,2,.66,2.43-.49-.69-.84-.78-1.94.08-1.63,1.74-1.33,2,.23,1.54-.59-.11-1.87.7-1.12,1.63-.47,2.47.06c.52.33,1.58.17,2.22.31a.61.61,0,0,0,0-.53c-.47-1.15-1.1-.15-1.95-.88s-1.1-1.23.31-2.12,1.61-1.17.69-1.45-1.42-1.27-.29-1.28.85-1.43,1.83-1.61,2.08-2.19,2.71-1l0,0c.56-1.33,2.12-.59,2.15-2.41,0-2,1.88.83,2-1.51s1.5.39,2.71-1.17c.83-1.07,1.07-.53,1.66-.35a2,2,0,0,0,.09-.63c0-2,1.88.82,2-1.51s1.5.39,2.71-1.16,1.16.3,2.8-.54a1.14,1.14,0,0,1,1-.11.73.73,0,0,0-.07.08c.48,1,.49,1.23-.43,2a15.18,15.18,0,0,0,.72,1.8c1.1.09,2.2,0,3.3.08.18,1.87,2.3,1.12,3.76,1A14.32,14.32,0,0,1,49.19,5c.7.07,1.39.7,2.3.57a1.68,1.68,0,0,0-.35.47c.09.35.47.39.43.79-.32,0-.86.26-1.28.26.65,3.46-6.09-.19-7,2.51-1.12-.09-2.21-.46-3.3-.46-.06.24,0,.45-.06.7a4.83,4.83,0,0,1-2.83.06c-.1.22-.05.47-.13.7a19.31,19.31,0,0,0-2.19.85.34.34,0,0,1,.11.42,10.07,10.07,0,0,1-3-.11.25.25,0,0,1,.1.36,17.09,17.09,0,0,0-1.8-.07c.28.93,1,.95,1.36,1.45.14.21,1.31.43,1.61.72.1.09-.2.66-.06.76,1.74,1.29,3.13,1.44,5.5,2.36,0,.27.12.7.09,1a12.2,12.2,0,0,0,2.55.28,6.69,6.69,0,0,1-.2.94c1.39.1,2.81,0,4.19.06-.76,2.19-2.55.88-4.21,1.29-1,.24-2.47,1.83-3.46,2a31.14,31.14,0,0,1-3.67,0c-2.84,0-3.36,1.13-6,1.87.47.46.65,1.57.94,2-.5,0-1.23.54-1.73.57,1,3,2.24,2.48,5.21,3.53,1.42.51,4,2.09,5.79,2.88-.37.24-.61.71-1,.94,2.24,2.13,6.16,2.18,9.08,2-.87,1.43,3.71,1,4.62,1.28,1.75.63,3.17,3.14,0,2.59,2.93,2.91.86,2.41-2.11,3.85-.54.26-.72,1.15-1.54,1.43-1.53.52-3.12.17-4.7.4-.56,2.21-3.88.06-5.37.17s-2.69,1.22-4.75,1.35a1.7,1.7,0,0,1-.45,2.26c.66.3,1.15,1.1,1.73,1.45-.25.21-.44.64-.66.83a6.3,6.3,0,0,1,2,2.1.49.49,0,0,0-.35.54c1.65.58,3.51.61,5.07,1.38-1.28,2.75,2.62,2.67,4.52,2.6,1.08,3.16,5.51-1,7.15-.09,2.87,1.6-1.54,2.92-2.1,3.38a5.1,5.1,0,0,1,.77.48c-.55,1.42-2.3,1.59-3.77,1.64,2,2.41,2.2,2.59,5.58,2.26-.09.11-.27.11-.41.24A13.06,13.06,0,0,1,54.16,69c.36.3-.21.74.11,1.06.88.85,3,1,4.17,1.58a9.55,9.55,0,0,1-1,2.76c1.3.9,2.75,1.56,4.11,2.35-.27.51-.16,1.27-.68,1.78,1.08,1.08,3.4,1.46,2.88,3.2a65.2,65.2,0,0,1,6.85,1.63c.9.25,2.87.55,3.67,1.14-.14.14-.1.55.08,1.27a1.83,1.83,0,0,0-.13.36l.26.21c.29,1.35-.23,1.55-1.31,1.53s-.95-1-1.84-.7a.86.86,0,0,1-.6.73c0,.72.78,1.66,0,1.71-1,.07-1.35-.53-1.81.65s-1.78.87-2.37-.46a2.59,2.59,0,0,0-.65-1c-.15.45.41.83,0,1.57-.52,1-1,1.34-2.2.24s-1.58-1.22-1.63-.28-.8,1.52-1.13.77c-.58-.08-.87-.24-1.23.68-.46,1.18-1.77.87-2.37-.46a3.5,3.5,0,0,0-.42-.72,2.2,2.2,0,0,1-.19.37c-.28.43-.62,0-1-.41a2,2,0,0,0-.16.31c-.46,1.11-1,1.17-1.41.83a1.11,1.11,0,0,1-.13.49c-.52,1-1,1.34-2.2.24-.26-.23-.48-.41-.66-.55-.3.11-.66.15-1,.26v0c0,.69-.53,1.26-.89,1.08-.37.18-.86-.39-.9-1.08v0c-.3-.11-.66-.14-1-.26-.19.15-.4.32-.67.55-1.24,1.1-1.68.74-2.2-.24a1.07,1.07,0,0,1-.13-.49c-.46.33-1,.27-1.41-.83a1.94,1.94,0,0,0-.16-.31c-.4.41-.74.84-1,.41a2.16,2.16,0,0,1-.19-.37,3.47,3.47,0,0,0-.42.72c-.59,1.33-1.91,1.64-2.37.46-.36-.92-.65-.76-1.23-.68-.33.75-1.08.09-1.13-.77s-.38-.82-1.63.28-1.68.74-2.2-.24c-.39-.74.17-1.12,0-1.57a2.6,2.6,0,0,0-.66,1c-.59,1.33-1.91,1.65-2.37.46s-.8-.58-1.81-.65c-.73,0,0-1,0-1.71a.87.87,0,0,1-.61-.73c-.9-.29-.78.68-1.84.7s-1.67-.19-1.26-1.76a7.42,7.42,0,0,0,.24-1.13,1.91,1.91,0,0,1-1.17.2,1,1,0,0,1-.2.7c-.63.92-1.11,1.22-2.22,0s-1.42-1.38-1.58-.46-1.11,1.53-1.26.46-1.58-.61-1.9-1.53-2.53-1.68-1.43-2.45c.86-.6-.57-.64-1-1.41l-.22,0c-1.35-.2-.77-1.07-1.07-1.57a1.5,1.5,0,0,0-.11.39c-.16.92-1.11,1.53-1.27.46s-1.58-.61-1.9-1.53-2.54-1.68-1.42-2.45-1.61-.61-1-2.3-1.26-1.38.15-2.75c-.17.16-.34.21-.52,0-.63-.77-.32-1.38-1.59-1.07s-1.74-.92-.95-2.14.54-1.95-.63-1.68c-2.06.46-1.58-.92-1.11-2S1,62.57,1.66,61.5s.95-1.22.95-1.22S.39,58,2.93,58.75c1.08.32-.27-.23-.06-1.55-.12-.5.18-1.12-.54-1.5-1.06-.56-2.32-1.35-.41-2.23C3,53,2.73,52.26,1.33,51.77Z"/><path class="cls-7" d="M1.33,51.77C-.08,51.28-.49,50,.7,49.52s.55-.81.55-1.79,2,.66,2.43-.49S3,46.4,2.9,45.3,3,43.67,4.64,44h0a.81.81,0,0,0-.46-.56c-1.06-.56-2.32-1.35-.41-2.22,1.09-.5.82-1.22-.58-1.7s-1.82-1.73-.63-2.25.55-.81.55-1.79,1.95.66,2.43-.49-.69-.84-.78-1.94.08-1.62,1.74-1.33,2,.23,1.54-.59-.17-1.65.48-1.28a3,3,0,0,1,.66-.4c1.09-.5.82-1.21-.58-1.7S6.81,26,8,25.46s.55-.81.55-1.79,2,.66,2.43-.49-.69-.84-.78-1.94.08-1.63,1.74-1.33,2,.23,1.54-.59-.11-1.87.7-1.12,1.63-.47,2.47.06c.52.33,1.58.17,2.22.31a.61.61,0,0,0,0-.53c-.47-1.15-1.1-.15-1.95-.88s-1.1-1.23.31-2.12,1.61-1.17.69-1.45-1.42-1.27-.29-1.28.85-1.43,1.83-1.61,2.08-2.19,2.71-1l0,0c.56-1.33,2.12-.59,2.15-2.41,0-2,1.88.83,2-1.51s1.5.39,2.71-1.17c.83-1.07,1.07-.53,1.66-.35a2,2,0,0,0,.09-.63c0-2,1.88.82,2-1.51,0-.07,0-.13,0-.2a3.94,3.94,0,0,0,2,.6c-.36,1.34-.6,3-2.44,3a6.93,6.93,0,0,0-.77,1.21,9.06,9.06,0,0,0,1.42,0c.27.07.68.16.17,0h-.17l-.18,0c1-.36,2-.62,3.05-.9,0,1.3-6.55,3.46-8,3.54a10.28,10.28,0,0,1,1.43.72,8.38,8.38,0,0,1-2.51.54,4.27,4.27,0,0,1,.67.46c-.91,1.28-2.87.65-3.7,2a12.83,12.83,0,0,1,3.44.85c-.34.08-1.09.47-1.52.56a11.68,11.68,0,0,1,1.67.55,8.07,8.07,0,0,1-2.21,1,7.88,7.88,0,0,1-3.19,2.77c2-.18,3.59.75,5.47.8a14.4,14.4,0,0,0-2.21.71c.33.16.65.33,1,.52-1,.81-2.78.74-4.16,1.07a7.35,7.35,0,0,1,.71.71c-1.83.91-4.47,1.55-5.66,3.26.63,0,1.3.5,1.78.56-.49.38-1,1.21-1.57,1.5,1.43,0,2.37.8,3.85.92-.12.25-.21.41-.33.65a22.63,22.63,0,0,0,3.46,1.6c-.24,1.22,1.43,1.39,2.43,2.23-.56.73-.45,1.14-1.74,1.27a5.93,5.93,0,0,1,2.28.84,6.33,6.33,0,0,1-3.92.25l.08,0c-.08,0-.68-.2-.52-.06l.43.09c-2,.75-6.58,1-8.81,1a11.63,11.63,0,0,0,.65,1.73c1.39.06,2.77,0,4.15.06a6.53,6.53,0,0,1-.09.71c2,.76,4,.59,5.93,1.12,2.28.61,3.66,1.62,6.18,1.41a.37.37,0,0,1-.09-.45,10.25,10.25,0,0,1,3.91.7l-.74,0a9.07,9.07,0,0,0-1.74,0,11.78,11.78,0,0,0,1.74,0,3.05,3.05,0,0,1,1.53.58c-2.38,1.14-5.44.08-8,.23l.55.27c-1.51.66-3.2.39-4.81.53.17.39.18,1,.29,1.26a10.18,10.18,0,0,1-4-.51,7.75,7.75,0,0,1,1.87,1.23,17.4,17.4,0,0,1-2,.26c5.58,3.69-3.67,3.78-5.14,6.86.48.15.93.73,1.36.88-.44.28-.7.92-1.26,1.18a9,9,0,0,0,1.26.72,3.59,3.59,0,0,1-1.7,1.9c.83.51,1.67,1,2.53,1.48a9.68,9.68,0,0,1-.88.67,22.68,22.68,0,0,1,3.47,1.11c2.66-1.21,9.1-1.76,12.09-.2a24.63,24.63,0,0,1-5,.49c.85.18,1.92.31,2.81.55-1.48,1-3.27.67-4.64,1.9a57,57,0,0,1,7.31,1.14l-.28.19,3,0a15.5,15.5,0,0,0-1.77.31,16.29,16.29,0,0,1,4.49,1.24c-.52.19-1,.55-1.58.71a11,11,0,0,1,4.08.53c-.49.25-1,.84-1.56,1.11a12.91,12.91,0,0,0,5.19,1,7,7,0,0,0-1.1.72c.81.07,1.3.8,1.85,1C44,72.76,38.5,72.86,37,72.88c.34.18.81.76,1.22,1a4.84,4.84,0,0,1-3.1.74c.78-.08,1.15.4,1.73.58a1.43,1.43,0,0,0-.07.72c.56.18,1.17.82,1.65,1a10.54,10.54,0,0,1-1.85.69c-.09,3.22,2.62,1.13,4,.92A5.59,5.59,0,0,1,45,79.73a10.82,10.82,0,0,1-1.51,2,22.55,22.55,0,0,0,3.59-.62c-.54.45-.81,1.17-1.28,1.64a9.46,9.46,0,0,1,3.31.29c-.55.62-.56,1.18-1.49,1.55,1.88-.07,3.68.29,5.22-1a11.74,11.74,0,0,1,1.92,1.52,10.44,10.44,0,0,0-.19-1.27c1.62,1.8.1,3,.65,4.79.77,2.54,4.32,2.49,6.83,2-.19.68-.79,1.1-1.08.45-.58-.08-.87-.24-1.23.68-.46,1.18-1.77.87-2.37-.46a3.5,3.5,0,0,0-.42-.72,2.2,2.2,0,0,1-.19.37c-.28.43-.62,0-1-.41a2,2,0,0,0-.16.31c-.46,1.11-1,1.17-1.41.83a1.11,1.11,0,0,1-.13.49c-.52,1-1,1.34-2.2.24-.26-.23-.48-.41-.66-.55-.3.11-.66.15-1,.26v0c0,.69-.53,1.26-.89,1.08-.37.18-.86-.39-.9-1.08v0c-.3-.11-.66-.14-1-.26-.19.15-.4.32-.67.55-1.24,1.1-1.68.74-2.2-.24a1.07,1.07,0,0,1-.13-.49c-.46.33-1,.27-1.41-.83a1.94,1.94,0,0,0-.16-.31c-.4.41-.74.84-1,.41a2.16,2.16,0,0,1-.19-.37,3.47,3.47,0,0,0-.42.72c-.59,1.33-1.91,1.64-2.37.46-.36-.92-.65-.76-1.23-.68-.33.75-1.08.09-1.13-.77s-.38-.82-1.63.28-1.68.74-2.2-.24c-.39-.74.17-1.12,0-1.57a2.6,2.6,0,0,0-.66,1c-.59,1.33-1.91,1.65-2.37.46s-.8-.58-1.81-.65c-.73,0,0-1,0-1.71a.87.87,0,0,1-.61-.73c-.9-.29-.78.68-1.84.7s-1.67-.19-1.26-1.76a7.42,7.42,0,0,0,.24-1.13,1.91,1.91,0,0,1-1.17.2,1,1,0,0,1-.2.7c-.63.92-1.11,1.22-2.22,0s-1.42-1.38-1.58-.46-1.11,1.53-1.26.46-1.58-.61-1.9-1.53-2.53-1.68-1.43-2.45c.86-.6-.57-.64-1-1.41l-.22,0c-1.35-.2-.77-1.07-1.07-1.57a1.5,1.5,0,0,0-.11.39c-.16.92-1.11,1.53-1.27.46s-1.58-.61-1.9-1.53-2.54-1.68-1.42-2.45-1.61-.61-1-2.3-1.26-1.38.15-2.75c-.17.16-.34.21-.52,0-.63-.77-.32-1.38-1.59-1.07s-1.74-.92-.95-2.14.54-1.95-.63-1.68c-2.06.46-1.58-.92-1.11-2S1,62.57,1.66,61.5s.95-1.22.95-1.22S.39,58,2.93,58.75c1.08.32-.27-.23-.06-1.55-.12-.5.18-1.12-.54-1.5-1.06-.56-2.32-1.35-.41-2.23C3,53,2.73,52.26,1.33,51.77Z"/><path class="cls-8" d="M1.33,51.77C-.08,51.28-.49,50,.7,49.52s.55-.81.55-1.79,2,.66,2.43-.49S3,46.4,2.9,45.3,3,43.67,4.64,44h0a.81.81,0,0,0-.46-.56c-1.06-.56-2.32-1.35-.41-2.22,1.09-.5.82-1.22-.58-1.7s-1.82-1.73-.63-2.25.55-.81.55-1.79,1.95.66,2.43-.49-.69-.84-.78-1.94.08-1.62,1.74-1.33,2,.23,1.54-.59-.17-1.65.48-1.28a3,3,0,0,1,.66-.4c1.09-.5.82-1.21-.58-1.7S6.81,26,8,25.46s.55-.81.55-1.79,2,.66,2.43-.49-.69-.84-.78-1.94.08-1.63,1.74-1.33,2,.23,1.54-.59-.11-1.87.7-1.12,1.63-.47,2.47.06c.52.33,1.58.17,2.22.31a.61.61,0,0,0,0-.53c-.47-1.15-1.1-.15-1.95-.88s-1.1-1.23.31-2.12,1.61-1.17.69-1.45-1.42-1.27-.29-1.28.85-1.43,1.83-1.61,2.08-2.19,2.71-1l0,0c.56-1.33,2.12-.59,2.15-2.41,0-2,1.88.83,2-1.51s1.5.39,2.71-1.17c.58-.75.87-.71,1.2-.55,2.9,2.85-3.85,2.74-4.1,4.73-.8.2-2,.29-2.65.38a4.87,4.87,0,0,1,1.11.53c-.36.14-.84.75-1.27.92.14.24.2.63.36.9-.43,0-1,.44-1.26.48.31.19.57.57.85.76a2.27,2.27,0,0,1-2,1.6c.4.92,3.78,1.43,1.47,2.76.21,0,.63.06.77.06A2,2,0,0,1,22,18.53c-.57.43-.07.71-1.3.91C22,20.83,18.58,21.85,17.21,22a.43.43,0,0,0,.12.42c-.74.14-1.66.34-2.42.55.43.33.52.82.76,1.08-.44.16-.78.62-1.33.73.18.13.42.29.6.44-.41.29-.57.92-1.07,1.19a3.13,3.13,0,0,0,2.79.47c.08.32-.06.51-.12.81.45,0,.92.31,1.31.36a2.82,2.82,0,0,1-2.11,1.12c.61,2,3.27.66,4.74,1.13a5.35,5.35,0,0,1,.13,1.28c-2.06-.73-5.87.39-7.29-1.09a3.59,3.59,0,0,0-1.15,1.17c.27.12.55.37.86.49-1,1.35-3,.83-4.47.92a2.64,2.64,0,0,1-1.46,1.8c.21.23.36.69.62.95-.46.1-1,.59-1.47.67a5.17,5.17,0,0,0-.56,3.26c0,.26-.05,1.21,0,1.6.05.83.85,1.2.28,2.34,1.06.26,2.19.41,3.26.71a2.27,2.27,0,0,0,1.72,1.8c.13-.36.66-.74.79-1.09.5.21,1.62.61,1.6.59.05.53,2.17.66,3.54,1s2.27,1.83,3.63.37a4.37,4.37,0,0,0,.51.75,6.64,6.64,0,0,1,1.85-1.08c0,1.19-1.18,1.5-2.33,1.39-.31,2.66-8.07.35-10,.47a.47.47,0,0,1,.28.38,16.06,16.06,0,0,1-2.4,0,39,39,0,0,1-2.15,3.72c.53.06,1.11.58,1.63.67-.37.51-.48,1.26-1.11,1.68,1.07.81.5,1.85,1,2.5.63.88,1.87,1.24,2.66,2.13-.3.19-.57.46-.87.64a6,6,0,0,0,3.64.75c.29,2-2.31,3.05-3,4.77-.85.29-.76.34-1.16,1.2.59.08,1.16.55,1.87.47-.53.24-.88.86-1.27,1.12,1.32.47,1.4,1.67.45,2.59.17.13.34.26.5.4a.59.59,0,0,1-.35.47,3.91,3.91,0,0,0,2.7.72c-.15.37.06.86-.37,1.38a16.37,16.37,0,0,0,2.48.2c1.19.11,1.71,1.35,2.85-.12.12.43.65.85.77,1.29a7.78,7.78,0,0,1,4.22-.66,2.65,2.65,0,0,0-.09.64c1.17,0,6.32-1.42,4.39,1.18,1.6,1.23,4.27-.86,6-.93,2.31-.11,4.82.2,7.2.19-1,.21-1.89.93-3.15,1.2a9,9,0,0,1-5.48-.4c-.22,2.5-4.8,1.48-6.71,1.55a26.45,26.45,0,0,1-3.44,0c-1.09-.1-1.22-1.08-2.29-.39.83,3,5.4,1.74,7.59,2.59-.61,1.58,1.66,1.67,2.83,1.88-.09,1.11.55,2.22,1,2.17.69,1.14,6.86,0,9.08.72.33-2,1.15-.76,2.36-.91A20.3,20.3,0,0,1,46,84c-.4.35-.59,1-.84,1.33,1.16.58,3.41.75,3.79-.06.76,2.45,2.82.07,3.39-1.11a1.75,1.75,0,0,1,1.2.84,3.76,3.76,0,0,0-.45.78l.63-.45a3.36,3.36,0,0,0-.18-.33c.91-1.22,2.27-1.15,4-1a2.42,2.42,0,0,0-.68.4,3.43,3.43,0,0,0,.73-.39h-.06a4.3,4.3,0,0,1,4.23.74c.49.25,1.34,1.2,1.77,1.3,1.14.27.59-.26,1.47-.23s1.44-.7,2.48-.22a.4.4,0,0,0-.47.08,13.94,13.94,0,0,0,2.53,1.83c.2-.24.51-.46.71-.72a4.88,4.88,0,0,0,.55,1.16h0c0,.72.78,1.66,0,1.71-1,.07-1.35-.53-1.81.65s-1.78.87-2.37-.46a2.59,2.59,0,0,0-.65-1c-.15.45.41.83,0,1.57-.52,1-1,1.34-2.2.24s-1.58-1.22-1.63-.28-.8,1.52-1.13.77c-.58-.08-.87-.24-1.23.68-.46,1.18-1.77.87-2.37-.46a3.5,3.5,0,0,0-.42-.72,2.2,2.2,0,0,1-.19.37c-.28.43-.62,0-1-.41a2,2,0,0,0-.16.31c-.46,1.11-1,1.17-1.41.83a1.11,1.11,0,0,1-.13.49c-.52,1-1,1.34-2.2.24-.26-.23-.48-.41-.66-.55-.3.11-.66.15-1,.26v0c0,.69-.53,1.26-.89,1.08-.37.18-.86-.39-.9-1.08v0c-.3-.11-.66-.14-1-.26-.19.15-.4.32-.67.55-1.24,1.1-1.68.74-2.2-.24a1.07,1.07,0,0,1-.13-.49c-.46.33-1,.27-1.41-.83a1.94,1.94,0,0,0-.16-.31c-.4.41-.74.84-1,.41a2.16,2.16,0,0,1-.19-.37,3.47,3.47,0,0,0-.42.72c-.59,1.33-1.91,1.64-2.37.46-.36-.92-.65-.76-1.23-.68-.33.75-1.08.09-1.13-.77s-.38-.82-1.63.28-1.68.74-2.2-.24c-.39-.74.17-1.12,0-1.57a2.6,2.6,0,0,0-.66,1c-.59,1.33-1.91,1.65-2.37.46s-.8-.58-1.81-.65c-.73,0,0-1,0-1.71a.87.87,0,0,1-.61-.73c-.9-.29-.78.68-1.84.7s-1.67-.19-1.26-1.76a7.42,7.42,0,0,0,.24-1.13,1.91,1.91,0,0,1-1.17.2,1,1,0,0,1-.2.7c-.63.92-1.11,1.22-2.22,0s-1.42-1.38-1.58-.46-1.11,1.53-1.26.46-1.58-.61-1.9-1.53-2.53-1.68-1.43-2.45c.86-.6-.57-.64-1-1.41l-.22,0c-1.35-.2-.77-1.07-1.07-1.57a1.5,1.5,0,0,0-.11.39c-.16.92-1.11,1.53-1.27.46s-1.58-.61-1.9-1.53-2.54-1.68-1.42-2.45-1.61-.61-1-2.3-1.26-1.38.15-2.75c-.17.16-.34.21-.52,0-.63-.77-.32-1.38-1.59-1.07s-1.74-.92-.95-2.14.54-1.95-.63-1.68c-2.06.46-1.58-.92-1.11-2S1,62.57,1.66,61.5s.95-1.22.95-1.22S.39,58,2.93,58.75c1.08.32-.27-.23-.06-1.55-.12-.5.18-1.12-.54-1.5-1.06-.56-2.32-1.35-.41-2.23C3,53,2.73,52.26,1.33,51.77Z"/><path class="cls-8" d="M16.19,66.34a4.81,4.81,0,0,1,2.46.92c0-.11-.18-.72-.26-.9,1.53-.16,3,1.32,4-.25,1.35,1.46,5.3,3.43,6.27.48,1.49.38,2.58-.51,4.05-.48-.12,1.11.27,2.09,1.57,1.88l-.48.38a6.71,6.71,0,0,1,1.22.07c-.12.12-.42.5-.56.68.47,0,1.07.1,1.51,0-.2.14-.41.17-.52.37a10.53,10.53,0,0,1,2.1.26c-.25.12-.65.37-.88.49a18.37,18.37,0,0,1,2.49,0c-2.82,1.74-8,.53-10.94-.72a4.88,4.88,0,0,1,.86.7,10.82,10.82,0,0,1-3.49.23c.57-.06,1.12-.18,1.68-.25-1.26.09-3.18-.17-3.9-.81a2.62,2.62,0,0,1-2.49-.39c.76-.26,1.16-.73,2.09-.65a48,48,0,0,0-5.56-.07,8.69,8.69,0,0,0,.46-1.15,12.85,12.85,0,0,0-3.37-.86Z"/><path class="cls-6" d="M56.25,66a.44.44,0,0,0-.24-.6,18.91,18.91,0,0,0,8.35,2.27c-1.32,2.17,4.5,1.58,6.22,1.64a.33.33,0,0,0-.1,0,3.08,3.08,0,0,0,2.7.22c-.45-.16-1-.57-1.4-.75.76-.16,1.92.22,2.52.06,1-.28,1.56-1.43,2.36-1.63s1.59.61,2.4.69a24.75,24.75,0,0,0,2.49-.24,6.24,6.24,0,0,1-4.4,1.64l.36-.06a4.5,4.5,0,0,1-.67,0l.31,0a4.05,4.05,0,0,0-2.56,1.38,1,1,0,0,0,.36.65A5.77,5.77,0,0,1,72.47,71c-.87,1-2.33,1-3.61,1a.37.37,0,0,0,.31.19c-2.89,0-6.33.63-8.72-.69-.37-.21-.49-1.07-1-1.44-.87-.57-2.11-.57-3-1.14-.47-.3-1.15-1.38-1.77-1.79.08-.09.74-.64.81-.68a5.75,5.75,0,0,0-.89-.48A4.31,4.31,0,0,0,56.25,66Z"/><path class="cls-5" d="M44.16,10.76a.3.3,0,0,0-.17-.41,13.13,13.13,0,0,0,5.79,1.58c-.91,1.5,3.13,1.09,4.32,1.14l-.07,0a2.13,2.13,0,0,0,1.87.15c-.31-.11-.69-.4-1-.52.53-.11,1.34.15,1.75,0,.73-.2,1.08-1,1.64-1.13s1.1.42,1.66.48,1.15-.16,1.73-.17a4.34,4.34,0,0,1-3.05,1.14l.25,0a2.86,2.86,0,0,1-.46,0l.21,0a2.81,2.81,0,0,0-1.78,1,.66.66,0,0,0,.25.45,4,4,0,0,1-1.71-.31,3,3,0,0,1-2.5.67.27.27,0,0,0,.22.13c-2,0-4.39.43-6.05-.48-.26-.14-.34-.75-.72-1-.6-.4-1.46-.4-2.08-.79-.33-.21-.8-1-1.23-1.24.05-.06.51-.44.56-.47a3.79,3.79,0,0,0-.62-.33A3.09,3.09,0,0,0,44.16,10.76Z"/><path class="cls-5" d="M50,21.37a.41.41,0,0,0-.23-.56A18,18,0,0,0,57.68,23c-1.25,2.05,4.27,1.5,5.9,1.55a.29.29,0,0,0-.09,0,2.93,2.93,0,0,0,2.56.21c-.42-.15-.95-.55-1.33-.71.73-.15,1.82.21,2.39.05,1-.27,1.48-1.36,2.24-1.54s1.51.58,2.27.65A22.64,22.64,0,0,0,74,23a5.93,5.93,0,0,1-4.17,1.56c.11,0,.22-.05.34-.06a4.14,4.14,0,0,1-.63,0l.29,0a3.84,3.84,0,0,0-2.43,1.31.89.89,0,0,0,.34.62,5.49,5.49,0,0,1-2.33-.42c-.82,1-2.21,1-3.42.92a.36.36,0,0,0,.3.18c-2.74,0-6,.59-8.26-.66-.35-.2-.46-1-1-1.36-.82-.54-2-.54-2.85-1.08-.45-.29-1.1-1.31-1.68-1.7.08-.08.7-.6.77-.64a5.54,5.54,0,0,0-.84-.46A4.09,4.09,0,0,0,50,21.37Z"/><path class="cls-5" d="M65.86,40a.41.41,0,0,0-.23-.57,17.93,17.93,0,0,0,7.91,2.16c-1.25,2.05,4.27,1.49,5.9,1.56l-.09,0a2.91,2.91,0,0,0,2.56.21c-.42-.15-.95-.54-1.33-.71.72-.16,1.82.21,2.39.05,1-.27,1.48-1.35,2.23-1.54s1.51.57,2.27.65,1.56-.21,2.36-.23a5.93,5.93,0,0,1-4.17,1.56,3.34,3.34,0,0,1,.34-.06,4.45,4.45,0,0,1-.63,0l.29,0a3.83,3.83,0,0,0-2.43,1.31.91.91,0,0,0,.34.62,5.44,5.44,0,0,1-2.33-.42c-.83,1-2.21,1-3.42.92a.37.37,0,0,0,.29.18c-2.74,0-6,.59-8.26-.66-.35-.19-.46-1-1-1.36-.82-.54-2-.54-2.85-1.08-.45-.28-1.09-1.31-1.68-1.7.08-.08.7-.6.77-.65a5.54,5.54,0,0,0-.84-.46A4.18,4.18,0,0,0,65.86,40Z"/><path class="cls-6" d="M92.06,54.58c.39.43.34,1.21.53,1.53a5.47,5.47,0,0,1-3.13-.6c-1.7.72-2.42,2.63-3.91,2-.44-.18-.84-1.52-1.46-1.83-.87-.43-1.85.27-2.71-.37.12-.23.21-.49.31-.73a8,8,0,0,1-2.6-.24c.16-.17.41-.91.68-1.15-1.25,0-3.1.11-3.15-1.32-1.11-.12-2.37.25-3.55.1,0-.11,0-.22,0-.33a7.06,7.06,0,0,1-2.76.31,10.42,10.42,0,0,0,.13-1.12,2.93,2.93,0,0,0-1.26-.15.42.42,0,0,0,.42.2c-.95,0-1.9,0-2.85,0a1.77,1.77,0,0,0,.63-.57c-2.3-.76-9.18,4-10.29-.55,1.36,0,2.61.52,4,.42a.67.67,0,0,0,.07-.39c.6.13,1.42-.19,2-.05-.61-1.76.44-2.39,2-3-.72.89,1.36,1,2.37.9a6.48,6.48,0,0,0-.14-1.09c1,.3,4,1.33,3.64,2.69.72-.07,1.54.13,2.27,0-.19.42,0,1.16-.14,1.53,1.2.34,2.52-.29,3.59-.38s1.13,1.34,2.19.11c.56,1,2.51.23,3.94.37-.11.14-.34.43-.53.65a7.84,7.84,0,0,0,1.92-.68A9.07,9.07,0,0,0,83,50.18c2.71-.22,3.4,1.69,5.5,2,1.44.24,3-.6,4.61-1.12-.12-.2-.19-.64-.36-.9a3.13,3.13,0,0,1,1.43-.67c-.05-.19-.25-.37-.14-.5a4,4,0,0,0,2.71,0,5.69,5.69,0,0,1-.05-1.2,3.36,3.36,0,0,0,.7.46c-.12.55-.29.82.62,1.22,1.19.52.78,1.76-.63,2.26-.76.26-1.18.59-1.23.92-.65-.06-1.35-.16-2.19-.21A1.85,1.85,0,0,1,92.06,54.58Z"/><path class="cls-6" d="M74.25,11.06c.09.34-.14,1.24,0,1.65-1.34,0-2.68,0-4,0,.13.2.24,1,.43,1.28a21.07,21.07,0,0,0-2.32.29c.07.18.23.37.27.48a4.45,4.45,0,0,0-2.22.68c.26.32.38,1.06.69,1.37-1.07.36-2.36.1-3.53.47,0,.23,0,.45,0,.68-1.52-.1-3,.59-4.45,0l.81-.17c-2.45,0-5.28-.53-7.64-.62a17,17,0,0,1-4.6-1.23,28.22,28.22,0,0,0,5.33.2,1.08,1.08,0,0,0,.07-.54c1,.53,2.28,1.19,3.25.55a6.2,6.2,0,0,0-.81-.85c1.78.36,3.52,1,5.3,1.34a2,2,0,0,0-.08-.63,4.18,4.18,0,0,0,2.29.56c-.05-.36.16-.86.1-1.26,1.53.12,2-1.14,1.92-2.5,1.19-.08.92.28,1.64-.74.21.16.19.27.48.4a12.67,12.67,0,0,0,.52-1.37c2,.35,3.46-.68,5.25-1.67a2.39,2.39,0,0,1-.31-.35,1.4,1.4,0,0,0,1.5,0c1.63-.84,1.86,1.79,2.49.62a.69.69,0,0,1,.3-.32C76.63,10.71,76,11.08,74.25,11.06Z"/><path class="cls-6" d="M47.65,31a6.38,6.38,0,0,0,.34-.63c-.47-.19-.77-.79-1.29-1,.19-.19.44-.53.6-.67a16.65,16.65,0,0,0-2.58-1.21c-.27-1.05-.1-.77-.93-1.55a18.1,18.1,0,0,0,3.24.93,12.25,12.25,0,0,0,3.1.87c.35,0,.77-.33,1.22-.28,1.7.2,9,3.52,9.56,1.9a21.31,21.31,0,0,0,2.57.16c0-.16-.12-.22-.31-.2a8.75,8.75,0,0,1,1,0s-.09-.61-.08-.63c1.23.36,2.79,1.25,3.54-.23,1.79-.11,3.39,1,5.19.52.75-.18,1.92-1.2,2.9-1.47a5.64,5.64,0,0,1,.06-.67,9.17,9.17,0,0,0,2.6-.25,4.72,4.72,0,0,1,1.53-2.36,7.15,7.15,0,0,1-.27,2.68,4.15,4.15,0,0,1-2.36-.13,4.18,4.18,0,0,1,1.09,2.09,9.17,9.17,0,0,1-3.21.51,1.11,1.11,0,0,0,.09.56,20.89,20.89,0,0,1-3.43.56c-.82,0-1.64,0-2.46,0a2.11,2.11,0,0,1,.36.19,23.92,23.92,0,0,0-4,.26,3.4,3.4,0,0,0,.73.57,7.85,7.85,0,0,0-4.3-.34c.31.37.64,1.17,1.18,1.52a5.51,5.51,0,0,0-2.59-.32A6.75,6.75,0,0,0,61.72,34a10.9,10.9,0,0,1,3.47.43c.76.17,4,1.28,2.78.24a11.64,11.64,0,0,0,1.95,0,.33.33,0,0,0-.29-.33c3.32.63,6.3.13,9.56.34A28.75,28.75,0,0,1,74.76,36c-1.71.31-5.13-.33-6.23.76-1.67,0-4.29.35-5.33-.67-1.69,0-4.06-.22-5.21-1.43.71-1.49-2.41-1.43-1.89-3.43-1.38-.07-2.79,0-4.18,0A24,24,0,0,1,47.65,31Z"/><path class="cls-7" d="M36,37.78a1.3,1.3,0,0,1-.33.05c1.9,1.87,6.25,2.23,8.81,1.66l-.28-.05a12.76,12.76,0,0,0,3.09-.18.57.57,0,0,0-.15-.08c.77.19,1.58.47,2.31.67a3.1,3.1,0,0,1,2.77-1.19c0,.08-.09.15-.14.24-.64,1-1.83.66-1.44,1.88-1,.07-2,0-3,.07.34.18.67.46,1,.62-3,.36-6.08-.6-9.24-.17l.27-.2a19,19,0,0,1-4.22-.7c.29-.21.44-.59.59-.74-1-.4-2-.68-3-1.18.21-.12.72-.69,1-.84-.51-.29-.92-.88-1.73-1l.9-.43A9,9,0,0,0,36,37.78Z"/><path class="cls-5" d="M53.68,54.48c-.42.16-.81.89-1.07,1.24.29.09.59.16.89.22a5.9,5.9,0,0,0-.84.5c1.6,1.7,10,3.37,12.26,2.65a.34.34,0,0,0,0-.51c1.26.43,5.86.18,6.82-.71a11.15,11.15,0,0,0-.92-1.31,25.23,25.23,0,0,1-6.11-.73c.15-.16.37-.36.56-.54-2.29.25-4.63.25-6.72.42a.35.35,0,0,1,.09-.42c-1-.4-1.1-.26-1.84-.85a1.91,1.91,0,0,1-2.8.3S54.22,54.28,53.68,54.48Z"/><path class="cls-9" d="M63.28,40.78s-.56-3.36,4.72-3C68,37.74,66.78,42.58,63.28,40.78Z"/><path class="cls-9" d="M27.75,77.13s-.56-3.36,4.72-3C32.47,74.09,31.25,78.93,27.75,77.13Z"/><path class="cls-9" d="M73.28,74.57s3.47-.51,3.09,4.6C76.37,79.17,71.39,77.94,73.28,74.57Z"/><path class="cls-9" d="M76.85,59s2.69-2.19,5.12,2.35C82,61.39,77.07,62.87,76.85,59Z"/><path class="cls-9" d="M54.9,77.32s3.5.29,1.9,5.17C56.79,82.49,52.24,80.17,54.9,77.32Z"/><path class="cls-9" d="M20.26,61.33s.56-3.36-4.72-3C15.54,58.29,16.76,63.13,20.26,61.33Z"/><path class="cls-9" d="M56.7,16.64s-.56,3.36,4.72,3C61.42,19.68,60.2,14.84,56.7,16.64Z"/><path class="cls-9" d="M17,40.14s-.56-3.36,4.72-3C21.73,37.1,20.51,41.94,17,40.14Z"/><path class="cls-9" d="M38.38,15.48s-.13,3.4-5.24,2.08C33.14,17.57,35.31,13.06,38.38,15.48Z"/><path class="cls-9" d="M45.62,51.23s2.27,2.57-2.38,4.94C43.24,56.17,41.68,51.46,45.62,51.23Z"/><path class="cls-9" d="M81.82,37.89s-.56,3.36,4.72,3C86.54,40.93,85.33,36.1,81.82,37.89Z"/><path class="cls-9" d="M64.35,69.33c2.52.32.44,3.77-1.13,4C62.38,71.11,62,70.49,64.35,69.33Z"/></g></g></svg>