<svg xmlns="http://www.w3.org/2000/svg" viewBox="0 0 90.18 154.73"><defs><style>.cls-1{fill:#633b16;}.cls-1,.cls-10,.cls-2,.cls-3,.cls-4,.cls-5,.cls-6,.cls-7,.cls-8,.cls-9{fill-rule:evenodd;}.cls-2{fill:#804b1f;}.cls-3{fill:#422810;}.cls-4{fill:#33b44a;}.cls-5{fill:#00ad4c;}.cls-6{fill:#39b54a;}.cls-7{fill:#43b649;}.cls-8{fill:#58b947;}.cls-9{fill:#80c342;}.cls-10{fill:#008b45;}</style></defs><title>tree1</title><g id="Layer_2" data-name="Layer 2"><g id="Treeline_Back" data-name="Treeline Back"><path class="cls-1" d="M45.36,30.86c0-5.25,0-11.14-1.65-15.35-3.35,3-3.43,14.34-3.95,19C38.48,45.85,38.33,57.31,38,68.77c-.61,19.78.85,42.35-4.07,61.41-1.26,4.88-4.57,9.22-7.55,12.62s-7.73,5-10.28,8.12c3.13,1.37,6.78.44,9.9-.54.92-.29,9.76-3.27,9.72-4.24.09,2.86,1.51,6.23,2.7,8.6,1.29-2.57,2.49-5.82,3.83-8.51-1.38,2.76,19,6.78,20.46,7.65-1.34-4.74-6.41-7-8.69-11A44.49,44.49,0,0,1,49.41,128c-4.7-30.4-3.22-62-4-92.77C45.36,33.88,45.36,32.4,45.36,30.86Z"/><path class="cls-2" d="M47.09,132.15A37,37,0,0,0,59.83,153a19.57,19.57,0,0,1,2.88.88c-1.34-4.74-6.41-7-8.69-11A44.49,44.49,0,0,1,49.41,128c-4.7-30.4-3.22-62-4-92.77,0-1.37,0-2.85,0-4.39,0-2.41,0-4.95-.16-7.4A292.54,292.54,0,0,0,47.09,132.15Z"/><path class="cls-3" d="M43.46,132.15c-8.32-38.77-.75-77.53-.06-116.3-3,3.39-3.13,14.15-3.64,18.62C38.48,45.85,38.33,57.31,38,68.77c-.61,19.78.85,42.35-4.07,61.41-1.26,4.88-4.57,9.22-7.55,12.62s-7.57,4.93-10.15,8c7-.21,14.57-7.74,20.71-11.06a14.89,14.89,0,0,0-1.44,6.77c.15-.13.23-.24.23-.34.09,2.86,1.51,6.23,2.7,8.6l.15-.32c-1.14-4.81-.43-10.71,1.26-15.65,0,3.36.58,6,2.24,7.83l.18-.37a.63.63,0,0,0,0,.53c.16.17.32.34.5.5-.18-.16-.33-.33-.5-.5.77,1.89,9.68,4.19,15.51,5.7A30.2,30.2,0,0,1,43.46,132.15Z"/><path class="cls-4" d="M27.18,0c-4.63,0-8.39,3.41-8.39,7.61A6.93,6.93,0,0,0,19.22,10l-.56,0A5.39,5.39,0,0,0,13,15.1a5.15,5.15,0,0,0,3.6,4.76c-.6,1-1.18,1.93-1.74,2.94a65.5,65.5,0,0,0,28.46,5.88A90,90,0,0,0,31.89,1.33,8.93,8.93,0,0,0,27.18,0Z"/><path class="cls-5" d="M27.18,0c-4.63,0-8.39,3.41-8.39,7.61A6.93,6.93,0,0,0,19.22,10l-.56,0A5.39,5.39,0,0,0,13,15.1a5.15,5.15,0,0,0,3.6,4.76c-.6,1-1.18,1.93-1.74,2.94a65.5,65.5,0,0,0,28.46,5.88c-.28,0-.51-2.83-.69-3.18a4.84,4.84,0,0,0-1.84-1.76c-1.62-1.05-3.56-1.55-5.17-2.62-3.39-2.27-5.49-6-.06-7.1-3.09-1.68-7.89-2.44-9-6.34S30.29,3,33.15,2.8C31.22,1.17,30,0,27.18,0Z"/><path class="cls-6" d="M37.56,3a28.14,28.14,0,0,0-3,1,8,8,0,0,0-2.65-2.62A90,90,0,0,1,43.35,28.68c2.22,0,4.45-.12,6.68-.32A72.8,72.8,0,0,0,37.56,3Z"/><path class="cls-7" d="M41.2,2.24A26.79,26.79,0,0,0,37.56,3,72.8,72.8,0,0,1,50,28.35a83.27,83.27,0,0,0,10.1-1.53A67.64,67.64,0,0,0,41.2,2.24Z"/><path class="cls-8" d="M76.4,16.23c0-4.2-3.76-7.61-8.39-7.61a9,9,0,0,0-4.43,1.16l-.11-.09a5.09,5.09,0,0,0,3.16-4.58A5.39,5.39,0,0,0,61,0a5.47,5.47,0,0,0-5.59,4.47A26.86,26.86,0,0,0,44.34,2a25.67,25.67,0,0,0-3.14.2A67.64,67.64,0,0,1,60.13,26.82a82.31,82.31,0,0,0,13.58-4.17c-.11-.2-.22-.38-.33-.57A7.33,7.33,0,0,0,76.4,16.23Z"/><path class="cls-9" d="M68,8.63a9,9,0,0,0-4.43,1.16l-.11-.09a5.09,5.09,0,0,0,3.16-4.58A5.39,5.39,0,0,0,61,0a5.47,5.47,0,0,0-5.59,4.47C55.47,4,48.59,2,47.55,1.85c-2.52-.43-6.49-.43-8.69,1,4.73-1.4,14.51,1.52,17.2,5.59-1.27-1.92,2-5,4-4.46,3.94,1,2.58,7,1,9.3,1.06-1.52,6.62-1.19,8.38-.94a7.56,7.56,0,0,1,6.48,5.33c.06.22.11.45.15.67a6.83,6.83,0,0,0,.35-2.12C76.4,12,72.64,8.63,68,8.63Z"/><path class="cls-10" d="M19.22,10l-.56,0A5.39,5.39,0,0,0,13,15.1a5.15,5.15,0,0,0,3.6,4.76c-.6,1-1.18,1.93-1.74,2.94,17.58,8.34,40.18,7.43,58.82-.15-.11-.2-.22-.38-.33-.57a7.8,7.8,0,0,0,2.1-2.4,12.75,12.75,0,0,1-4.59,1.88c-8.53,1.65-16.43,3.4-25.25,2.89-3.11-.18-23.36-2.71-20.78-8.41.65-1.43,3.61-2.35,4.93-2.53-2.71-1.13-7.95-2.55-7.92-6.14,0-5.17,7.62-5.95,11.35-5a8.8,8.8,0,0,0-6-2.33c-4.63,0-8.39,3.41-8.39,7.61A6.93,6.93,0,0,0,19.22,10Z"/><path class="cls-4" d="M15.27,91.37a4.89,4.89,0,0,0-1.81,3.74,4.61,4.61,0,0,0,.14,1.05,54.16,54.16,0,0,0,8.93-5.87,52.2,52.2,0,0,1-10.08-4.61A59.31,59.31,0,0,0,15.27,91.37Z"/><path class="cls-6" d="M17.23,99.93a52.6,52.6,0,0,0,9.52-5.09C27.9,94,29,93.16,30.07,92.28a57,57,0,0,1-7.54-2,54.16,54.16,0,0,1-8.93,5.87A5.3,5.3,0,0,0,17.23,99.93Z"/><path class="cls-7" d="M30.07,92.28C29,93.16,27.9,94,26.75,94.84a52.6,52.6,0,0,1-9.52,5.09,6.11,6.11,0,0,0,4-.09c.24.27.48.55.72.82a6.49,6.49,0,0,0-1,3.43,7.19,7.19,0,0,0,5.75,6.79c9.43-3.51,18.08-10.33,24.74-18.19A65.9,65.9,0,0,1,30.07,92.28Z"/><path class="cls-8" d="M73.15,91.63a59.7,59.7,0,0,0,3.41-7,78.42,78.42,0,0,1-25.09,8.06c-6.65,7.86-15.31,14.67-24.74,18.19a8.52,8.52,0,0,0,2,.25A8.18,8.18,0,0,0,34,109.26a26.38,26.38,0,0,0,19.69.35,8.13,8.13,0,0,0,5.62,2.19c4.29,0,7.77-3.15,7.77-7a6.45,6.45,0,0,0-.21-1.59,7.68,7.68,0,0,0,2.59.46c3.94,0,7.14-2.9,7.14-6.47A6.36,6.36,0,0,0,73.15,91.63Z"/><path class="cls-10" d="M62.82,108.4c-10-6.78-18,1-29.06-1.94-4-1-8-4.85-5-9.69-5,0-10-1-9-6.78a3.22,3.22,0,0,1,.62-.47,52.36,52.36,0,0,1-7.9-3.84,59.31,59.31,0,0,0,2.82,5.69,4.89,4.89,0,0,0-1.81,3.74,5.39,5.39,0,0,0,5.64,5.11,6.1,6.1,0,0,0,2.15-.39c.24.27.48.55.72.82a6.49,6.49,0,0,0-1,3.43c0,3.89,3.48,7,7.77,7A8.18,8.18,0,0,0,34,109.26a26.38,26.38,0,0,0,19.69.35,8.13,8.13,0,0,0,5.62,2.19c4.25,0,7.69-3.09,7.76-6.93A7.3,7.3,0,0,0,62.82,108.4Z"/><path class="cls-9" d="M70.83,94.84c5.44.58,3.58,5-.28,8.71a6.7,6.7,0,0,0,6-6.39,6.36,6.36,0,0,0-3.44-5.53,59.7,59.7,0,0,0,3.41-7,77,77,0,0,1-32.44,8.7C52.44,96.41,62.35,93.2,70.83,94.84Z"/><path class="cls-4" d="M62.82,108.4c0-.09.1-.16.14-.25l-.38.1Z"/><path class="cls-4" d="M90.18,49.72c0-5.43-4.48-9.91-10.27-10.57-.08-.34-.16-.69-.24-1a7,7,0,0,0,5.5-6.56c0-3.76-3.36-6.81-7.51-6.81a8.15,8.15,0,0,0-2.64.44c-.42-.86-.85-1.71-1.3-2.54-17.18,7-37.72,8.3-54.6,1.93a12.5,12.5,0,0,0-7.34-2.33C5.27,22.25,0,27,0,32.92a10.59,10.59,0,0,0,6.25,9.42,6.75,6.75,0,0,0-4,6,6.83,6.83,0,0,0,4.54,6.26c0,.71,0,1.43,0,2.15,0,.13,0,.26,0,.38,8,5.32,18.77,7.82,28,8.47,14.73,1.21,32.59.39,47-5.43,0-.08,0-.17,0-.25C86.66,58.6,90.18,54.54,90.18,49.72Z"/><path class="cls-4" d="M21.68,43.86l1.12.24A5.53,5.53,0,0,0,21.68,43.86Z"/><path class="cls-10" d="M14.78,54.75c-4-1-4-7.75,0-9.69,1.76,0,4.28-1.49,6.9-1.2-4.62-1-9.05-3-10.91-7.52-1.44-5.58,3.87-10.16,10-11.2-.54-.18-1.08-.36-1.61-.56a12.5,12.5,0,0,0-7.34-2.33C5.27,22.25,0,27,0,32.92a10.59,10.59,0,0,0,6.25,9.42,6.75,6.75,0,0,0-4,6,6.83,6.83,0,0,0,4.54,6.26c0,.71,0,1.43,0,2.15,0,.13,0,.26,0,.38,8,5.32,18.77,7.82,28,8.47,14.73,1.21,32.59.39,47-5.43,0-.08,0-.17,0-.25a11.15,11.15,0,0,0,8.09-8C71.57,67.73,36.33,63.57,14.78,54.75Z"/><path class="cls-9" d="M79.9,39.15c-.08-.34-.16-.69-.24-1a7,7,0,0,0,5.5-6.56c0-3.76-3.36-6.81-7.51-6.81a8.15,8.15,0,0,0-2.64.44c-.42-.86-.85-1.71-1.3-2.54a82.48,82.48,0,0,1-30.86,6c10.79,2.84,22.67-2.59,33.05-.08,4,1,1,9.69-5,12.6,6.7-.54,14.34,2.84,19.27,8.12C89.93,44.06,85.54,39.8,79.9,39.15Z"/><path class="cls-5" d="M26.75,27.59c-1.71-.77-4.43-2.28-6.23-2.41S16.36,26.45,15,27.33c-2.74,1.79-5.65,5.59-4.24,9,1.86,4.48,6.29,6.48,10.91,7.52a5.53,5.53,0,0,1,1.12.24l-1.12-.24c-2.62-.28-5.14,1.2-6.9,1.2-3.8,1.84-4.2,5.15-2.3,8.56,3.1,5.58,12,5.53,17.63,6.78,2.41.53,4.66,1,6.89,1.28,1.49.2,4.36.63,5.79.26-3.17-2.47-7.87-3.35-11.35-5.59C29.34,55,26.11,52.91,26,50.19c-.17-3,3.8-3.23,6-3.84-2.75-1.61-5.3-2.12-7.47-4.53A16.62,16.62,0,0,1,20.66,35c-.54-1.81-.86-4.42.5-5.95C22.66,27.38,24.66,27.73,26.75,27.59Z"/><path class="cls-6" d="M50.74,29.51a30.13,30.13,0,0,1-7-.64,71.72,71.72,0,0,1-.46,33c2.46.28,4.93.48,7.4.58A72.7,72.7,0,0,0,50.74,29.51Z"/><path class="cls-7" d="M61.57,28.5a108,108,0,0,1-10.83,1,72.7,72.7,0,0,1,0,33,83.16,83.16,0,0,0,15.41-.7A70.89,70.89,0,0,0,61.57,28.5Z"/><path class="cls-8" d="M90.18,49.72c0-.14,0-.28,0-.42C85.23,44,77.59,40.65,70.89,41.19c6-2.91,9-11.63,5-12.6-4.56-1.1-9.41-.67-14.33-.09a70.89,70.89,0,0,1,4.56,33.27c9.11-1.33,17.46-4.41,23.8-9.88A9.77,9.77,0,0,0,90.18,49.72Z"/><path class="cls-4" d="M40.83,67.59c.22-.53.42-1.06.62-1.59-2.26-.08-4.48-.2-6.63-.38-9.28-.65-20.07-3.15-28-8.47q0,2,.11,3.89A3.69,3.69,0,0,0,7,68a9.33,9.33,0,0,0-4,7.5c0,4.88,4,8.92,9.18,9.57.11.26.21.52.32.78A52.69,52.69,0,0,0,24,90.91,62.87,62.87,0,0,0,40.83,67.59Z"/><path class="cls-5" d="M24.11,65.14c-2.77-1.45-5.87-2.29-8.68-3.62-1.15-.54-8.65-3-8.65-4.38q0,2,.11,3.89A3.69,3.69,0,0,0,7,68a9.33,9.33,0,0,0-4,7.5c0,4.88,4,8.92,9.18,9.57.11.26.21.52.32.78a49.91,49.91,0,0,0,9.73,4.5c2.1.7,2.31,0,4-1.13a8.8,8.8,0,0,1,2.82-1.46C26.54,85.27,16,74.9,23.57,72.6c-1.87-1.13-5.42-2.58-5.28-5C18.44,64.86,21.91,64.46,24.11,65.14Z"/><path class="cls-6" d="M41.45,66c-.2.53-.4,1.07-.62,1.59A62.87,62.87,0,0,1,24,90.91a57.67,57.67,0,0,0,7.71,1.79A60.46,60.46,0,0,0,49.19,66.06C46.57,66.11,44,66.09,41.45,66Z"/><path class="cls-7" d="M49.19,66.06A60.46,60.46,0,0,1,31.75,92.71a67,67,0,0,0,21.35-.12,64.89,64.89,0,0,0,7.76-12.39,68.19,68.19,0,0,0,4.62-15.58A115.09,115.09,0,0,1,49.19,66.06Z"/><path class="cls-8" d="M86,69.44a4.75,4.75,0,0,0,.92-2.8,5.34,5.34,0,0,0-5.18-5.09c0-.46.07-.91.09-1.37a77.43,77.43,0,0,1-16.34,4.43,68.19,68.19,0,0,1-4.62,15.58,64.89,64.89,0,0,1-7.76,12.39,78.67,78.67,0,0,0,23.31-7.72c.36,0,.72.05,1.09.05,5.88,0,10.66-4.3,10.67-9.63A9,9,0,0,0,86,69.44Z"/><path class="cls-10" d="M12.77,71.47c1,0,2-1.94,3-1-3-2.91-5-5.81-4-9.69a2.08,2.08,0,0,1,.49-.63,40.59,40.59,0,0,1-5.49-3q0,2,.11,3.89A3.69,3.69,0,0,0,7,68a9.33,9.33,0,0,0-4,7.5c0,4.88,4,8.92,9.18,9.57.11.26.21.52.32.78,17.73,10.57,40.19,9.48,59,1.35C49.41,92.24,22.53,92.69,12.77,71.47Z"/><path class="cls-4" d="M75.9,76.32l1.79-1.74A6,6,0,0,0,75.9,76.32Z"/><path class="cls-9" d="M88.17,75.29A9,9,0,0,0,86,69.44a4.75,4.75,0,0,0,.92-2.8,5.34,5.34,0,0,0-5.18-5.09c0-.46.07-.91.09-1.37-13.68,5.53-30.45,6.55-44.72,5.6,14.65,6.43,30.62-1.65,45.8,1.81,1.65,0-2.15,4-5.22,7a5.42,5.42,0,0,1,5.22-.19,7.57,7.57,0,0,1,1.73,8.05A9.25,9.25,0,0,0,88.17,75.29Z"/></g></g></svg>