<svg xmlns="http://www.w3.org/2000/svg" viewBox="0 0 103.93 132.28"><defs><style>.cls-1{fill:#955523;}.cls-1,.cls-2,.cls-3,.cls-4,.cls-5,.cls-6,.cls-7,.cls-8,.cls-9{fill-rule:evenodd;}.cls-2{fill:#6c3e18;}.cls-3{fill:#c38031;}.cls-4{fill:#ed6923;}.cls-5{fill:#f58220;}.cls-6{fill:#ea5a24;}.cls-7{fill:#db4725;}.cls-8{fill:#cd3427;}.cls-9{fill:#ffdd96;}</style></defs><title>tree5</title><g id="Layer_2" data-name="Layer 2"><g id="Treeline_Front" data-name="Treeline Front"><polygon class="cls-1" points="45.06 92.44 43.29 101.99 43.29 112.31 43.54 130.28 50.16 132.28 58.66 130.28 55.13 112.31 55.64 103.52 55.64 87.09 46.06 87.47 45.06 92.44"/><polygon class="cls-2" points="52.43 116.07 54.94 130.28 58.66 130.28 55.13 112.31 55.64 103.52 55.64 87.09 53.37 87.18 51.6 105.99 52.43 116.07"/><polygon class="cls-3" points="45.37 101.58 47.58 87.41 46.06 87.47 45.06 92.44 43.29 101.99 43.29 112.31 43.54 130.28 46.12 130.28 47.03 114.18 45.37 101.58"/><path class="cls-4" d="M102.53,54.51c1.48-.52,1.92-1.83.66-2.37s-.58-.85-.58-1.89-2.06.69-2.56-.51.72-.88.82-2S100.78,46,99,46.29h0a.86.86,0,0,1,.49-.59c1.12-.59,2.44-1.42.43-2.34-1.15-.53-.87-1.28.61-1.79s1.92-1.83.66-2.37-.58-.85-.58-1.89-2.05.69-2.55-.52.72-.88.82-2-.09-1.71-1.83-1.4-2.11.24-1.62-.62.18-1.74-.51-1.34a3.16,3.16,0,0,0-.7-.42c-1.15-.53-.87-1.28.62-1.79s1.91-1.83.66-2.37-.58-.85-.58-1.89-2.05.69-2.56-.51.72-.88.82-2-.09-1.71-1.83-1.4-2.11.24-1.62-.62.12-2-.74-1.18-1.72-.49-2.6.06c-.55.35-1.67.18-2.34.33a.64.64,0,0,1,0-.56c.5-1.21,1.15-.15,2.05-.93s1.16-1.3-.33-2.24-1.69-1.23-.73-1.53S86.54,13,85.36,13s-.89-1.5-1.93-1.69S81.25,9,80.58,10.19l0,0c-.59-1.4-2.24-.63-2.26-2.54,0-2.12-2,.87-2.12-1.59s-1.58.41-2.85-1.23c-.87-1.12-1.12-.56-1.75-.37a2.06,2.06,0,0,1-.1-.66c0-2.12-2,.87-2.13-1.6S67.76,2.66,66.48,1s-1.23.32-2.95-.56-2,1.88-2.62.65c-.42-.77-1-.23-1.67.34-.77-.62-1.52-1.51-2-.61-.66,1.23-.9-1.54-2.62-.65S53-.58,52,.42c-1-1-1.08.57-2.66-.24-1.42-.73-1.83,1-2.3,1a2.77,2.77,0,0,0-.33-.33c-.36-.64-.86-.33-1.4.13A1.6,1.6,0,0,1,44.18.73c-1.72-.89-2,1.88-2.62.65s-1.81.89-2.85,1.08c-.66.12-.79.77-1.1,1.23a1.59,1.59,0,0,1-1.12-.21c-1.72-.89-2,1.88-2.62.65S32.06,5,31,5.21,30.27,6.9,29.09,6.9,28.44,8,29.4,8.25s.76.59-.73,1.53l0,0c-1-1-1.09.56-2.68-.26s-2,1.88-2.62.65-1.82.89-2.85,1.08S19.74,13,18.56,13s-.66,1.05.31,1.34.76.59-.73,1.53-1.23,1.42-.43,2.14a1,1,0,0,1-.86.49c-.73,0-.8.4-.53.78-.47.17-.94.34-1.4-.08-.86-.79-1.23.32-.74,1.18s.13.93-1.62.62-1.93.24-1.83,1.4,1.32.84.82,2S9,23.89,9,24.92s.67,1.34-.58,1.89-.82,1.86.66,2.37,1.76,1.26.61,1.79a3.18,3.18,0,0,0-.7.42c-.69-.4-.95.57-.51,1.34s.13.93-1.62.62-1.93.24-1.83,1.4,1.32.84.82,2-2.55-.51-2.55.52S4,38.65,2.73,39.2s-.82,1.86.66,2.37,1.76,1.26.61,1.79c-2,.92-.68,1.76.43,2.34a.86.86,0,0,1,.49.59h0C3.14,46,3,46.53,3.05,47.69s1.32.84.82,2-2.55-.52-2.56.51S2,51.59.74,52.13-.08,54,1.4,54.51,3.16,55.77,2,56.3c-2,.92-.68,1.76.43,2.34.76.4.45,1,.57,1.58-.22,1.39,1.2,2,.07,1.63-2.67-.81-.33,1.61-.33,1.61s-.33.16-1,1.29,1,1.29.5,2.42-1,2.58,1.16,2.09c1.24-.28,1.5.48.67,1.77s-.33,2.58,1,2.26,1,.32,1.66,1.13c.19.23.37.18.55,0-1.48,1.44.51,1.12-.16,2.89s2.2,1.61,1,2.42c-.75.52,0,1,.64,1.61-.22.16-.32.33-.1.56.73.75,1.44.52.93,1.75s.73,1.89,2.17,1.27,2.18-.26,1.72.89c-.79,2,.74,1.73,2,1.41.47.48,1.32,1,1.51,1.54.33,1,1.84.48,2,1.61s1.17.48,1.33-.48.5-.81,1.67.48,1.67,1,2.34,0a1.36,1.36,0,0,0,.14-1.22A1.78,1.78,0,0,0,25,89c.92-.42,1-.06.53,1.6s.12,1.88,1.33,1.86,1-1,1.94-.74a.91.91,0,0,0,.64.77c0,.76-.82,1.75,0,1.8,1.07.07,1.42-.56,1.91.69s1.87.91,2.49-.49a2.72,2.72,0,0,1,.69-1c.16.48-.44.87,0,1.65.55,1,1,1.41,2.32.26s1.66-1.28,1.71-.3.84,1.6,1.19.81c.61-.09.92-.25,1.29.71.48,1.25,1.87.91,2.49-.49a3.68,3.68,0,0,1,.45-.75,2.3,2.3,0,0,0,.2.39c.29.45.65,0,1.07-.43a2.1,2.1,0,0,1,.17.33c.48,1.17,1,1.23,1.49.88a1.16,1.16,0,0,0,.14.52c.55,1,1,1.41,2.32.26.28-.24.5-.43.7-.58.32.12.69.16,1,.27v0c0,.73.55,1.32.94,1.13.39.19.9-.41.94-1.13v0c.32-.11.69-.15,1-.27.2.15.42.34.7.58,1.31,1.15,1.77.78,2.32-.26a1.13,1.13,0,0,0,.14-.52c.49.35,1,.29,1.49-.88a2.05,2.05,0,0,1,.17-.33c.42.44.78.88,1.07.43a2.3,2.3,0,0,0,.2-.39,3.67,3.67,0,0,1,.44.75c.63,1.4,2,1.73,2.49.49.38-1,.68-.8,1.3-.71.35.79,1.14.09,1.19-.81s.4-.86,1.71.3,1.77.78,2.32-.26c.42-.78-.17-1.18,0-1.65a2.74,2.74,0,0,1,.69,1c.63,1.4,2,1.73,2.49.49s.84-.61,1.91-.69c.77-.05,0-1,0-1.8a.91.91,0,0,0,.64-.77c.94-.3.82.72,1.94.74s1.76-.2,1.33-1.86a7.8,7.8,0,0,1-.25-1.19,2,2,0,0,0,1.23.22,1.1,1.1,0,0,0,.22.74c.67,1,1.17,1.29,2.34,0s1.5-1.45,1.67-.48,1.17,1.61,1.33.48,1.67-.65,2-1.61,2.67-1.77,1.5-2.58c-.91-.63.6-.67,1-1.49l.23,0c1.42-.21.81-1.13,1.12-1.65a1.58,1.58,0,0,1,.12.42c.17,1,1.17,1.61,1.33.48s1.67-.64,2-1.61,2.67-1.77,1.5-2.58,1.7-.64,1-2.42,1.32-1.45-.16-2.89c.18.17.36.22.55,0,.67-.81.33-1.45,1.67-1.13s1.83-1,1-2.26-.57-2.05.67-1.77c2.17.48,1.66-1,1.17-2.09s1.17-1.29.5-2.42-1-1.29-1-1.29,2.34-2.42-.33-1.61c-1.13.34.29-.24.07-1.63.12-.53-.19-1.18.57-1.58,1.12-.59,2.44-1.42.43-2.34C100.76,55.77,101,55,102.53,54.51Z"/><path class="cls-5" d="M43.63,3a10.28,10.28,0,0,1,3.86-.88C47,1.87,46.5,1.08,46.1.78a2.63,2.63,0,0,0,.44-.16c-.35-.38-.79-.09-1.27.31A1.6,1.6,0,0,1,44.18.73c-1.72-.89-2,1.88-2.62.65s-1.81.89-2.85,1.08c-.66.12-.79.77-1.1,1.23a1.59,1.59,0,0,1-1.12-.21c-1.72-.89-2,1.88-2.62.65S32.06,5,31,5.21,30.27,6.9,29.09,6.9,28.44,8,29.4,8.25s.76.59-.73,1.53l0,0c-1-1-1.09.56-2.68-.26s-2,1.88-2.62.65-1.82.89-2.85,1.08S19.74,13,18.56,13s-.66,1.05.31,1.34.76.59-.73,1.53-1.23,1.42-.43,2.14a1,1,0,0,1-.86.49c-.73,0-.8.4-.53.78-.47.17-.94.34-1.4-.08-.86-.79-1.23.32-.74,1.18s.13.93-1.62.62-1.93.24-1.83,1.4,1.32.84.82,2S9,23.89,9,24.92s.67,1.34-.58,1.89-.82,1.86.66,2.37,1.76,1.26.61,1.79a3.18,3.18,0,0,0-.7.42c-.69-.4-.95.57-.51,1.34s.13.93-1.62.62-1.93.24-1.83,1.4,1.32.84.82,2-2.55-.51-2.55.52S4,38.65,2.73,39.2s-.82,1.86.66,2.37,1.76,1.26.61,1.79c-2,.92-.68,1.76.43,2.34a.86.86,0,0,1,.49.59h0C3.14,46,3,46.53,3.05,47.69s1.32.84.82,2-2.55-.52-2.56.51S2,51.59.74,52.13-.08,54,1.4,54.51,3.16,55.77,2,56.3c-2,.92-.68,1.76.43,2.34.76.4.45,1,.57,1.58-.22,1.39,1.2,2,.07,1.63l-.06,0H3c-2.51-.72-.24,1.64-.24,1.64s-.33.16-1,1.29,1,1.29.5,2.42-1,2.58,1.16,2.09c1.24-.28,1.5.48.67,1.77s-.33,2.58,1,2.26,1,.32,1.66,1.13c.19.23.37.18.55,0a3.1,3.1,0,0,0-.34.38l0,0a1.13,1.13,0,0,0-.15.28l0,.05a.51.51,0,0,0,0,.21v0a.57.57,0,0,0,.08.18l.06.09,0,.07a2.59,2.59,0,0,1,.2.31h0a1.28,1.28,0,0,1,.11.29v0a1.25,1.25,0,0,1,0,.37,2.16,2.16,0,0,1-.14.55c-.67,1.77,2.2,1.61,1,2.42-.75.52,0,1,.64,1.61-.22.16-.32.33-.1.56.73.75,1.44.52.93,1.75s.73,1.89,2.17,1.27,2.18-.26,1.72.89c-.68,1.72.36,1.76,1.44,1.53a2.91,2.91,0,0,1-1.2-3.12c-.54-.06-1.2-.51-1.54-.56a2.92,2.92,0,0,1,1.09-.47c-2.47-3,3.79-1.18,4.58-1.16.54,2.77,5,1.51,6.67,1.41.4,0,.3.82,1,.75s1.26-.82,1.88-1a22.78,22.78,0,0,1,5.16-.91c.45-.52,1-1,1.52-1.54a29.7,29.7,0,0,1-4.52-.22,2.88,2.88,0,0,0,.71-.29c-4-.24-8.15.38-11.56-1.66-.86-.51-.06-1.52-.71-1.91-1.18-.71-3,.19-4.44-.2a6.82,6.82,0,0,1,.45-1.09c-1.25.23-2.34-.06-2.21-1.33-3.33-.52-1.39-3,.8-3.52-1.53.23-3.67.37-4.88-.4a23.65,23.65,0,0,0,1.89-1.52c-.54-.17-1.08-.78-1.53-.94a5.7,5.7,0,0,1,4.11-1.29c-.94-.24-.91-.82-1.39-1.3.66-.26,1.16-.86,2-.85a4.69,4.69,0,0,1-3.47-1.1A12.79,12.79,0,0,1,13,61.31c-4.27-1.52.82-3.31,2.47-3.56-.62-.28-.84-.8-1.13-1,.37,0,.76,0,1.14,0a3.16,3.16,0,0,1-2.69-1.24,9.29,9.29,0,0,1,4.36-1.22,5.54,5.54,0,0,1-1.91-.75,5.9,5.9,0,0,1,5.08-1.67,1.42,1.42,0,0,0-.3-.2,16.69,16.69,0,0,0,3.56-.31c-.41-.06-1,0-1.37-.07a7.49,7.49,0,0,0,.06-1c-1.28.13-2.7.37-3.64-.4.53-.51.92-1.16,1.67-1.45-2.89.43-6.61,1.49-9.56.89.31-.12.88-.69,1.31-.89-.33-.29-.44-.91-.67-1.15.51-.17,1-.72,1.65-.8-.29-.07-1.07-.57-1.41-.66a8.46,8.46,0,0,0,1.17-.54c-.15-.18-.41-.82-.53-.94a11.17,11.17,0,0,0,2.3-.21c-.5-.43-.78-1.34-1.22-1.79a36.57,36.57,0,0,0,3.88-2.19c-1.6-2.2-2.24-2.66.82-4.27-1.87-.29-1.57-1.6-1.07-2.74,1.41-.09,3.2.34,4.51-.24.62-.27.71-1.37,1.5-1.59,1.89-.52,2.38,1,4.2,1.61a6.7,6.7,0,0,1-1.41-.8c2.83-1,5.76-1.51,8.66-2.38-1.3.14-2.57-.1-3.06-1.26.37-.22.94-1.15,1.07-1.25-1.57-.17-4.26-.36-3.4-2.38a5,5,0,0,1-3-.44c.56-.26,1.29-1,1.92-1.25-.61-.23-.86-.91-1.21-1.14a9.38,9.38,0,0,1,2.44-1.5,5.41,5.41,0,0,1-3.4-.78c.53-.31.87-1.14,1.39-1.46-.23-.22-.46-.82-.65-1,.45,0,1-.49,1.63-.47-.12-.7.35-1,.42-1.49a17.31,17.31,0,0,1,1.85,1.36c-.83-3.48,5-1.09,6.62-.88-.29-1.31-.46-2.65,1.28-2.83-.95-.1-1.19-.76-1.76-1.13,1.33-.85,3.6-.67,5.23-.68-.69-.83-2.08-.79-3.09-1.44.22,0,.71-.18,1.05-.22a5.74,5.74,0,0,1-1.86-1.44c.46,0,.92-.25,1.39-.27a1.67,1.67,0,0,1-1.79-1.51,15,15,0,0,1,5.26-.43c-.5-.22-.83-.69-1.27-.95a6.77,6.77,0,0,1,3.09-1.06C44.2,3.63,43.94,3.23,43.63,3Z"/><path class="cls-6" d="M102.53,54.51c1.48-.52,1.92-1.83.66-2.37s-.58-.85-.58-1.89-2.06.69-2.56-.51.72-.88.82-2S100.78,46,99,46.29h0a.86.86,0,0,1,.49-.59c1.12-.59,2.44-1.42.43-2.34-1.15-.53-.87-1.28.61-1.79s1.92-1.83.66-2.37-.58-.85-.58-1.89-2.05.69-2.55-.52.72-.88.82-2-.09-1.71-1.83-1.4-2.11.24-1.62-.62.18-1.74-.51-1.34a3.16,3.16,0,0,0-.7-.42c-1.15-.53-.87-1.28.62-1.79s1.91-1.83.66-2.37-.58-.85-.58-1.89-2.05.69-2.56-.51.72-.88.82-2-.09-1.71-1.83-1.4-2.11.24-1.62-.62.12-2-.74-1.18-1.72-.49-2.6.06c-.55.35-1.67.18-2.34.33a.64.64,0,0,1,0-.56c.5-1.21,1.15-.15,2.05-.93s1.16-1.3-.33-2.24-1.69-1.23-.73-1.53S86.54,13,85.36,13s-.89-1.5-1.93-1.69S81.25,9,80.58,10.19l0,0c-.59-1.4-2.24-.63-2.26-2.54,0-2.12-2,.87-2.12-1.59s-1.58.41-2.85-1.23c-.87-1.12-1.12-.56-1.75-.37a2.06,2.06,0,0,1-.1-.66c0-2.12-2,.87-2.13-1.6S67.76,2.66,66.48,1s-1.23.32-2.95-.56a1.2,1.2,0,0,0-1-.11.74.74,0,0,1,.08.09c-.51,1.06-.52,1.29.45,2.08a15.94,15.94,0,0,1-.75,1.89c-1.16.1-2.31,0-3.48.09-.19,2-2.42,1.18-4,1a15.09,15.09,0,0,0-2.73-.3c-.74.08-1.47.74-2.42.6a1.76,1.76,0,0,1,.37.49c-.1.37-.49.41-.45.83.33,0,.91.27,1.35.27-.68,3.64,6.41-.2,7.37,2.64,1.18-.1,2.32-.49,3.48-.49.06.26,0,.48.06.74a5.09,5.09,0,0,0,3,.06c.1.24.06.5.14.74a20.29,20.29,0,0,1,2.31.89.36.36,0,0,0-.11.44,10.61,10.61,0,0,0,3.14-.12.27.27,0,0,0-.1.38,18,18,0,0,1,1.89-.08c-.29,1-1.05,1-1.43,1.52-.15.22-1.38.45-1.7.76-.1.09.21.7.07.8-1.83,1.36-3.29,1.51-5.8,2.49,0,.28-.13.74-.1,1a12.83,12.83,0,0,1-2.69.29,7.06,7.06,0,0,0,.22,1c-1.46.11-3,0-4.41.07.8,2.31,2.69.93,4.44,1.36,1,.25,2.6,1.92,3.64,2.06a32.67,32.67,0,0,0,3.87,0c3,0,3.54,1.19,6.3,2-.49.48-.69,1.66-1,2.08.52,0,1.29.57,1.82.6-1.07,3.14-2.36,2.61-5.48,3.72-1.49.53-4.16,2.2-6.1,3,.39.26.64.74,1,1-2.36,2.24-6.48,2.29-9.56,2.14.92,1.51-3.91,1-4.86,1.35-1.84.67-3.34,3.3,0,2.73-3.09,3.06-.9,2.53,2.22,4.05.57.28.76,1.21,1.62,1.51,1.61.55,3.29.18,4.95.42.59,2.33,4.08.06,5.65.18s2.83,1.28,5,1.42a1.79,1.79,0,0,0,.48,2.38c-.69.31-1.22,1.15-1.82,1.53.27.22.47.67.7.88a6.64,6.64,0,0,0-2.11,2.22.52.52,0,0,1,.37.57c-1.74.61-3.69.64-5.34,1.45C63.51,62.11,59.4,62,57.4,62c-1.14,3.33-5.81-1-7.52-.09-3,1.68,1.62,3.08,2.21,3.56a5.41,5.41,0,0,0-.81.51c.58,1.5,2.42,1.67,4,1.73-2.12,2.53-2.31,2.72-5.87,2.38.1.12.29.11.43.26a13.76,13.76,0,0,0-2.9,2.33c-.38.31.22.78-.12,1.12-.92.9-3.19,1.1-4.39,1.67a10.06,10.06,0,0,0,1,2.91c-1.37.94-2.89,1.64-4.32,2.48.28.54.17,1.34.72,1.88-1.13,1.14-3.58,1.54-3,3.37a68.65,68.65,0,0,0-7.21,1.71c-.94.27-3,.58-3.86,1.2.15.15.11.57-.08,1.34a1.94,1.94,0,0,1,.14.38l-.27.22c-.31,1.42.24,1.63,1.38,1.61s1-1,1.94-.74a.91.91,0,0,0,.64.77c0,.76-.82,1.75,0,1.8,1.07.07,1.42-.56,1.91.69s1.87.91,2.49-.49a2.72,2.72,0,0,1,.69-1c.16.48-.44.87,0,1.65.55,1,1,1.41,2.32.26s1.66-1.28,1.71-.3.84,1.6,1.19.81c.61-.09.92-.25,1.29.71.48,1.25,1.87.91,2.49-.49a3.68,3.68,0,0,1,.45-.75,2.3,2.3,0,0,0,.2.39c.29.45.65,0,1.07-.43a2.1,2.1,0,0,1,.17.33c.48,1.17,1,1.23,1.49.88a1.16,1.16,0,0,0,.14.52c.55,1,1,1.41,2.32.26.28-.24.5-.43.7-.58.32.12.69.16,1,.27v0c0,.73.55,1.32.94,1.13.39.19.9-.41.94-1.13v0c.32-.11.69-.15,1-.27.2.15.42.34.7.58,1.31,1.15,1.77.78,2.32-.26a1.13,1.13,0,0,0,.14-.52c.49.35,1,.29,1.49-.88a2.05,2.05,0,0,1,.17-.33c.42.44.78.88,1.07.43a2.3,2.3,0,0,0,.2-.39,3.67,3.67,0,0,1,.44.75c.63,1.4,2,1.73,2.49.49.38-1,.68-.8,1.3-.71.35.79,1.14.09,1.19-.81s.4-.86,1.71.3,1.77.78,2.32-.26c.42-.78-.17-1.18,0-1.65a2.74,2.74,0,0,1,.69,1c.63,1.4,2,1.73,2.49.49s.84-.61,1.91-.69c.77-.05,0-1,0-1.8a.91.91,0,0,0,.64-.77c.94-.3.82.72,1.94.74s1.76-.2,1.33-1.86a7.8,7.8,0,0,1-.25-1.19,2,2,0,0,0,1.23.22,1.1,1.1,0,0,0,.22.74c.67,1,1.17,1.29,2.34,0s1.5-1.45,1.67-.48,1.17,1.61,1.33.48,1.67-.65,2-1.61,2.67-1.77,1.5-2.58c-.91-.63.6-.67,1-1.49l.23,0c1.42-.21.81-1.13,1.12-1.65a1.58,1.58,0,0,1,.12.42c.17,1,1.17,1.61,1.33.48s1.67-.64,2-1.61,2.67-1.77,1.5-2.58,1.7-.64,1-2.42,1.32-1.45-.16-2.89c.18.17.36.22.55,0,.67-.81.33-1.45,1.67-1.13s1.83-1,1-2.26-.57-2.05.67-1.77c2.17.48,1.66-1,1.17-2.09s1.17-1.29.5-2.42-1-1.29-1-1.29,2.34-2.42-.33-1.61c-1.13.34.29-.24.07-1.63.12-.53-.19-1.18.57-1.58,1.12-.59,2.44-1.42.43-2.34C100.76,55.77,101,55,102.53,54.51Z"/><path class="cls-7" d="M102.53,54.51c1.48-.52,1.92-1.83.66-2.37s-.58-.85-.58-1.89-2.06.69-2.56-.51.72-.88.82-2S100.78,46,99,46.29h0a.86.86,0,0,1,.49-.59c1.12-.59,2.44-1.42.43-2.34-1.15-.53-.87-1.28.61-1.79s1.92-1.83.66-2.37-.58-.85-.58-1.89-2.05.69-2.55-.52.72-.88.82-2-.09-1.71-1.83-1.4-2.11.24-1.62-.62.18-1.74-.51-1.34a3.16,3.16,0,0,0-.7-.42c-1.15-.53-.87-1.28.62-1.79s1.91-1.83.66-2.37-.58-.85-.58-1.89-2.05.69-2.56-.51.72-.88.82-2-.09-1.71-1.83-1.4-2.11.24-1.62-.62.12-2-.74-1.18-1.72-.49-2.6.06c-.55.35-1.67.18-2.34.33a.64.64,0,0,1,0-.56c.5-1.21,1.15-.15,2.05-.93s1.16-1.3-.33-2.24-1.69-1.23-.73-1.53S86.54,13,85.36,13s-.89-1.5-1.93-1.69S81.25,9,80.58,10.19l0,0c-.59-1.4-2.24-.63-2.26-2.54,0-2.12-2,.87-2.12-1.59s-1.58.41-2.85-1.23c-.87-1.12-1.12-.56-1.75-.37a2.06,2.06,0,0,1-.1-.66c0-2.12-2,.87-2.13-1.6,0-.08,0-.14,0-.21a4.15,4.15,0,0,1-2.11.63c.38,1.41.64,3.19,2.57,3.17a7.3,7.3,0,0,1,.81,1.28,9.52,9.52,0,0,1-1.5,0c-.29.07-.72.16-.18,0h.18l.19-.05c-1-.38-2.13-.66-3.21-.95C66,7.52,73,9.8,74.47,9.88a10.76,10.76,0,0,0-1.51.76,8.83,8.83,0,0,0,2.64.57,4.48,4.48,0,0,0-.71.48c1,1.34,3,.68,3.89,2.09a13.5,13.5,0,0,0-3.62.89c.36.09,1.15.5,1.6.59a12.31,12.31,0,0,0-1.76.58,8.49,8.49,0,0,0,2.33,1,8.3,8.3,0,0,0,3.36,2.92c-2.06-.18-3.78.79-5.76.84a15.14,15.14,0,0,1,2.33.74c-.34.17-.68.35-1,.54,1,.85,2.92.78,4.38,1.13a7.75,7.75,0,0,0-.75.75c1.92,1,4.71,1.63,6,3.43-.66,0-1.37.53-1.87.59.52.4,1,1.27,1.65,1.58-1.51,0-2.5.84-4,1,.12.26.22.43.35.69a23.84,23.84,0,0,1-3.64,1.68c.25,1.29-1.51,1.46-2.55,2.35.59.77.47,1.2,1.83,1.34a6.24,6.24,0,0,0-2.4.89,6.67,6.67,0,0,0,4.13.27l-.09,0c.09,0,.72-.21.54-.06l-.46.09c2.09.79,6.93,1.05,9.28,1a12.18,12.18,0,0,1-.69,1.82c-1.46.06-2.91,0-4.37.06a6.76,6.76,0,0,0,.09.75c-2.15.8-4.17.62-6.24,1.17-2.4.64-3.85,1.71-6.51,1.49a.39.39,0,0,0,.09-.47,10.79,10.79,0,0,0-4.11.74l.78,0a9.55,9.55,0,0,1,1.83,0,12.36,12.36,0,0,1-1.83,0,3.22,3.22,0,0,0-1.61.61c2.51,1.2,5.73.08,8.46.25l-.58.28c1.59.7,3.37.41,5.06.56-.18.41-.19,1.06-.3,1.33a10.72,10.72,0,0,0,4.16-.54,8.15,8.15,0,0,0-2,1.3,18.3,18.3,0,0,0,2.08.27c-5.88,3.88,3.86,4,5.41,7.22-.51.16-1,.76-1.44.93.46.29.74,1,1.32,1.24a9.43,9.43,0,0,1-1.33.75,3.78,3.78,0,0,0,1.79,2c-.88.54-1.76,1.05-2.66,1.55a10.34,10.34,0,0,0,.93.7,23.92,23.92,0,0,0-3.65,1.16c-2.8-1.28-9.58-1.86-12.73-.21a25.92,25.92,0,0,0,5.22.52c-.9.18-2,.32-3,.58,1.56,1.1,3.44.7,4.89,2A60.14,60.14,0,0,0,70,67.91l.3.2-3.21,0a16.25,16.25,0,0,1,1.86.33,17.14,17.14,0,0,0-4.73,1.31c.54.2,1.09.58,1.66.75a11.6,11.6,0,0,0-4.3.56c.51.27,1,.88,1.64,1.17a13.58,13.58,0,0,1-5.46,1,7.39,7.39,0,0,1,1.16.76c-.86.07-1.37.85-1.95,1.07.61,1.53,6.41,1.64,8,1.65-.36.19-.85.8-1.29,1.05a5.1,5.1,0,0,0,3.27.78c-.82-.09-1.21.42-1.82.61a1.5,1.5,0,0,1,.08.76c-.59.18-1.24.86-1.74,1a11.11,11.11,0,0,0,1.95.73c.09,3.39-2.76,1.19-4.16,1a5.88,5.88,0,0,0-4.8,1.3,11.38,11.38,0,0,0,1.59,2.14,23.7,23.7,0,0,1-3.78-.66c.57.48.85,1.24,1.35,1.72a10,10,0,0,0-3.49.3c.58.66.59,1.25,1.57,1.63-2-.08-3.88.31-5.49-1.05a12.37,12.37,0,0,0-2,1.6,11,11,0,0,1,.2-1.33c-1.7,1.9-.1,3.11-.68,5C44.94,96,41.19,96,38.55,95.48c.2.72.83,1.15,1.13.47.61-.09.92-.25,1.29.71.48,1.25,1.87.91,2.49-.49a3.68,3.68,0,0,1,.45-.75,2.3,2.3,0,0,0,.2.39c.29.45.65,0,1.07-.43a2.1,2.1,0,0,1,.17.33c.48,1.17,1,1.23,1.49.88a1.16,1.16,0,0,0,.14.52c.55,1,1,1.41,2.32.26.28-.24.5-.43.7-.58.32.12.69.16,1,.27v0c0,.73.55,1.32.94,1.13.39.19.9-.41.94-1.13v0c.32-.11.69-.15,1-.27.2.15.42.34.7.58,1.31,1.15,1.77.78,2.32-.26a1.13,1.13,0,0,0,.14-.52c.49.35,1,.29,1.49-.88a2.05,2.05,0,0,1,.17-.33c.42.44.78.88,1.07.43a2.3,2.3,0,0,0,.2-.39,3.67,3.67,0,0,1,.44.75c.63,1.4,2,1.73,2.49.49.38-1,.68-.8,1.3-.71.35.79,1.14.09,1.19-.81s.4-.86,1.71.3,1.77.78,2.32-.26c.42-.78-.17-1.18,0-1.65a2.74,2.74,0,0,1,.69,1c.63,1.4,2,1.73,2.49.49s.84-.61,1.91-.69c.77-.05,0-1,0-1.8a.91.91,0,0,0,.64-.77c.94-.3.82.72,1.94.74s1.76-.2,1.33-1.86a7.8,7.8,0,0,1-.25-1.19,2,2,0,0,0,1.23.22,1.1,1.1,0,0,0,.22.74c.67,1,1.17,1.29,2.34,0s1.5-1.45,1.67-.48,1.17,1.61,1.33.48,1.67-.65,2-1.61,2.67-1.77,1.5-2.58c-.91-.63.6-.67,1-1.49l.23,0c1.42-.21.81-1.13,1.12-1.65a1.58,1.58,0,0,1,.12.42c.17,1,1.17,1.61,1.33.48s1.67-.64,2-1.61,2.67-1.77,1.5-2.58,1.7-.64,1-2.42,1.32-1.45-.16-2.89c.18.17.36.22.55,0,.67-.81.33-1.45,1.67-1.13s1.83-1,1-2.26-.57-2.05.67-1.77c2.17.48,1.66-1,1.17-2.09s1.17-1.29.5-2.42-1-1.29-1-1.29,2.34-2.42-.33-1.61c-1.13.34.29-.24.07-1.63.12-.53-.19-1.18.57-1.58,1.12-.59,2.44-1.42.43-2.34C100.76,55.77,101,55,102.53,54.51Z"/><path class="cls-8" d="M102.53,54.51c1.48-.52,1.92-1.83.66-2.37s-.58-.85-.58-1.89-2.06.69-2.56-.51.72-.88.82-2S100.78,46,99,46.29h0a.86.86,0,0,1,.49-.59c1.12-.59,2.44-1.42.43-2.34-1.15-.53-.87-1.28.61-1.79s1.92-1.83.66-2.37-.58-.85-.58-1.89-2.05.69-2.55-.52.72-.88.82-2-.09-1.71-1.83-1.4-2.11.24-1.62-.62.18-1.74-.51-1.34a3.16,3.16,0,0,0-.7-.42c-1.15-.53-.87-1.28.62-1.79s1.91-1.83.66-2.37-.58-.85-.58-1.89-2.05.69-2.56-.51.72-.88.82-2-.09-1.71-1.83-1.4-2.11.24-1.62-.62.12-2-.74-1.18-1.72-.49-2.6.06c-.55.35-1.67.18-2.34.33a.64.64,0,0,1,0-.56c.5-1.21,1.15-.15,2.05-.93s1.16-1.3-.33-2.24-1.69-1.23-.73-1.53S86.54,13,85.36,13s-.89-1.5-1.93-1.69S81.25,9,80.58,10.19l0,0c-.59-1.4-2.24-.63-2.26-2.54,0-2.12-2,.87-2.12-1.59s-1.58.41-2.85-1.23c-.61-.79-.92-.74-1.27-.58-3.06,3,4.05,2.89,4.32,5,.85.21,2.13.3,2.79.4a5.12,5.12,0,0,0-1.16.55c.38.14.89.79,1.34,1-.15.25-.21.66-.38,1,.45,0,1,.46,1.33.51-.33.2-.6.6-.9.8a2.39,2.39,0,0,0,2.12,1.68c-.42,1-4,1.51-1.55,2.91-.22,0-.66.06-.81.06a2.14,2.14,0,0,0,1.66,1.42c.6.46.08.75,1.37,1-1.36,1.46,2.2,2.54,3.64,2.71a.45.45,0,0,1-.12.44c.78.14,1.75.36,2.55.58-.45.35-.55.86-.8,1.13.46.17.82.65,1.4.77-.19.13-.44.31-.63.46.44.31.6,1,1.12,1.26a3.29,3.29,0,0,1-2.94.49c-.08.33.07.54.12.85-.47,0-1,.32-1.38.38a3,3,0,0,0,2.22,1.18c-.64,2.1-3.45.69-5,1.19a5.63,5.63,0,0,0-.14,1.35c2.17-.77,6.18.41,7.68-1.14a3.78,3.78,0,0,1,1.21,1.23c-.28.12-.57.38-.91.52,1,1.42,3.17.88,4.7,1a2.78,2.78,0,0,0,1.53,1.9c-.23.25-.38.73-.65,1,.49.1,1,.62,1.54.7a5.44,5.44,0,0,1,.59,3.44c0,.27.06,1.28,0,1.69-.05.88-.89,1.26-.29,2.47-1.11.27-2.31.44-3.43.74a2.39,2.39,0,0,1-1.81,1.9c-.13-.38-.69-.77-.83-1.14-.53.22-1.71.64-1.68.62-.06.56-2.28.7-3.72,1s-2.39,1.93-3.83.39a4.58,4.58,0,0,1-.53.79,7,7,0,0,0-1.95-1.14c0,1.25,1.25,1.58,2.46,1.47.33,2.8,8.5.36,10.54.49a.5.5,0,0,0-.29.4,17,17,0,0,0,2.53,0,41,41,0,0,0,2.26,3.91c-.56.06-1.17.61-1.71.7.39.54.5,1.33,1.16,1.77-1.12.85-.53,1.94-1,2.63-.66.92-2,1.3-2.8,2.25.32.2.6.48.91.67a6.36,6.36,0,0,1-3.83.79c-.31,2.05,2.43,3.21,3.15,5,.9.3.8.36,1.22,1.27-.62.08-1.23.58-2,.5.56.25.92.91,1.33,1.18-1.39.49-1.48,1.75-.47,2.73-.18.14-.35.28-.52.43a.62.62,0,0,0,.37.49,4.11,4.11,0,0,1-2.84.76c.15.39-.06.91.39,1.45a17.18,17.18,0,0,1-2.61.21c-1.25.12-1.8,1.43-3-.13-.12.46-.68.89-.82,1.36a8.19,8.19,0,0,0-4.44-.69,2.8,2.8,0,0,1,.1.68c-1.24,0-6.66-1.5-4.63,1.24-1.68,1.29-4.49-.9-6.34-1-2.44-.11-5.07.21-7.58.2,1,.22,2,1,3.32,1.26a9.48,9.48,0,0,0,5.77-.42c.23,2.64,5.05,1.56,7.07,1.64a27.85,27.85,0,0,0,3.62,0c1.15-.1,1.29-1.14,2.42-.41-.87,3.16-5.68,1.83-8,2.73.64,1.66-1.75,1.76-3,2C72.7,87.93,72,89.1,71.55,89c-.73,1.2-7.22,0-9.56.76-.35-2.13-1.22-.8-2.49-1a21.37,21.37,0,0,0-4-.42c.42.37.62,1.09.88,1.4-1.23.61-3.59.79-4-.07-.8,2.58-3,.08-3.57-1.17a1.84,1.84,0,0,0-1.27.88,4,4,0,0,1,.47.82l-.66-.48a3.5,3.5,0,0,1,.19-.35c-1-1.28-2.39-1.21-4.18-1.08a2.55,2.55,0,0,1,.71.42,3.65,3.65,0,0,1-.77-.41h.06a4.53,4.53,0,0,0-4.46.78c-.52.26-1.41,1.26-1.86,1.36-1.2.29-.62-.27-1.54-.25S34,89.54,32.93,90a.42.42,0,0,1,.5.08A14.7,14.7,0,0,1,30.76,92c-.21-.25-.53-.48-.75-.76a5.14,5.14,0,0,1-.58,1.22h0c0,.76-.82,1.75,0,1.8,1.07.07,1.42-.56,1.91.69s1.87.91,2.49-.49a2.72,2.72,0,0,1,.69-1c.16.48-.44.87,0,1.65.55,1,1,1.41,2.32.26s1.66-1.28,1.71-.3.84,1.6,1.19.81c.61-.09.92-.25,1.29.71.48,1.25,1.87.91,2.49-.49a3.68,3.68,0,0,1,.45-.75,2.3,2.3,0,0,0,.2.39c.29.45.65,0,1.07-.43a2.1,2.1,0,0,1,.17.33c.48,1.17,1,1.23,1.49.88a1.16,1.16,0,0,0,.14.52c.55,1,1,1.41,2.32.26.28-.24.5-.43.7-.58.32.12.69.16,1,.27v0c0,.73.55,1.32.94,1.13.39.19.9-.41.94-1.13v0c.32-.11.69-.15,1-.27.2.15.42.34.7.58,1.31,1.15,1.77.78,2.32-.26a1.13,1.13,0,0,0,.14-.52c.49.35,1,.29,1.49-.88a2.05,2.05,0,0,1,.17-.33c.42.44.78.88,1.07.43a2.3,2.3,0,0,0,.2-.39,3.67,3.67,0,0,1,.44.75c.63,1.4,2,1.73,2.49.49.38-1,.68-.8,1.3-.71.35.79,1.14.09,1.19-.81s.4-.86,1.71.3,1.77.78,2.32-.26c.42-.78-.17-1.18,0-1.65a2.74,2.74,0,0,1,.69,1c.63,1.4,2,1.73,2.49.49s.84-.61,1.91-.69c.77-.05,0-1,0-1.8a.91.91,0,0,0,.64-.77c.94-.3.82.72,1.94.74s1.76-.2,1.33-1.86a7.8,7.8,0,0,1-.25-1.19,2,2,0,0,0,1.23.22,1.1,1.1,0,0,0,.22.74c.67,1,1.17,1.29,2.34,0s1.5-1.45,1.67-.48,1.17,1.61,1.33.48,1.67-.65,2-1.61,2.67-1.77,1.5-2.58c-.91-.63.6-.67,1-1.49l.23,0c1.42-.21.81-1.13,1.12-1.65a1.58,1.58,0,0,1,.12.42c.17,1,1.17,1.61,1.33.48s1.67-.64,2-1.61,2.67-1.77,1.5-2.58,1.7-.64,1-2.42,1.32-1.45-.16-2.89c.18.17.36.22.55,0,.67-.81.33-1.45,1.67-1.13s1.83-1,1-2.26-.57-2.05.67-1.77c2.17.48,1.66-1,1.17-2.09s1.17-1.29.5-2.42-1-1.29-1-1.29,2.34-2.42-.33-1.61c-1.13.34.29-.24.07-1.63.12-.53-.19-1.18.57-1.58,1.12-.59,2.44-1.42.43-2.34C100.76,55.77,101,55,102.53,54.51Z"/><path class="cls-8" d="M86.87,69.85a5.06,5.06,0,0,0-2.59,1c0-.11.19-.76.28-.95-1.61-.17-3.11,1.39-4.23-.26-1.42,1.54-5.59,3.61-6.6.51-1.57.4-2.71-.54-4.27-.5.13,1.16-.28,2.2-1.65,2l.5.4a7.07,7.07,0,0,0-1.28.08c.13.12.44.53.59.71-.5,0-1.13.1-1.59,0,.22.15.43.18.54.39a11.06,11.06,0,0,0-2.21.28c.26.12.68.39.93.52a19.35,19.35,0,0,0-2.62,0c3,1.83,8.46.56,11.52-.76a5.13,5.13,0,0,0-.91.73,11.38,11.38,0,0,0,3.67.24c-.59-.06-1.18-.19-1.76-.26,1.33.1,3.35-.18,4.11-.86a2.76,2.76,0,0,0,2.62-.41c-.8-.28-1.22-.77-2.2-.68A50.49,50.49,0,0,1,85.57,72a9.09,9.09,0,0,1-.48-1.22,13.54,13.54,0,0,1,3.55-.9Z"/><path class="cls-6" d="M44.7,69.51a.46.46,0,0,1,.26-.63,19.91,19.91,0,0,1-8.79,2.39c1.39,2.28-4.74,1.66-6.55,1.73a.35.35,0,0,1,.11,0,3.24,3.24,0,0,1-2.84.23c.47-.17,1.05-.6,1.48-.79-.8-.17-2,.23-2.66.06-1.1-.3-1.64-1.51-2.48-1.71s-1.67.64-2.53.73a26,26,0,0,1-2.62-.26A6.57,6.57,0,0,0,22.71,73L22.33,73A4.74,4.74,0,0,0,23,73l-.33,0a4.27,4.27,0,0,1,2.7,1.45,1,1,0,0,1-.38.68,6.07,6.07,0,0,0,2.59-.46c.92,1.07,2.45,1.08,3.8,1a.39.39,0,0,1-.33.2c3,0,6.67.66,9.18-.73.39-.22.51-1.13,1.09-1.51.92-.6,2.22-.6,3.16-1.2.5-.32,1.21-1.45,1.87-1.89-.08-.09-.78-.67-.85-.72a6.11,6.11,0,0,1,.93-.51A4.54,4.54,0,0,1,44.7,69.51Z"/><path class="cls-5" d="M57.43,11.33a.32.32,0,0,1,.18-.44,13.83,13.83,0,0,1-6.1,1.66c1,1.58-3.29,1.15-4.55,1.2l.07,0a2.24,2.24,0,0,1-2,.16c.33-.11.73-.42,1-.54-.56-.12-1.41.16-1.85,0-.77-.21-1.14-1-1.72-1.19s-1.16.44-1.75.5-1.21-.16-1.82-.18a4.56,4.56,0,0,0,3.21,1.2l-.26,0a3,3,0,0,0,.49,0l-.23,0a3,3,0,0,1,1.87,1,.7.7,0,0,1-.26.48,4.26,4.26,0,0,0,1.8-.33,3.1,3.1,0,0,0,2.64.71.28.28,0,0,1-.23.14c2.11,0,4.63.46,6.37-.51.27-.15.36-.79.76-1,.63-.42,1.54-.42,2.19-.83.34-.22.84-1,1.29-1.31-.06-.06-.54-.46-.59-.5a4,4,0,0,1,.65-.35A3.25,3.25,0,0,1,57.43,11.33Z"/><path class="cls-5" d="M51.29,22.5a.43.43,0,0,1,.24-.59,18.91,18.91,0,0,1-8.33,2.27c1.31,2.16-4.5,1.58-6.21,1.64a.3.3,0,0,1,.1,0,3.08,3.08,0,0,1-2.69.22c.45-.16,1-.57,1.4-.75-.76-.16-1.92.22-2.52.06-1-.28-1.56-1.43-2.36-1.62s-1.59.61-2.39.69A23.77,23.77,0,0,1,26,24.2a6.24,6.24,0,0,0,4.39,1.65c-.12,0-.24-.05-.36-.06a4.34,4.34,0,0,0,.67,0l-.31,0A4,4,0,0,1,33,27.23a.93.93,0,0,1-.36.65,5.77,5.77,0,0,0,2.45-.44c.87,1,2.33,1,3.6,1a.38.38,0,0,1-.31.19c2.88,0,6.32.62,8.7-.69.37-.21.49-1.07,1-1.44.87-.57,2.11-.57,3-1.13.47-.3,1.15-1.38,1.77-1.79-.08-.08-.74-.63-.81-.67a5.91,5.91,0,0,1,.89-.48A4.31,4.31,0,0,1,51.29,22.5Z"/><path class="cls-5" d="M34.58,42.13a.44.44,0,0,1,.24-.6,18.89,18.89,0,0,1-8.33,2.27c1.31,2.16-4.5,1.57-6.21,1.64l.1,0a3.06,3.06,0,0,1-2.69.22c.45-.16,1-.57,1.4-.74-.76-.16-1.92.22-2.52.05-1-.28-1.56-1.43-2.35-1.62s-1.59.61-2.39.69-1.65-.23-2.48-.24a6.25,6.25,0,0,0,4.39,1.64,3.61,3.61,0,0,0-.36-.07,4.67,4.67,0,0,0,.67,0l-.31,0a4,4,0,0,1,2.56,1.38,1,1,0,0,1-.36.65,5.74,5.74,0,0,0,2.45-.45c.87,1,2.32,1,3.6,1a.38.38,0,0,1-.31.19c2.88,0,6.32.62,8.7-.69.37-.2.48-1.07,1-1.43.87-.57,2.1-.57,3-1.13.47-.3,1.15-1.38,1.77-1.79-.08-.08-.74-.63-.81-.68a5.85,5.85,0,0,1,.89-.48A4.4,4.4,0,0,1,34.58,42.13Z"/><path class="cls-6" d="M7,57.47c-.41.45-.36,1.28-.56,1.61a5.76,5.76,0,0,0,3.29-.63c1.79.76,2.55,2.76,4.12,2.1.46-.19.89-1.6,1.54-1.92.92-.45,2,.28,2.85-.39-.13-.24-.23-.52-.33-.76a8.44,8.44,0,0,0,2.73-.26c-.17-.18-.43-1-.72-1.22,1.31,0,3.26.12,3.31-1.39,1.17-.13,2.49.27,3.74.1,0-.12,0-.23,0-.35a7.43,7.43,0,0,0,2.9.32,11,11,0,0,1-.14-1.18,3.08,3.08,0,0,1,1.33-.16.44.44,0,0,1-.44.21c1,0,2,0,3,0a1.86,1.86,0,0,1-.67-.6c2.42-.8,9.67,4.18,10.83-.58-1.44,0-2.75.55-4.19.44a.7.7,0,0,1-.07-.41c-.63.14-1.5-.2-2.14-.05.65-1.85-.46-2.52-2.06-3.13.76.93-1.43,1.05-2.49.95A6.81,6.81,0,0,1,33,49c-1.09.31-4.19,1.4-3.83,2.83-.76-.08-1.62.14-2.39,0,.2.44,0,1.22.14,1.61-1.26.35-2.65-.31-3.78-.4s-1.19,1.41-2.31.11c-.59,1.05-2.64.24-4.15.39.12.15.36.45.56.68a8.25,8.25,0,0,1-2-.72,9.58,9.58,0,0,1,1.31-.71C13.7,52.6,13,54.62,10.76,55c-1.51.25-3.16-.63-4.86-1.18.12-.21.2-.67.38-1a3.3,3.3,0,0,0-1.5-.7c.06-.2.26-.39.15-.53a4.23,4.23,0,0,1-2.86,0,6,6,0,0,0,.05-1.27,3.54,3.54,0,0,1-.74.49c.13.58.31.86-.66,1.28-1.25.55-.82,1.86.66,2.37.8.28,1.24.62,1.3,1,.68-.06,1.42-.17,2.31-.22A2,2,0,0,0,7,57.47Z"/><path class="cls-6" d="M25.75,11.64c-.1.36.15,1.31,0,1.74,1.41,0,2.82,0,4.23,0-.13.21-.25,1.06-.45,1.35a22.17,22.17,0,0,1,2.45.31c-.07.19-.24.39-.28.5A4.69,4.69,0,0,1,34,16.3c-.28.33-.4,1.11-.73,1.45,1.12.38,2.49.1,3.71.49,0,.24,0,.47,0,.71,1.6-.1,3.12.63,4.68,0-.18,0-.59-.14-.85-.18,2.58,0,5.56-.56,8-.65a17.87,17.87,0,0,0,4.84-1.3,29.74,29.74,0,0,1-5.61.21,1.14,1.14,0,0,1-.07-.57c-1.05.55-2.4,1.25-3.42.57a6.52,6.52,0,0,1,.85-.89c-1.88.37-3.71,1-5.58,1.41a2.08,2.08,0,0,1,.08-.66,4.4,4.4,0,0,1-2.41.59c.05-.38-.17-.91-.11-1.32-1.61.12-2.13-1.2-2-2.64-1.25-.08-1,.3-1.72-.78-.22.17-.19.28-.5.42a13.41,13.41,0,0,1-.54-1.44c-2.15.37-3.65-.72-5.53-1.76a2.5,2.5,0,0,0,.33-.37,1.48,1.48,0,0,1-1.58,0c-1.72-.88-2,1.88-2.62.65A.73.73,0,0,0,23,9.86C23.24,11.28,24,11.67,25.75,11.64Z"/><path class="cls-6" d="M53.76,32.63A6.76,6.76,0,0,1,53.4,32c.5-.2.81-.83,1.35-1-.2-.2-.46-.56-.63-.71A17.54,17.54,0,0,1,56.84,29c.29-1.11.1-.81,1-1.63a19,19,0,0,1-3.41,1,12.91,12.91,0,0,1-3.26.91c-.36,0-.81-.35-1.28-.29-1.79.21-9.49,3.71-10.07,2a22.4,22.4,0,0,1-2.71.17c0-.17.13-.24.33-.21a9.09,9.09,0,0,0-1,0s.09-.64.09-.66c-1.29.38-2.93,1.32-3.72-.24-1.89-.12-3.57,1-5.46.54-.78-.19-2-1.26-3.05-1.54a5.86,5.86,0,0,0-.06-.71A9.68,9.68,0,0,1,21.43,28a5,5,0,0,0-1.61-2.48,7.53,7.53,0,0,0,.28,2.82,4.37,4.37,0,0,0,2.48-.14,4.4,4.4,0,0,0-1.15,2.2,9.66,9.66,0,0,0,3.39.54,1.16,1.16,0,0,1-.09.59,22,22,0,0,0,3.61.59c.86,0,1.73,0,2.59,0a2.19,2.19,0,0,0-.38.2,25.16,25.16,0,0,1,4.25.28,3.6,3.6,0,0,1-.76.6c1.44-.38,3.08-.83,4.53-.36-.33.39-.67,1.23-1.24,1.6A5.8,5.8,0,0,1,40,34.1a7.1,7.1,0,0,1-1.11,1.7,11.49,11.49,0,0,0-3.65.45c-.8.17-4.25,1.35-2.93.25a12.27,12.27,0,0,1-2.05,0,.35.35,0,0,1,.31-.34c-3.49.67-6.64.13-10.06.36a30.29,30.29,0,0,0,4.67,1.44c1.8.33,5.41-.34,6.56.8,1.75,0,4.51.37,5.62-.71,1.78,0,4.28-.23,5.48-1.51-.75-1.57,2.53-1.5,2-3.61,1.45-.07,2.93,0,4.4,0A25.35,25.35,0,0,0,53.76,32.63Z"/><path class="cls-6" d="M66,39.78a1.39,1.39,0,0,0,.35.05c-2,2-6.59,2.35-9.28,1.75l.29-.05a13.43,13.43,0,0,1-3.25-.19.59.59,0,0,1,.16-.09c-.81.2-1.66.49-2.43.71a3.26,3.26,0,0,0-2.91-1.25c.05.09.09.16.15.25.68,1,1.93.7,1.51,2,1,.07,2.11,0,3.15.08-.35.18-.7.49-1.1.66,3.16.38,6.4-.63,9.73-.18l-.28-.21a20,20,0,0,0,4.44-.73c-.3-.22-.46-.62-.62-.78,1-.42,2.13-.72,3.12-1.24-.23-.12-.76-.73-1.08-.89.54-.3,1-.93,1.82-1l-.95-.45A9.46,9.46,0,0,1,66,39.78Z"/><path class="cls-5" d="M47.41,57.36c.45.16.85.93,1.13,1.3-.31.09-.62.17-.94.23a6.24,6.24,0,0,1,.88.53C46.81,61.21,38,63,35.58,62.21a.35.35,0,0,1,0-.53c-1.32.46-6.17.19-7.18-.75a11.74,11.74,0,0,1,1-1.38,26.55,26.55,0,0,0,6.44-.77c-.16-.17-.38-.38-.59-.56,2.41.26,4.88.27,7.08.44a.37.37,0,0,0-.09-.44c1-.42,1.15-.27,1.94-.9a2,2,0,0,0,3,.32S46.84,57.15,47.41,57.36Z"/><path class="cls-9" d="M37.3,42.94s.59-3.53-5-3.2C32.33,39.74,33.61,44.83,37.3,42.94Z"/><path class="cls-9" d="M74.71,81.21s.59-3.53-5-3.2C69.74,78,71,83.1,74.71,81.21Z"/><path class="cls-9" d="M26.77,78.52s-3.66-.53-3.25,4.84C23.51,83.36,28.76,82.06,26.77,78.52Z"/><path class="cls-9" d="M23,62.16s-2.83-2.31-5.39,2.47C17.61,64.64,22.78,66.19,23,62.16Z"/><path class="cls-9" d="M46.13,81.41s-3.69.31-2,5.44C44.13,86.85,48.92,84.41,46.13,81.41Z"/><path class="cls-9" d="M82.59,64.57s-.59-3.53,5-3.2C87.56,61.37,86.28,66.46,82.59,64.57Z"/><path class="cls-9" d="M44.23,17.52s.59,3.53-5,3.2C39.26,20.72,40.54,15.63,44.23,17.52Z"/><path class="cls-9" d="M86,42.26s.59-3.53-5-3.2C81,39.06,82.33,44.15,86,42.26Z"/><path class="cls-9" d="M63.52,16.3s.14,3.58,5.52,2.19C69,18.5,66.75,13.75,63.52,16.3Z"/><path class="cls-9" d="M55.9,53.94s-2.39,2.7,2.51,5.2C58.4,59.14,60,54.18,55.9,53.94Z"/><path class="cls-9" d="M17.78,39.9s.59,3.53-5,3.2C12.8,43.09,14.09,38,17.78,39.9Z"/><path class="cls-9" d="M36.18,73c-2.65.34-.46,4,1.19,4.18C38.25,74.87,38.63,74.22,36.18,73Z"/></g></g></svg>