<svg xmlns="http://www.w3.org/2000/svg" viewBox="0 0 688.11 181.95"><defs><style>.cls-1{fill:#633b16;}.cls-1,.cls-10,.cls-2,.cls-3,.cls-4,.cls-5,.cls-6,.cls-7,.cls-8,.cls-9{fill-rule:evenodd;}.cls-2{fill:#804b1f;}.cls-3{fill:#422810;}.cls-4{fill:#33b44a;}.cls-5{fill:#00ad4c;}.cls-6{fill:#39b54a;}.cls-7{fill:#43b649;}.cls-8{fill:#58b947;}.cls-9{fill:#80c342;}.cls-10{fill:#008b45;}</style></defs><title>treeline_back</title><g id="Layer_2" data-name="Layer 2"><g id="Treeline_Back" data-name="Treeline Back"><path class="cls-1" d="M45.36,54.86c0-5.25,0-11.14-1.65-15.35-3.35,3-3.43,14.34-3.95,19C38.48,69.85,38.33,81.3,38,92.77c-.61,19.78.85,42.35-4.07,61.41-1.26,4.88-4.57,9.22-7.55,12.62s-7.73,5-10.28,8.12c3.13,1.37,6.78.44,9.9-.54.92-.29,9.76-3.27,9.72-4.24.09,2.86,1.51,6.23,2.7,8.6,1.29-2.57,2.49-5.82,3.83-8.51-1.38,2.76,19,6.78,20.46,7.65-1.34-4.74-6.41-7-8.69-11A44.49,44.49,0,0,1,49.41,152c-4.7-30.4-3.22-62-4-92.77C45.36,57.88,45.36,56.4,45.36,54.86Z"/><path class="cls-2" d="M47.09,156.15A37,37,0,0,0,59.83,177a19.57,19.57,0,0,1,2.88.88c-1.34-4.74-6.41-7-8.69-11A44.49,44.49,0,0,1,49.41,152c-4.7-30.4-3.22-62-4-92.77,0-1.37,0-2.85,0-4.39,0-2.41,0-4.95-.16-7.4A292.54,292.54,0,0,0,47.09,156.15Z"/><path class="cls-3" d="M43.46,156.15c-8.32-38.77-.75-77.53-.06-116.3-3,3.39-3.13,14.15-3.64,18.62C38.48,69.85,38.33,81.3,38,92.77c-.61,19.78.85,42.35-4.07,61.41-1.26,4.88-4.57,9.22-7.55,12.62s-7.57,4.93-10.15,8c7-.21,14.57-7.74,20.71-11.06a14.89,14.89,0,0,0-1.44,6.77c.15-.13.23-.24.23-.34.09,2.86,1.51,6.23,2.7,8.6l.15-.32c-1.14-4.81-.43-10.71,1.26-15.65,0,3.36.58,6,2.24,7.83l.18-.37a.63.63,0,0,0,0,.53c.16.17.32.34.5.5-.18-.16-.33-.33-.5-.5.77,1.89,9.68,4.19,15.51,5.7A30.2,30.2,0,0,1,43.46,156.15Z"/><path class="cls-4" d="M27.18,24c-4.63,0-8.39,3.41-8.39,7.61A6.93,6.93,0,0,0,19.22,34l-.56,0A5.39,5.39,0,0,0,13,39.09a5.15,5.15,0,0,0,3.6,4.76c-.6,1-1.18,1.93-1.74,2.94a65.5,65.5,0,0,0,28.46,5.88A90,90,0,0,0,31.89,25.32,8.93,8.93,0,0,0,27.18,24Z"/><path class="cls-5" d="M27.18,24c-4.63,0-8.39,3.41-8.39,7.61A6.93,6.93,0,0,0,19.22,34l-.56,0A5.39,5.39,0,0,0,13,39.09a5.15,5.15,0,0,0,3.6,4.76c-.6,1-1.18,1.93-1.74,2.94a65.5,65.5,0,0,0,28.46,5.88c-.28,0-.51-2.83-.69-3.18a4.84,4.84,0,0,0-1.84-1.76c-1.62-1.05-3.56-1.55-5.17-2.62-3.39-2.27-5.49-6-.06-7.1-3.09-1.68-7.89-2.44-9-6.34s3.7-4.7,6.56-4.87C31.22,25.16,30,24,27.18,24Z"/><path class="cls-6" d="M37.56,27a28.14,28.14,0,0,0-3,1,8,8,0,0,0-2.65-2.62A90,90,0,0,1,43.35,52.67c2.22,0,4.45-.12,6.68-.32A72.8,72.8,0,0,0,37.56,27Z"/><path class="cls-7" d="M41.2,26.24a26.79,26.79,0,0,0-3.64.72A72.8,72.8,0,0,1,50,52.34a83.27,83.27,0,0,0,10.1-1.53A67.64,67.64,0,0,0,41.2,26.24Z"/><path class="cls-8" d="M76.4,40.23c0-4.2-3.76-7.61-8.39-7.61a9,9,0,0,0-4.43,1.16l-.11-.09a5.09,5.09,0,0,0,3.16-4.58A5.39,5.39,0,0,0,61,24a5.47,5.47,0,0,0-5.59,4.47A26.86,26.86,0,0,0,44.34,26a25.67,25.67,0,0,0-3.14.2A67.64,67.64,0,0,1,60.13,50.81a82.31,82.31,0,0,0,13.58-4.17c-.11-.2-.22-.38-.33-.57A7.33,7.33,0,0,0,76.4,40.23Z"/><path class="cls-9" d="M68,32.62a9,9,0,0,0-4.43,1.16l-.11-.09a5.09,5.09,0,0,0,3.16-4.58A5.39,5.39,0,0,0,61,24a5.47,5.47,0,0,0-5.59,4.47c.07-.47-6.82-2.45-7.86-2.62-2.52-.43-6.49-.43-8.69,1,4.73-1.4,14.51,1.52,17.2,5.59-1.27-1.92,2-5,4-4.46,3.94,1,2.58,7,1,9.3,1.06-1.52,6.62-1.19,8.38-.94a7.56,7.56,0,0,1,6.48,5.33c.06.22.11.45.15.67a6.83,6.83,0,0,0,.35-2.12C76.4,36,72.64,32.62,68,32.62Z"/><path class="cls-10" d="M19.22,34l-.56,0A5.39,5.39,0,0,0,13,39.09a5.15,5.15,0,0,0,3.6,4.76c-.6,1-1.18,1.93-1.74,2.94,17.58,8.34,40.18,7.43,58.82-.15-.11-.2-.22-.38-.33-.57a7.8,7.8,0,0,0,2.1-2.4,12.75,12.75,0,0,1-4.59,1.88C62.36,47.2,54.45,49,45.64,48.44c-3.11-.18-23.36-2.71-20.78-8.41.65-1.43,3.61-2.35,4.93-2.53-2.71-1.13-7.95-2.55-7.92-6.14,0-5.17,7.62-5.95,11.35-5a8.8,8.8,0,0,0-6-2.33c-4.63,0-8.39,3.41-8.39,7.61A6.93,6.93,0,0,0,19.22,34Z"/><path class="cls-4" d="M15.27,115.37a4.89,4.89,0,0,0-1.81,3.74,4.61,4.61,0,0,0,.14,1.05,54.16,54.16,0,0,0,8.93-5.87,52.2,52.2,0,0,1-10.08-4.61A59.31,59.31,0,0,0,15.27,115.37Z"/><path class="cls-6" d="M17.23,123.92a52.6,52.6,0,0,0,9.52-5.09c1.15-.82,2.26-1.68,3.33-2.55a57,57,0,0,1-7.54-2,54.16,54.16,0,0,1-8.93,5.87A5.3,5.3,0,0,0,17.23,123.92Z"/><path class="cls-7" d="M30.07,116.27c-1.07.88-2.18,1.74-3.33,2.55a52.6,52.6,0,0,1-9.52,5.09,6.11,6.11,0,0,0,4-.09c.24.27.48.55.72.82a6.49,6.49,0,0,0-1,3.43,7.19,7.19,0,0,0,5.75,6.79c9.43-3.51,18.08-10.33,24.74-18.19A65.9,65.9,0,0,1,30.07,116.27Z"/><path class="cls-8" d="M73.15,115.62a59.7,59.7,0,0,0,3.41-7,78.42,78.42,0,0,1-25.09,8.06c-6.65,7.86-15.31,14.67-24.74,18.19a8.52,8.52,0,0,0,2,.25A8.18,8.18,0,0,0,34,133.26a26.38,26.38,0,0,0,19.69.35,8.13,8.13,0,0,0,5.62,2.19c4.29,0,7.77-3.15,7.77-7a6.45,6.45,0,0,0-.21-1.59,7.68,7.68,0,0,0,2.59.46c3.94,0,7.14-2.9,7.14-6.47A6.36,6.36,0,0,0,73.15,115.62Z"/><path class="cls-10" d="M62.82,132.4c-10-6.78-18,1-29.06-1.94-4-1-8-4.85-5-9.69-5,0-10-1-9-6.78a3.22,3.22,0,0,1,.62-.47,52.36,52.36,0,0,1-7.9-3.84,59.31,59.31,0,0,0,2.82,5.69,4.89,4.89,0,0,0-1.81,3.74,5.39,5.39,0,0,0,5.64,5.11,6.1,6.1,0,0,0,2.15-.39c.24.27.48.55.72.82a6.49,6.49,0,0,0-1,3.43c0,3.89,3.48,7,7.77,7A8.18,8.18,0,0,0,34,133.26a26.38,26.38,0,0,0,19.69.35,8.13,8.13,0,0,0,5.62,2.19c4.25,0,7.69-3.09,7.76-6.93A7.3,7.3,0,0,0,62.82,132.4Z"/><path class="cls-9" d="M70.83,118.83c5.44.58,3.58,5-.28,8.71a6.7,6.7,0,0,0,6-6.39,6.36,6.36,0,0,0-3.44-5.53,59.7,59.7,0,0,0,3.41-7,77,77,0,0,1-32.44,8.7C52.44,120.4,62.35,117.19,70.83,118.83Z"/><path class="cls-4" d="M62.82,132.4c0-.09.1-.16.14-.25l-.38.1Z"/><path class="cls-4" d="M90.18,73.72c0-5.43-4.48-9.91-10.27-10.57-.08-.34-.16-.69-.24-1a7,7,0,0,0,5.5-6.56c0-3.76-3.36-6.81-7.51-6.81a8.15,8.15,0,0,0-2.64.44c-.42-.86-.85-1.71-1.3-2.54-17.18,7-37.72,8.3-54.6,1.93a12.5,12.5,0,0,0-7.34-2.33C5.27,46.24,0,51,0,56.92a10.59,10.59,0,0,0,6.25,9.42,6.75,6.75,0,0,0-4,6,6.83,6.83,0,0,0,4.54,6.26c0,.71,0,1.43,0,2.15,0,.13,0,.26,0,.38,8,5.32,18.77,7.82,28,8.47,14.73,1.21,32.59.39,47-5.43,0-.08,0-.17,0-.25C86.66,82.59,90.18,78.53,90.18,73.72Z"/><path class="cls-4" d="M21.68,67.85l1.12.24A5.53,5.53,0,0,0,21.68,67.85Z"/><path class="cls-10" d="M14.78,78.75c-4-1-4-7.75,0-9.69,1.76,0,4.28-1.49,6.9-1.2-4.62-1-9.05-3-10.91-7.52-1.44-5.58,3.87-10.16,10-11.2-.54-.18-1.08-.36-1.61-.56a12.5,12.5,0,0,0-7.34-2.33C5.27,46.24,0,51,0,56.92a10.59,10.59,0,0,0,6.25,9.42,6.75,6.75,0,0,0-4,6,6.83,6.83,0,0,0,4.54,6.26c0,.71,0,1.43,0,2.15,0,.13,0,.26,0,.38,8,5.32,18.77,7.82,28,8.47,14.73,1.21,32.59.39,47-5.43,0-.08,0-.17,0-.25a11.15,11.15,0,0,0,8.09-8C71.57,91.72,36.33,87.56,14.78,78.75Z"/><path class="cls-9" d="M79.9,63.14c-.08-.34-.16-.69-.24-1a7,7,0,0,0,5.5-6.56c0-3.76-3.36-6.81-7.51-6.81a8.15,8.15,0,0,0-2.64.44c-.42-.86-.85-1.71-1.3-2.54a82.48,82.48,0,0,1-30.86,6c10.79,2.84,22.67-2.59,33.05-.08,4,1,1,9.69-5,12.6,6.7-.54,14.34,2.84,19.27,8.12C89.93,68.06,85.54,63.79,79.9,63.14Z"/><path class="cls-5" d="M26.75,51.58c-1.71-.77-4.43-2.28-6.23-2.41S16.36,50.45,15,51.33c-2.74,1.79-5.65,5.59-4.24,9,1.86,4.48,6.29,6.48,10.91,7.52a5.53,5.53,0,0,1,1.12.24l-1.12-.24c-2.62-.28-5.14,1.2-6.9,1.2-3.8,1.84-4.2,5.15-2.3,8.56,3.1,5.58,12,5.53,17.63,6.78,2.41.53,4.66,1,6.89,1.28,1.49.2,4.36.63,5.79.26-3.17-2.47-7.87-3.35-11.35-5.59C29.34,79,26.11,76.9,26,74.19c-.17-3,3.8-3.23,6-3.84-2.75-1.61-5.3-2.12-7.47-4.53A16.62,16.62,0,0,1,20.66,59c-.54-1.81-.86-4.42.5-5.95C22.66,51.37,24.66,51.72,26.75,51.58Z"/><path class="cls-6" d="M50.74,53.5a30.13,30.13,0,0,1-7-.64,71.72,71.72,0,0,1-.46,33c2.46.28,4.93.48,7.4.58A72.7,72.7,0,0,0,50.74,53.5Z"/><path class="cls-7" d="M61.57,52.5a108,108,0,0,1-10.83,1,72.7,72.7,0,0,1,0,33,83.16,83.16,0,0,0,15.41-.7A70.89,70.89,0,0,0,61.57,52.5Z"/><path class="cls-8" d="M90.18,73.72c0-.14,0-.28,0-.42C85.23,68,77.59,64.64,70.89,65.18c6-2.91,9-11.63,5-12.6-4.56-1.1-9.41-.67-14.33-.09a70.89,70.89,0,0,1,4.56,33.27c9.11-1.33,17.46-4.41,23.8-9.88A9.77,9.77,0,0,0,90.18,73.72Z"/><path class="cls-4" d="M40.83,91.59c.22-.53.42-1.06.62-1.59-2.26-.08-4.48-.2-6.63-.38-9.28-.65-20.07-3.15-28-8.47q0,2,.11,3.89A3.69,3.69,0,0,0,7,92a9.33,9.33,0,0,0-4,7.5c0,4.88,4,8.92,9.18,9.57.11.26.21.52.32.78A52.69,52.69,0,0,0,24,114.91,62.87,62.87,0,0,0,40.83,91.59Z"/><path class="cls-5" d="M24.11,89.14c-2.77-1.45-5.87-2.29-8.68-3.62-1.15-.54-8.65-3-8.65-4.38q0,2,.11,3.89A3.69,3.69,0,0,0,7,92a9.33,9.33,0,0,0-4,7.5c0,4.88,4,8.92,9.18,9.57.11.26.21.52.32.78a49.91,49.91,0,0,0,9.73,4.5c2.1.7,2.31,0,4-1.13a8.8,8.8,0,0,1,2.82-1.46C26.54,109.26,16,98.9,23.57,96.59c-1.87-1.13-5.42-2.58-5.28-5C18.44,88.85,21.91,88.45,24.11,89.14Z"/><path class="cls-6" d="M41.45,90c-.2.53-.4,1.07-.62,1.59A62.87,62.87,0,0,1,24,114.91a57.67,57.67,0,0,0,7.71,1.79A60.46,60.46,0,0,0,49.19,90.05C46.57,90.11,44,90.08,41.45,90Z"/><path class="cls-7" d="M49.19,90.05A60.46,60.46,0,0,1,31.75,116.7a67,67,0,0,0,21.35-.12,64.89,64.89,0,0,0,7.76-12.39,68.19,68.19,0,0,0,4.62-15.58A115.09,115.09,0,0,1,49.19,90.05Z"/><path class="cls-8" d="M86,93.43a4.75,4.75,0,0,0,.92-2.8,5.34,5.34,0,0,0-5.18-5.09c0-.46.07-.91.09-1.37a77.43,77.43,0,0,1-16.34,4.43,68.19,68.19,0,0,1-4.62,15.58,64.89,64.89,0,0,1-7.76,12.39,78.67,78.67,0,0,0,23.31-7.72c.36,0,.72.05,1.09.05,5.88,0,10.66-4.3,10.67-9.63A9,9,0,0,0,86,93.43Z"/><path class="cls-10" d="M12.77,95.46c1,0,2-1.94,3-1-3-2.91-5-5.81-4-9.69a2.08,2.08,0,0,1,.49-.63,40.59,40.59,0,0,1-5.49-3q0,2,.11,3.89A3.69,3.69,0,0,0,7,92a9.33,9.33,0,0,0-4,7.5c0,4.88,4,8.92,9.18,9.57.11.26.21.52.32.78,17.73,10.57,40.19,9.48,59,1.35C49.41,116.23,22.53,116.68,12.77,95.46Z"/><path class="cls-4" d="M75.9,100.31l1.79-1.74A6,6,0,0,0,75.9,100.31Z"/><path class="cls-9" d="M88.17,99.28A9,9,0,0,0,86,93.43a4.75,4.75,0,0,0,.92-2.8,5.34,5.34,0,0,0-5.18-5.09c0-.46.07-.91.09-1.37-13.68,5.53-30.45,6.55-44.72,5.6,14.65,6.43,30.62-1.65,45.8,1.81,1.65,0-2.15,4-5.22,7a5.42,5.42,0,0,1,5.22-.19,7.57,7.57,0,0,1,1.73,8.05A9.25,9.25,0,0,0,88.17,99.28Z"/><path class="cls-1" d="M171.11,67.68c0-4.73,0-10-1.38-13.83-2.82,2.67-2.88,12.92-3.32,17.08-1.09,10.26-1.2,20.58-1.5,30.91-.51,17.82.72,38.16-3.42,55.33-1.06,4.4-3.84,8.31-6.35,11.37s-6.5,4.48-8.64,7.32c2.63,1.24,5.7.39,8.33-.48.77-.26,8.2-2.95,8.18-3.82a21.62,21.62,0,0,0,2.27,7.74c1.09-2.32,2.09-5.25,3.22-7.66-1.16,2.49,16,6.11,17.21,6.9-1.13-4.27-5.39-6.29-7.31-9.94a42.17,42.17,0,0,1-3.87-13.36c-4-27.39-2.71-55.85-3.38-83.59C171.1,70.4,171.11,69.06,171.11,67.68Z"/><path class="cls-2" d="M172.56,158.95a33.76,33.76,0,0,0,10.71,18.78,15.68,15.68,0,0,1,2.42.79c-1.13-4.27-5.39-6.29-7.31-9.94a42.17,42.17,0,0,1-3.87-13.36c-4-27.39-2.71-55.85-3.38-83.59,0-1.23,0-2.57,0-4,0-2.17,0-4.46-.14-6.67A282.1,282.1,0,0,0,172.56,158.95Z"/><path class="cls-3" d="M169.51,158.95c-7-34.93-.63-69.86,0-104.79-2.55,3.05-2.63,12.75-3.06,16.77-1.09,10.26-1.2,20.58-1.5,30.91-.51,17.82.72,38.16-3.42,55.33-1.06,4.4-3.84,8.31-6.35,11.37s-6.36,4.44-8.53,7.18c5.88-.19,12.25-7,17.41-10a14.23,14.23,0,0,0-1.21,6.1c.12-.12.19-.22.19-.3a21.62,21.62,0,0,0,2.27,7.74l.13-.29a28.67,28.67,0,0,1,1.06-14.1c0,3,.49,5.38,1.89,7.06l.15-.33a.6.6,0,0,0,0,.48c.14.15.27.31.42.45-.15-.14-.28-.29-.42-.45.65,1.7,8.14,3.78,13,5.14C175.87,173.52,171.36,168,169.51,158.95Z"/><path class="cls-4" d="M145.81,122.2a4.53,4.53,0,0,0-1.52,3.37,4.44,4.44,0,0,0,.11.95,45.39,45.39,0,0,0,7.51-5.29,42.58,42.58,0,0,1-8.48-4.16A54.93,54.93,0,0,0,145.81,122.2Z"/><path class="cls-6" d="M147.45,129.91a43.33,43.33,0,0,0,8-4.59c1-.74,1.9-1.51,2.8-2.3a45.3,45.3,0,0,1-6.34-1.79,45.39,45.39,0,0,1-7.51,5.29A4.65,4.65,0,0,0,147.45,129.91Z"/><path class="cls-7" d="M158.25,123c-.9.79-1.83,1.56-2.8,2.3a43.33,43.33,0,0,1-8,4.59,4.81,4.81,0,0,0,3.38-.08c.2.25.4.5.61.74a6.16,6.16,0,0,0-.83,3.09,6.37,6.37,0,0,0,4.83,6.12c7.93-3.16,15.21-9.3,20.8-16.39A51.79,51.79,0,0,1,158.25,123Z"/><path class="cls-8" d="M194.48,122.44a55.5,55.5,0,0,0,2.87-6.31,62.88,62.88,0,0,1-21.1,7.26c-5.59,7.08-12.87,13.22-20.8,16.39a6.71,6.71,0,0,0,1.7.22,6.6,6.6,0,0,0,4.41-1.68,20.81,20.81,0,0,0,16.56.31,6.6,6.6,0,0,0,4.73,2,6.44,6.44,0,0,0,6.53-6.34,6.18,6.18,0,0,0-.17-1.43,6.08,6.08,0,0,0,2.17.41,5.92,5.92,0,0,0,6-5.83A5.79,5.79,0,0,0,194.48,122.44Z"/><path class="cls-10" d="M185.79,137.55c-8.43-6.11-15.17.87-24.44-1.75-3.37-.87-6.74-4.37-4.21-8.73-4.21,0-8.43-.87-7.58-6.11a2.72,2.72,0,0,1,.52-.42,42.88,42.88,0,0,1-6.64-3.46,54.93,54.93,0,0,0,2.38,5.12,4.53,4.53,0,0,0-1.52,3.37,4.67,4.67,0,0,0,4.74,4.6,4.83,4.83,0,0,0,1.81-.35c.2.25.4.5.61.74a6.16,6.16,0,0,0-.83,3.09,6.44,6.44,0,0,0,6.53,6.34,6.6,6.6,0,0,0,4.41-1.68,20.81,20.81,0,0,0,16.56.31,6.6,6.6,0,0,0,4.73,2,6.44,6.44,0,0,0,6.53-6.24A6.26,6.26,0,0,0,185.79,137.55Z"/><path class="cls-9" d="M192.53,125.32c4.57.53,3,4.55-.24,7.85a5.88,5.88,0,0,0,5.08-5.76,5.79,5.79,0,0,0-2.89-5,55.5,55.5,0,0,0,2.87-6.31A61.43,61.43,0,0,1,170.07,124C177.06,126.74,185.4,123.84,192.53,125.32Z"/><path class="cls-4" d="M185.79,137.55l.12-.22-.32.09Z"/><path class="cls-4" d="M208.8,84.67a9.71,9.71,0,0,0-8.64-9.53c-.07-.31-.13-.62-.2-.93a6.17,6.17,0,0,0,4.63-5.91,6.23,6.23,0,0,0-6.32-6.14,6.44,6.44,0,0,0-2.22.4c-.35-.78.23.4-.15-.34-14-19.16-32-27.84-46.86-.21a10,10,0,0,0-6.17-2.1,9.76,9.76,0,0,0-9.9,9.62A9.58,9.58,0,0,0,138.22,78a6.06,6.06,0,0,0,.45,11.06c0,.64,0,1.29,0,1.93,0,.12,0,.23,0,.35,6.71,4.79,15.79,7.05,23.59,7.63,12.39,1.09,27.41.35,39.54-4.9,0-.08,0-.15,0-.23A9.66,9.66,0,0,0,208.8,84.67Z"/><path class="cls-10" d="M145.39,89.21c-3.37-.87-3.37-7,0-8.73,1.48,0,3.6-1.34,5.8-1.09-3.89-.94-7.61-2.73-9.17-6.77-1.21-5,3.26-9.16,8.37-10.09-.45-.17-.91-.32-1.36-.5a10,10,0,0,0-6.17-2.1,9.76,9.76,0,0,0-9.9,9.62A9.58,9.58,0,0,0,138.22,78a6.06,6.06,0,0,0,.45,11.06c0,.64,0,1.29,0,1.93,0,.12,0,.23,0,.35,6.71,4.79,15.79,7.05,23.59,7.63,12.39,1.09,27.41.35,39.54-4.9,0-.08,0-.15,0-.23a9.74,9.74,0,0,0,6.8-7.24C193.15,100.89,163.51,97.15,145.39,89.21Z"/><path class="cls-9" d="M200.16,75.14c-.07-.31-.13-.62-.2-.93a6.17,6.17,0,0,0,4.63-5.91,6.23,6.23,0,0,0-6.32-6.14c-10.45,0-18.16,3.55-29.27,3.53,9.07,2.56,19.06-2.34,27.8-.07,3.37.87.84,8.73-4.21,11.35,5.64-.49,12.06,2.56,16.2,7.31A9.72,9.72,0,0,0,200.16,75.14Z"/><path class="cls-5" d="M155.45,64.73c-1.44-.7-3.73-2.06-5.24-2.17s-3.5,1.15-4.63,1.94c-2.31,1.61-4.76,5-3.57,8.12,1.56,4,5.29,5.84,9.17,6.77a4.37,4.37,0,0,1,.94.21l-.94-.21c-2.2-.26-4.33,1.09-5.8,1.09-3.2,1.66-3.53,4.64-1.93,7.71,2.61,5,10.08,5,14.82,6.11,2,.48,3.92.89,5.8,1.16,1.25.18,3.67.56,4.87.24-2.66-2.22-6.62-3-9.55-5-1.76-1.21-4.47-3.11-4.6-5.56-.14-2.73,3.2-2.91,5-3.46-2.31-1.45-4.45-1.91-6.28-4.08a15.3,15.3,0,0,1-3.2-6.14c-.45-1.63-.73-4,.42-5.36S153.7,64.85,155.45,64.73Z"/><path class="cls-6" d="M175.63,66.46a23.69,23.69,0,0,1-5.86-.57,69.12,69.12,0,0,1-.38,29.76c2.07.25,4.15.43,6.22.52A70.07,70.07,0,0,0,175.63,66.46Z"/><path class="cls-7" d="M184.74,65.55a84.94,84.94,0,0,1-9.1.91,70.07,70.07,0,0,1,0,29.71,65.39,65.39,0,0,0,13-.63A68.08,68.08,0,0,0,184.74,65.55Z"/><path class="cls-8" d="M208.8,84.67c0-.13,0-.25,0-.38-4.14-4.75-10.56-7.8-16.2-7.31,5.06-2.62,7.58-10.48,4.21-11.35-3.84-1-7.91-.61-12.05-.08a68.08,68.08,0,0,1,3.83,30c7.66-1.2,14.68-4,20-8.9A9.4,9.4,0,0,0,208.8,84.67Z"/><path class="cls-4" d="M167.3,100.77c.18-.48.35-1,.52-1.44-1.9-.07-3.77-.18-5.58-.34-7.8-.58-16.88-2.84-23.59-7.63q0,1.77.1,3.51a3.41,3.41,0,0,0,.09,6.25,8.59,8.59,0,0,0-3.35,6.76,8.78,8.78,0,0,0,7.72,8.62c.09.23.18.47.27.7a42.88,42.88,0,0,0,9.7,4.59A56.71,56.71,0,0,0,167.3,100.77Z"/><path class="cls-5" d="M153.23,98.57c-2.33-1.3-4.94-2.06-7.3-3.26-1-.49-7.27-2.74-7.28-3.95q0,1.77.1,3.51a3.41,3.41,0,0,0,.09,6.25,8.59,8.59,0,0,0-3.35,6.76,8.78,8.78,0,0,0,7.72,8.62c.09.23.18.47.27.7a40.72,40.72,0,0,0,8.18,4.06c1.77.63,1.94,0,3.38-1a7.24,7.24,0,0,1,2.37-1.32c-2.13-2.23-11-11.56-4.63-13.64-1.58-1-4.56-2.33-4.44-4.51C148.47,98.31,151.38,98,153.23,98.57Z"/><path class="cls-6" d="M167.82,99.34c-.17.48-.34,1-.52,1.44a56.71,56.71,0,0,1-14.12,21,45.79,45.79,0,0,0,6.48,1.62,55,55,0,0,0,14.67-24C172.13,99.44,169.95,99.42,167.82,99.34Z"/><path class="cls-7" d="M174.33,99.39a55,55,0,0,1-14.67,24,52.64,52.64,0,0,0,18-.11,59.27,59.27,0,0,0,6.53-11.17,64.77,64.77,0,0,0,3.88-14A90.5,90.5,0,0,1,174.33,99.39Z"/><path class="cls-8" d="M205.28,102.44a4.49,4.49,0,0,0,.78-2.52,4.66,4.66,0,0,0-4.35-4.58c0-.41.06-.82.07-1.23a61.71,61.71,0,0,1-13.74,4,64.77,64.77,0,0,1-3.88,14,59.27,59.27,0,0,1-6.53,11.17,63.15,63.15,0,0,0,19.6-7c.3,0,.6,0,.91,0a8.83,8.83,0,0,0,9-8.67A8.49,8.49,0,0,0,205.28,102.44Z"/><path class="cls-10" d="M143.7,104.27c.84,0,1.69-1.75,2.53-.87-2.53-2.62-4.21-5.24-3.37-8.73a1.87,1.87,0,0,1,.41-.56,33.57,33.57,0,0,1-4.62-2.74q0,1.77.1,3.51a3.41,3.41,0,0,0,.09,6.25,8.59,8.59,0,0,0-3.35,6.76,8.78,8.78,0,0,0,7.72,8.62c.09.23.18.47.27.7,14.91,9.52,33.8,8.54,49.63,1.22C174.52,123,151.9,123.39,143.7,104.27Z"/><path class="cls-4" d="M196.79,108.63l1.51-1.57A5.27,5.27,0,0,0,196.79,108.63Z"/><path class="cls-9" d="M207.11,107.71a8.49,8.49,0,0,0-1.83-5.27,4.49,4.49,0,0,0,.78-2.52,4.66,4.66,0,0,0-4.35-4.58c0-.41.06-.82.07-1.23-11.5,5-25.61,5.9-37.61,5,12.32,5.8,25.75-1.48,38.52,1.63,1.39,0-1.81,3.57-4.39,6.29a4.29,4.29,0,0,1,4.39-.17,7.18,7.18,0,0,1,1.46,7.25A8.56,8.56,0,0,0,207.11,107.71Z"/><path class="cls-10" d="M157.47,50.33A46.91,46.91,0,0,0,149,62a10,10,0,0,0-6.17-2.1l-.63,0,1.52,2.53,6.63.06s4.4-.9,4.27-5A11.27,11.27,0,0,1,157.47,50.33Z"/><path class="cls-10" d="M150.39,62.52c-.45-.17-.91-.32-1.36-.5a10,10,0,0,0-6.17-2.1l-.63,0,1.52,2.53Z"/><path class="cls-1" d="M637.81,31c0-6.31,0-13.4-1.85-18.46-3.76,3.57-3.84,17.25-4.43,22.8-1.45,13.69-1.61,27.46-2,41.25-.68,23.78,1,50.93-4.57,73.84-1.41,5.87-5.13,11.09-8.47,15.17s-8.67,6-11.53,9.76c3.51,1.65,7.61.53,11.12-.65,1-.35,10.95-3.93,10.91-5.1.1,3.44,1.7,7.5,3,10.34,1.45-3.1,2.79-7,4.3-10.23-1.55,3.32,21.29,8.15,23,9.2-1.51-5.7-7.19-8.39-9.75-13.26-2.76-5.3-4.26-11.56-5.17-17.83-5.27-36.55-3.61-74.53-4.52-111.56C637.8,34.67,637.81,32.88,637.81,31Z"/><path class="cls-2" d="M639.75,152.84A45.05,45.05,0,0,0,654,177.9a20.93,20.93,0,0,1,3.23,1.06c-1.51-5.7-7.19-8.39-9.75-13.26-2.76-5.3-4.26-11.56-5.17-17.83-5.27-36.55-3.61-74.53-4.52-111.56,0-1.65,0-3.43,0-5.28,0-2.9,0-5.95-.18-8.9A376.47,376.47,0,0,0,639.75,152.84Z"/><path class="cls-3" d="M635.68,152.84c-9.34-46.62-.84-93.23-.06-139.85-3.41,4.07-3.51,17-4.08,22.39-1.45,13.69-1.61,27.46-2,41.25-.68,23.78,1,50.93-4.57,73.84-1.41,5.87-5.13,11.09-8.47,15.17s-8.49,5.92-11.39,9.58c7.84-.25,16.35-9.3,23.24-13.3a19,19,0,0,0-1.61,8.14c.17-.16.26-.29.26-.41.1,3.44,1.7,7.5,3,10.34l.17-.38c-1.27-5.79-.49-12.88,1.41-18.82,0,4,.65,7.17,2.52,9.42l.2-.44a.8.8,0,0,0,0,.64c.18.2.36.41.56.6-.2-.19-.37-.39-.56-.6.86,2.27,10.86,5,17.41,6.86C644.16,172.29,638.15,164.88,635.68,152.84Z"/><path class="cls-4" d="M604,103.8a6,6,0,0,0-2,4.5,5.93,5.93,0,0,0,.15,1.27,60.58,60.58,0,0,0,10-7.06A56.82,56.82,0,0,1,600.87,97,73.31,73.31,0,0,0,604,103.8Z"/><path class="cls-6" d="M606.24,114.08A57.82,57.82,0,0,0,616.92,108c1.29-1,2.53-2,3.74-3.07a60.45,60.45,0,0,1-8.46-2.38,60.58,60.58,0,0,1-10,7.06A6.2,6.2,0,0,0,606.24,114.08Z"/><path class="cls-7" d="M620.65,104.89c-1.2,1.06-2.44,2.09-3.74,3.07a57.82,57.82,0,0,1-10.68,6.12,6.42,6.42,0,0,0,4.52-.11c.27.33.53.66.81,1a8.22,8.22,0,0,0-1.11,4.12,8.51,8.51,0,0,0,6.45,8.17c10.58-4.22,20.3-12.42,27.76-21.87A69.12,69.12,0,0,1,620.65,104.89Z"/><path class="cls-8" d="M669,104.11a74.06,74.06,0,0,0,3.82-8.42,83.92,83.92,0,0,1-28.16,9.69c-7.47,9.45-17.18,17.65-27.76,21.87a9,9,0,0,0,2.26.3,8.81,8.81,0,0,0,5.89-2.24,27.78,27.78,0,0,0,22.1.42,8.8,8.8,0,0,0,6.31,2.64,8.59,8.59,0,0,0,8.72-8.46,8.25,8.25,0,0,0-.23-1.91,8.11,8.11,0,0,0,2.9.55,7.9,7.9,0,0,0,8-7.78A7.73,7.73,0,0,0,669,104.11Z"/><path class="cls-10" d="M657.4,124.28c-11.25-8.16-20.24,1.17-32.61-2.33-4.5-1.17-9-5.83-5.62-11.65-5.62,0-11.25-1.17-10.12-8.16a3.63,3.63,0,0,1,.69-.56A57.23,57.23,0,0,1,600.87,97,73.31,73.31,0,0,0,604,103.8a6,6,0,0,0-2,4.5,6.24,6.24,0,0,0,6.33,6.14,6.45,6.45,0,0,0,2.41-.47c.27.33.53.66.81,1a8.22,8.22,0,0,0-1.11,4.12,8.59,8.59,0,0,0,8.72,8.46,8.81,8.81,0,0,0,5.89-2.24,27.78,27.78,0,0,0,22.1.42,8.8,8.8,0,0,0,6.31,2.64,8.59,8.59,0,0,0,8.71-8.33A8.35,8.35,0,0,0,657.4,124.28Z"/><path class="cls-9" d="M666.4,108c6.1.7,4,6.07-.31,10.47a7.85,7.85,0,0,0,6.78-7.68,7.73,7.73,0,0,0-3.86-6.64,74.06,74.06,0,0,0,3.82-8.42,82,82,0,0,1-36.41,10.46C645.75,109.86,656.88,106,666.4,108Z"/><path class="cls-4" d="M657.4,124.28c.05-.11.11-.2.16-.3l-.42.12Z"/><path class="cls-4" d="M688.11,53.71A13,13,0,0,0,676.58,41c-.09-.41-.18-.83-.27-1.24a8.23,8.23,0,0,0,6.18-7.88,8.32,8.32,0,0,0-8.43-8.19,8.59,8.59,0,0,0-3,.53c-.47-1,.3.54-.21-.45-18.63-25.57-42.72-37.15-62.53-.28a13.4,13.4,0,0,0-8.23-2.81A13,13,0,0,0,586.9,33.51a12.78,12.78,0,0,0,7,11.33,8.09,8.09,0,0,0,.61,14.76c0,.86,0,1.72,0,2.58,0,.15,0,.31,0,.46,9,6.4,21.07,9.41,31.48,10.19,16.53,1.46,36.58.47,52.76-6.53,0-.1,0-.2,0-.3A12.89,12.89,0,0,0,688.11,53.71Z"/><path class="cls-10" d="M603.49,59.76c-4.5-1.17-4.5-9.32,0-11.65,2,0,4.8-1.79,7.74-1.45C606,45.41,601.07,43,599,37.62c-1.62-6.72,4.35-12.22,11.17-13.47-.6-.22-1.22-.43-1.81-.67a13.4,13.4,0,0,0-8.23-2.81A13,13,0,0,0,586.9,33.51a12.78,12.78,0,0,0,7,11.33,8.09,8.09,0,0,0,.61,14.76c0,.86,0,1.72,0,2.58,0,.15,0,.31,0,.46,9,6.4,21.07,9.41,31.48,10.19,16.53,1.46,36.58.47,52.76-6.53,0-.1,0-.2,0-.3a13,13,0,0,0,9.08-9.66C667.23,75.36,627.67,70.36,603.49,59.76Z"/><path class="cls-9" d="M676.58,41c-.09-.41-.18-.83-.27-1.24a8.23,8.23,0,0,0,6.18-7.88,8.32,8.32,0,0,0-8.43-8.19c-14,0-24.23,4.74-39.06,4.72,12.11,3.41,25.44-3.12,37.1-.1,4.5,1.17,1.12,11.65-5.62,15.15,7.53-.65,16.09,3.41,21.62,9.76A13,13,0,0,0,676.58,41Z"/><path class="cls-5" d="M616.92,27.09c-1.92-.93-5-2.75-7-2.9s-4.67,1.54-6.18,2.59c-3.08,2.15-6.35,6.72-4.76,10.83,2.08,5.39,7.06,7.79,12.24,9a5.83,5.83,0,0,1,1.25.28l-1.25-.28c-2.94-.34-5.77,1.45-7.74,1.45-4.27,2.21-4.71,6.2-2.58,10.29,3.48,6.71,13.46,6.65,19.78,8.16,2.7.64,5.24,1.19,7.74,1.54,1.67.24,4.9.75,6.49.32-3.56-3-8.84-4-12.74-6.72-2.34-1.62-6-4.15-6.14-7.42-.19-3.64,4.26-3.89,6.69-4.62-3.08-1.94-5.94-2.55-8.38-5.45a20.42,20.42,0,0,1-4.26-8.2c-.61-2.17-1-5.31.56-7.15C612.33,26.85,614.58,27.26,616.92,27.09Z"/><path class="cls-6" d="M643.85,29.4a31.62,31.62,0,0,1-7.83-.76,92.25,92.25,0,0,1-.51,39.71c2.76.34,5.53.57,8.3.7A93.51,93.51,0,0,0,643.85,29.4Z"/><path class="cls-7" d="M656,28.19a113.35,113.35,0,0,1-12.15,1.21,93.51,93.51,0,0,1,0,39.64,87.26,87.26,0,0,0,17.3-.84A90.86,90.86,0,0,0,656,28.19Z"/><path class="cls-8" d="M688.11,53.71c0-.17,0-.34,0-.51-5.53-6.35-14.1-10.41-21.62-9.76,6.75-3.5,10.12-14,5.62-15.15C667,27,661.52,27.49,656,28.19a90.86,90.86,0,0,1,5.11,40c10.22-1.6,19.6-5.3,26.71-11.88A12.54,12.54,0,0,0,688.11,53.71Z"/><path class="cls-4" d="M632.72,75.2c.24-.63.47-1.28.7-1.92-2.54-.09-5-.25-7.44-.46C615.56,72,603.46,69,594.5,62.64q0,2.36.13,4.68a4.55,4.55,0,0,0,.12,8.34,11.46,11.46,0,0,0-4.48,9,11.71,11.71,0,0,0,10.31,11.51c.12.31.24.63.36.94a57.23,57.23,0,0,0,12.95,6.12A75.68,75.68,0,0,0,632.72,75.2Z"/><path class="cls-5" d="M614,72.25c-3.11-1.74-6.59-2.75-9.75-4.35-1.29-.65-9.71-3.66-9.71-5.26q0,2.36.13,4.68a4.55,4.55,0,0,0,.12,8.34,11.46,11.46,0,0,0-4.48,9,11.71,11.71,0,0,0,10.31,11.51c.12.31.24.63.36.94a54.34,54.34,0,0,0,10.92,5.41c2.36.84,2.59,0,4.51-1.35a9.66,9.66,0,0,1,3.16-1.76c-2.84-3-14.68-15.43-6.17-18.2-2.1-1.35-6.08-3.11-5.93-6C607.59,71.91,611.49,71.43,614,72.25Z"/><path class="cls-6" d="M633.42,73.29c-.23.64-.45,1.28-.7,1.92a75.68,75.68,0,0,1-18.84,28,61.11,61.11,0,0,0,8.65,2.16,73.36,73.36,0,0,0,19.57-32C639.17,73.42,636.26,73.39,633.42,73.29Z"/><path class="cls-7" d="M642.11,73.36a73.36,73.36,0,0,1-19.57,32,70.26,70.26,0,0,0,24-.15,79.1,79.1,0,0,0,8.71-14.9,86.44,86.44,0,0,0,5.18-18.73A120.77,120.77,0,0,1,642.11,73.36Z"/><path class="cls-8" d="M683.42,77.42a6,6,0,0,0,1-3.36,6.21,6.21,0,0,0-5.81-6.12c0-.55.07-1.09.1-1.65a82.36,82.36,0,0,1-18.34,5.33,86.44,86.44,0,0,1-5.18,18.73,79.1,79.1,0,0,1-8.71,14.9A84.28,84.28,0,0,0,672.66,96c.4,0,.81.06,1.22.06a11.78,11.78,0,0,0,12-11.58A11.33,11.33,0,0,0,683.42,77.42Z"/><path class="cls-10" d="M601.24,79.86c1.13,0,2.25-2.33,3.37-1.17-3.37-3.5-5.62-7-4.5-11.65a2.49,2.49,0,0,1,.55-.75,44.8,44.8,0,0,1-6.16-3.65q0,2.36.13,4.68a4.55,4.55,0,0,0,.12,8.34,11.46,11.46,0,0,0-4.48,9,11.71,11.71,0,0,0,10.31,11.51c.12.31.24.63.36.94,19.9,12.7,45.1,11.4,66.24,1.62C642.36,104.83,612.18,105.38,601.24,79.86Z"/><path class="cls-4" d="M672.08,85.69l2-2.1A7,7,0,0,0,672.08,85.69Z"/><path class="cls-9" d="M685.86,84.46a11.33,11.33,0,0,0-2.44-7,6,6,0,0,0,1-3.36,6.21,6.21,0,0,0-5.81-6.12c0-.55.07-1.09.1-1.65-15.35,6.65-34.18,7.87-50.19,6.73C645,80.76,662.92,71,680,75.2c1.86,0-2.42,4.76-5.86,8.39a5.73,5.73,0,0,1,5.86-.23A9.58,9.58,0,0,1,681.9,93,11.43,11.43,0,0,0,685.86,84.46Z"/><path class="cls-10" d="M619.62,7.88a62.61,62.61,0,0,0-11.27,15.6,13.4,13.4,0,0,0-8.23-2.81l-.84,0,2,3.37,8.85.07s5.88-1.2,5.69-6.63C615.68,12.43,619.18,8.37,619.62,7.88Z"/><path class="cls-10" d="M610.16,24.15c-.6-.22-1.22-.43-1.81-.67a13.4,13.4,0,0,0-8.23-2.81l-.84,0,2,3.37Z"/><path class="cls-1" d="M579.43,58.09c0-5.25,0-11.14-1.65-15.35-3.35,3-3.43,14.34-3.95,19-1.29,11.38-1.43,22.84-1.78,34.3-.61,19.78.85,42.35-4.07,61.41-1.26,4.88-4.57,9.22-7.55,12.62s-7.73,5-10.28,8.12c3.13,1.37,6.78.44,9.9-.54.92-.29,9.76-3.27,9.72-4.24.09,2.86,1.51,6.23,2.7,8.6,1.29-2.57,2.49-5.82,3.83-8.51-1.38,2.76,19,6.78,20.46,7.65-1.34-4.74-6.41-7-8.69-11a44.49,44.49,0,0,1-4.6-14.83c-4.7-30.4-3.22-62-4-92.77C579.43,61.1,579.43,59.62,579.43,58.09Z"/><path class="cls-2" d="M581.16,159.37a37,37,0,0,0,12.74,20.85,19.57,19.57,0,0,1,2.88.88c-1.34-4.74-6.41-7-8.69-11a44.49,44.49,0,0,1-4.6-14.83c-4.7-30.4-3.22-62-4-92.77,0-1.37,0-2.85,0-4.39,0-2.41,0-4.95-.16-7.4A292.54,292.54,0,0,0,581.16,159.37Z"/><path class="cls-3" d="M577.53,159.37c-8.32-38.77-.75-77.53-.06-116.3-3,3.39-3.13,14.15-3.64,18.62-1.29,11.38-1.43,22.84-1.78,34.3-.61,19.78.85,42.35-4.07,61.41-1.26,4.88-4.57,9.22-7.55,12.62s-7.57,4.93-10.15,8c7-.21,14.57-7.74,20.71-11.06a14.89,14.89,0,0,0-1.44,6.77c.15-.13.23-.24.23-.34.09,2.86,1.51,6.23,2.7,8.6l.15-.32c-1.14-4.81-.43-10.71,1.26-15.65,0,3.36.58,6,2.24,7.83l.18-.37a.63.63,0,0,0,0,.53c.16.17.32.34.5.5-.18-.16-.33-.33-.5-.5.77,1.89,9.68,4.19,15.51,5.7A30.2,30.2,0,0,1,577.53,159.37Z"/><path class="cls-4" d="M561.25,27.22c-4.63,0-8.39,3.41-8.39,7.61a6.93,6.93,0,0,0,.44,2.41l-.56,0a5.39,5.39,0,0,0-5.64,5.11,5.15,5.15,0,0,0,3.6,4.76C550.1,48,549.51,49,549,50a65.5,65.5,0,0,0,28.46,5.88A90,90,0,0,0,566,28.55,8.93,8.93,0,0,0,561.25,27.22Z"/><path class="cls-5" d="M561.25,27.22c-4.63,0-8.39,3.41-8.39,7.61a6.93,6.93,0,0,0,.44,2.41l-.56,0a5.39,5.39,0,0,0-5.64,5.11,5.15,5.15,0,0,0,3.6,4.76C550.1,48,549.51,49,549,50a65.5,65.5,0,0,0,28.46,5.88c-.28,0-.51-2.83-.69-3.18A4.84,4.84,0,0,0,574.9,51c-1.62-1.05-3.56-1.55-5.17-2.62-3.39-2.27-5.49-6-.06-7.1-3.09-1.68-7.89-2.44-9-6.34s3.7-4.7,6.56-4.87C565.29,28.39,564.06,27.22,561.25,27.22Z"/><path class="cls-6" d="M571.63,30.18a28.14,28.14,0,0,0-3,1A8,8,0,0,0,566,28.55,90,90,0,0,1,577.42,55.9c2.22,0,4.45-.12,6.68-.32A72.8,72.8,0,0,0,571.63,30.18Z"/><path class="cls-7" d="M575.27,29.46a26.79,26.79,0,0,0-3.64.72A72.8,72.8,0,0,1,584.1,55.57,83.27,83.27,0,0,0,594.2,54,67.64,67.64,0,0,0,575.27,29.46Z"/><path class="cls-8" d="M610.47,43.45c0-4.2-3.76-7.61-8.39-7.61A9,9,0,0,0,597.65,37l-.11-.09a5.09,5.09,0,0,0,3.16-4.58,5.39,5.39,0,0,0-5.64-5.11,5.47,5.47,0,0,0-5.59,4.47,26.86,26.86,0,0,0-11.07-2.43,25.67,25.67,0,0,0-3.14.2A67.64,67.64,0,0,1,594.2,54a82.31,82.31,0,0,0,13.58-4.17c-.11-.2-.22-.38-.33-.57A7.33,7.33,0,0,0,610.47,43.45Z"/><path class="cls-9" d="M602.08,35.85A9,9,0,0,0,597.65,37l-.11-.09a5.09,5.09,0,0,0,3.16-4.58,5.39,5.39,0,0,0-5.64-5.11,5.47,5.47,0,0,0-5.59,4.47c.07-.47-6.82-2.45-7.86-2.62-2.52-.43-6.49-.43-8.69,1,4.73-1.4,14.51,1.52,17.2,5.59-1.27-1.92,2-5,4-4.46,3.94,1,2.58,7,1,9.3,1.06-1.52,6.62-1.19,8.38-.94A7.56,7.56,0,0,1,610,44.91c.06.22.11.45.15.67a6.83,6.83,0,0,0,.35-2.12C610.47,39.25,606.71,35.85,602.08,35.85Z"/><path class="cls-10" d="M553.3,37.24l-.56,0a5.39,5.39,0,0,0-5.64,5.11,5.15,5.15,0,0,0,3.6,4.76C550.1,48,549.51,49,549,50c17.58,8.34,40.18,7.43,58.82-.15-.11-.2-.22-.38-.33-.57a7.8,7.8,0,0,0,2.1-2.4A12.75,12.75,0,0,1,605,48.78c-8.53,1.65-16.43,3.4-25.25,2.89-3.11-.18-23.36-2.71-20.78-8.41.65-1.43,3.61-2.35,4.93-2.53-2.71-1.13-7.95-2.55-7.92-6.14,0-5.17,7.62-5.95,11.35-5a8.8,8.8,0,0,0-6-2.33c-4.63,0-8.39,3.41-8.39,7.61A6.93,6.93,0,0,0,553.3,37.24Z"/><path class="cls-4" d="M549.35,118.6a4.89,4.89,0,0,0-1.81,3.74,4.61,4.61,0,0,0,.14,1.05,54.16,54.16,0,0,0,8.93-5.87,52.2,52.2,0,0,1-10.08-4.61A59.31,59.31,0,0,0,549.35,118.6Z"/><path class="cls-6" d="M551.3,127.15a52.6,52.6,0,0,0,9.52-5.09c1.15-.82,2.26-1.68,3.33-2.55a57,57,0,0,1-7.54-2,54.16,54.16,0,0,1-8.93,5.87A5.3,5.3,0,0,0,551.3,127.15Z"/><path class="cls-7" d="M564.15,119.5c-1.07.88-2.18,1.74-3.33,2.55a52.6,52.6,0,0,1-9.52,5.09,6.11,6.11,0,0,0,4-.09c.24.27.48.55.72.82a6.49,6.49,0,0,0-1,3.43,7.19,7.19,0,0,0,5.75,6.79c9.43-3.51,18.08-10.33,24.74-18.19A65.9,65.9,0,0,1,564.15,119.5Z"/><path class="cls-8" d="M607.23,118.85a59.7,59.7,0,0,0,3.41-7,78.42,78.42,0,0,1-25.09,8.06c-6.65,7.86-15.31,14.67-24.74,18.19a8.52,8.52,0,0,0,2,.25,8.18,8.18,0,0,0,5.24-1.86,26.38,26.38,0,0,0,19.69.35,8.13,8.13,0,0,0,5.62,2.19c4.29,0,7.77-3.15,7.77-7a6.45,6.45,0,0,0-.21-1.59,7.68,7.68,0,0,0,2.59.46c3.94,0,7.14-2.9,7.14-6.47A6.36,6.36,0,0,0,607.23,118.85Z"/><path class="cls-10" d="M596.89,135.62c-10-6.78-18,1-29.06-1.94-4-1-8-4.85-5-9.69-5,0-10-1-9-6.78a3.22,3.22,0,0,1,.62-.47,52.36,52.36,0,0,1-7.9-3.84,59.31,59.31,0,0,0,2.82,5.69,4.89,4.89,0,0,0-1.81,3.74,5.39,5.39,0,0,0,5.64,5.11,6.1,6.1,0,0,0,2.15-.39c.24.27.48.55.72.82a6.49,6.49,0,0,0-1,3.43c0,3.89,3.48,7,7.77,7a8.18,8.18,0,0,0,5.24-1.86,26.38,26.38,0,0,0,19.69.35,8.13,8.13,0,0,0,5.62,2.19c4.25,0,7.69-3.09,7.76-6.93A7.3,7.3,0,0,0,596.89,135.62Z"/><path class="cls-9" d="M604.9,122.06c5.44.58,3.58,5-.28,8.71a6.7,6.7,0,0,0,6-6.39,6.36,6.36,0,0,0-3.44-5.53,59.7,59.7,0,0,0,3.41-7,77,77,0,0,1-32.44,8.7C586.51,123.63,596.42,120.42,604.9,122.06Z"/><path class="cls-4" d="M596.89,135.62c0-.09.1-.16.14-.25l-.38.1Z"/><path class="cls-4" d="M624.25,76.94c0-5.43-4.48-9.91-10.27-10.57-.08-.34-.16-.69-.24-1a7,7,0,0,0,5.5-6.56c0-3.76-3.36-6.81-7.51-6.81a8.15,8.15,0,0,0-2.64.44c-.42-.86-.85-1.71-1.3-2.54-17.18,7-37.72,8.3-54.6,1.93a12.5,12.5,0,0,0-7.34-2.33c-6.5,0-11.77,4.78-11.77,10.67a10.59,10.59,0,0,0,6.25,9.42,6.75,6.75,0,0,0-4,6,6.83,6.83,0,0,0,4.54,6.26c0,.71,0,1.43,0,2.15,0,.13,0,.26,0,.38,8,5.32,18.77,7.82,28,8.47,14.73,1.21,32.59.39,47-5.43,0-.08,0-.17,0-.25C620.73,85.82,624.25,81.76,624.25,76.94Z"/><path class="cls-4" d="M555.75,71.08l1.12.24A5.53,5.53,0,0,0,555.75,71.08Z"/><path class="cls-10" d="M548.85,82c-4-1-4-7.75,0-9.69,1.76,0,4.28-1.49,6.9-1.2-4.62-1-9.05-3-10.91-7.52-1.44-5.58,3.87-10.16,10-11.2-.54-.18-1.08-.36-1.61-.56a12.5,12.5,0,0,0-7.34-2.33c-6.5,0-11.77,4.78-11.77,10.67a10.59,10.59,0,0,0,6.25,9.42,6.75,6.75,0,0,0-4,6,6.83,6.83,0,0,0,4.54,6.26c0,.71,0,1.43,0,2.15,0,.13,0,.26,0,.38,8,5.32,18.77,7.82,28,8.47,14.73,1.21,32.59.39,47-5.43,0-.08,0-.17,0-.25a11.15,11.15,0,0,0,8.09-8C605.65,94.95,570.4,90.79,548.85,82Z"/><path class="cls-9" d="M614,66.37c-.08-.34-.16-.69-.24-1a7,7,0,0,0,5.5-6.56c0-3.76-3.36-6.81-7.51-6.81a8.15,8.15,0,0,0-2.64.44c-.42-.86-.85-1.71-1.3-2.54a82.48,82.48,0,0,1-30.86,6c10.79,2.84,22.67-2.59,33.05-.08,4,1,1,9.69-5,12.6,6.7-.54,14.34,2.84,19.27,8.12C624,71.29,619.62,67,614,66.37Z"/><path class="cls-5" d="M560.82,54.81c-1.71-.77-4.43-2.28-6.23-2.41s-4.16,1.28-5.51,2.16c-2.74,1.79-5.65,5.59-4.24,9,1.86,4.48,6.29,6.48,10.91,7.52a5.53,5.53,0,0,1,1.12.24l-1.12-.24c-2.62-.28-5.14,1.2-6.9,1.2-3.8,1.84-4.2,5.15-2.3,8.56,3.1,5.58,12,5.53,17.63,6.78,2.41.53,4.66,1,6.89,1.28,1.49.2,4.36.63,5.79.26-3.17-2.47-7.87-3.35-11.35-5.59-2.09-1.34-5.32-3.45-5.47-6.17-.17-3,3.8-3.23,6-3.84-2.75-1.61-5.3-2.12-7.47-4.53a16.62,16.62,0,0,1-3.8-6.82c-.54-1.81-.86-4.42.5-5.95C556.73,54.6,558.73,55,560.82,54.81Z"/><path class="cls-6" d="M584.81,56.73a30.13,30.13,0,0,1-7-.64,71.72,71.72,0,0,1-.46,33c2.46.28,4.93.48,7.4.58A72.7,72.7,0,0,0,584.81,56.73Z"/><path class="cls-7" d="M595.64,55.72a108,108,0,0,1-10.83,1,72.7,72.7,0,0,1,0,33A83.16,83.16,0,0,0,600.2,89,70.89,70.89,0,0,0,595.64,55.72Z"/><path class="cls-8" d="M624.25,76.94c0-.14,0-.28,0-.42-4.93-5.28-12.56-8.66-19.27-8.12,6-2.91,9-11.63,5-12.6-4.56-1.1-9.41-.67-14.33-.09A70.89,70.89,0,0,1,600.2,89c9.11-1.33,17.46-4.41,23.8-9.88A9.77,9.77,0,0,0,624.25,76.94Z"/><path class="cls-4" d="M574.9,94.81c.22-.53.42-1.06.62-1.59-2.26-.08-4.48-.2-6.63-.38-9.28-.65-20.07-3.15-28-8.47q0,2,.11,3.89a3.69,3.69,0,0,0,.11,6.93,9.33,9.33,0,0,0-4,7.5c0,4.88,4,8.92,9.18,9.57.11.26.21.52.32.78a52.69,52.69,0,0,0,11.54,5.09A62.87,62.87,0,0,0,574.9,94.81Z"/><path class="cls-5" d="M558.18,92.36c-2.77-1.45-5.87-2.29-8.68-3.62-1.15-.54-8.65-3-8.65-4.38q0,2,.11,3.89a3.69,3.69,0,0,0,.11,6.93,9.33,9.33,0,0,0-4,7.5c0,4.88,4,8.92,9.18,9.57.11.26.21.52.32.78a49.91,49.91,0,0,0,9.73,4.5c2.1.7,2.31,0,4-1.13a8.8,8.8,0,0,1,2.82-1.46c-2.53-2.47-13.08-12.83-5.5-15.14-1.87-1.13-5.42-2.58-5.28-5C552.51,92.08,556,91.68,558.18,92.36Z"/><path class="cls-6" d="M575.52,93.22c-.2.53-.4,1.07-.62,1.59a62.87,62.87,0,0,1-16.79,23.32,57.67,57.67,0,0,0,7.71,1.79,60.46,60.46,0,0,0,17.44-26.65C580.64,93.34,578.05,93.31,575.52,93.22Z"/><path class="cls-7" d="M583.26,93.28a60.46,60.46,0,0,1-17.44,26.65,67,67,0,0,0,21.35-.12,64.89,64.89,0,0,0,7.76-12.39,68.19,68.19,0,0,0,4.62-15.58A115.09,115.09,0,0,1,583.26,93.28Z"/><path class="cls-8" d="M620.07,96.66a4.75,4.75,0,0,0,.92-2.8,5.34,5.34,0,0,0-5.18-5.09c0-.46.07-.91.09-1.37a77.43,77.43,0,0,1-16.34,4.43,68.19,68.19,0,0,1-4.62,15.58,64.89,64.89,0,0,1-7.76,12.39,78.67,78.67,0,0,0,23.31-7.72c.36,0,.72.05,1.09.05,5.88,0,10.66-4.3,10.67-9.63A9,9,0,0,0,620.07,96.66Z"/><path class="cls-10" d="M546.85,98.69c1,0,2-1.94,3-1-3-2.91-5-5.81-4-9.69a2.08,2.08,0,0,1,.49-.63,40.59,40.59,0,0,1-5.49-3q0,2,.11,3.89a3.69,3.69,0,0,0,.11,6.93,9.33,9.33,0,0,0-4,7.5c0,4.88,4,8.92,9.18,9.57.11.26.21.52.32.78,17.73,10.57,40.19,9.48,59,1.35C583.49,119.46,556.6,119.91,546.85,98.69Z"/><path class="cls-4" d="M610,103.54l1.79-1.74A6,6,0,0,0,610,103.54Z"/><path class="cls-9" d="M622.24,102.51a9,9,0,0,0-2.18-5.85,4.75,4.75,0,0,0,.92-2.8,5.34,5.34,0,0,0-5.18-5.09c0-.46.07-.91.09-1.37C602.22,92.93,585.45,94,571.18,93c14.65,6.43,30.62-1.65,45.8,1.81,1.65,0-2.15,4-5.22,7a5.42,5.42,0,0,1,5.22-.19,7.57,7.57,0,0,1,1.73,8.05A9.25,9.25,0,0,0,622.24,102.51Z"/></g></g></svg>