<svg xmlns="http://www.w3.org/2000/svg" viewBox="0 0 71.69 104.88"><defs><style>.cls-1{fill:#955523;}.cls-1,.cls-2,.cls-3,.cls-4,.cls-5,.cls-6,.cls-7,.cls-8,.cls-9{fill-rule:evenodd;}.cls-2{fill:#6c3e18;}.cls-3{fill:#c38031;}.cls-4{fill:#b69d31;}.cls-5{fill:#eaca1b;}.cls-6{fill:#a28c31;}.cls-7{fill:#8f7b2f;}.cls-8{fill:#7f6d2c;}.cls-9{fill:#ffdd96;}</style></defs><title>tree6</title><g id="Layer_2" data-name="Layer 2"><g id="Treeline_Front" data-name="Treeline Front"><polygon class="cls-1" points="31.08 76.78 29.86 83.37 29.86 90.48 30.04 102.88 35.59 104.88 40.47 102.88 38.03 90.48 38.38 84.42 38.38 73.09 31.77 73.35 31.08 76.78"/><polygon class="cls-2" points="36.17 93.08 37.9 102.88 40.47 102.88 38.03 90.48 38.38 84.42 38.38 73.09 36.81 73.15 35.59 86.13 36.17 93.08"/><polygon class="cls-3" points="31.29 83.09 32.82 73.31 31.77 73.35 31.08 76.78 29.86 83.37 29.86 90.48 30.04 102.88 31.82 102.88 32.44 91.78 31.29 83.09"/><path class="cls-4" d="M70.72,44.82c1-.43,1.32-1.5.46-2s-.4-.7-.4-1.55-1.42.57-1.76-.42.5-.73.57-1.68-.06-1.41-1.26-1.15h0a.7.7,0,0,1,.34-.49c.77-.48,1.68-1.17.3-1.93-.79-.43-.6-1.05.42-1.47s1.32-1.5.46-1.95-.4-.7-.4-1.55-1.42.57-1.76-.42.5-.73.57-1.68-.06-1.41-1.26-1.15-1.45.2-1.12-.51.12-1.43-.35-1.1a2.16,2.16,0,0,0-.48-.34c-.79-.43-.6-1.05.42-1.47s1.32-1.5.46-2-.4-.7-.4-1.55-1.42.57-1.76-.42.5-.73.57-1.68S64.22,17,63,17.24s-1.45.2-1.12-.51.08-1.62-.51-1-1.19-.41-1.8.05c-.38.29-1.15.15-1.61.27a.62.62,0,0,1,0-.46c.34-1,.8-.13,1.42-.76s.8-1.07-.22-1.84-1.17-1-.5-1.26,1-1.1.21-1.11-.62-1.24-1.33-1.39-1.51-1.9-2-.89l0,0C55.16,7.26,54,7.9,54,6.33,54,4.58,52.64,7,52.54,5s-1.09.34-2-1c-.6-.92-.77-.46-1.21-.31a2,2,0,0,1-.07-.54c0-1.74-1.37.71-1.47-1.31s-1.09.34-2-1-.85.26-2-.46S42.48,1.92,42,.91c-.29-.63-.71-.19-1.15.28-.53-.51-1-1.24-1.38-.5-.46,1-.62-1.26-1.81-.53s-1.15-.63-1.83.19C35.16-.48,35.1.81,34,.15S32.75,1,32.42.94a2.13,2.13,0,0,0-.23-.27c-.25-.53-.59-.27-1,.11A1,1,0,0,1,30.47.6c-1.19-.73-1.35,1.55-1.81.53s-1.25.73-2,.89c-.46.1-.54.64-.76,1a1,1,0,0,1-.77-.17c-1.19-.73-1.35,1.55-1.81.53s-1.25.73-2,.89-.52,1.39-1.33,1.39-.45.87.21,1.11.52.49-.5,1.26l0,0c-.7-.86-.75.46-1.85-.21s-1.35,1.55-1.8.54-1.25.73-2,.89-.52,1.39-1.33,1.39-.45.86.21,1.11.52.48-.5,1.26-.85,1.17-.3,1.76a.64.64,0,0,1-.59.41c-.5,0-.56.33-.36.64-.33.14-.65.28-1-.07-.59-.65-.85.26-.51,1s.09.77-1.12.51-1.33.2-1.26,1.15.91.69.57,1.68-1.76-.42-1.76.42.46,1.1-.4,1.55-.56,1.53.46,2,1.21,1,.42,1.47a2.15,2.15,0,0,0-.48.34c-.47-.33-.65.47-.35,1.1s.09.77-1.12.51-1.33.2-1.26,1.15.91.69.57,1.68-1.76-.42-1.76.42.46,1.1-.4,1.55-.56,1.53.46,1.95,1.21,1,.42,1.47c-1.39.76-.47,1.44.3,1.93a.7.7,0,0,1,.34.49h0c-1.2-.26-1.33.2-1.26,1.15s.91.69.57,1.68-1.76-.43-1.76.42.46,1.1-.4,1.55-.57,1.53.46,2,1.21,1,.42,1.47c-1.39.76-.47,1.45.3,1.93.53.33.31.86.39,1.3-.15,1.15.83,1.62,0,1.34-1.84-.66-.23,1.33-.23,1.33s-.23.13-.69,1.06.69,1.06.34,2-.69,2.12.8,1.72c.86-.23,1,.4.46,1.46s-.23,2.12.69,1.86.69.27,1.15.93c.13.19.25.15.38,0-1,1.18.35.92-.11,2.38s1.52,1.32.71,2c-.52.43,0,.86.44,1.32-.15.13-.22.27-.07.46.51.62,1,.43.64,1.44s.51,1.56,1.5,1,1.5-.21,1.19.73c-.55,1.64.51,1.42,1.35,1.16.32.39.91.81,1,1.27.23.79,1.27.4,1.38,1.33s.81.4.92-.4.35-.66,1.15.4,1.15.8,1.61,0a1.31,1.31,0,0,0,.1-1,1.07,1.07,0,0,0,.36-.12c.63-.34.67,0,.37,1.32s.09,1.54.92,1.53.69-.86,1.34-.61a.73.73,0,0,0,.44.64c0,.62-.57,1.44,0,1.48.74.06,1-.46,1.31.56s1.29.75,1.72-.4a2.29,2.29,0,0,1,.48-.83c.11.39-.3.72,0,1.36.38.85.7,1.16,1.6.21s1.14-1.05,1.18-.24.58,1.32.82.67c.42-.07.63-.21.89.59.33,1,1.29.75,1.72-.4a3.19,3.19,0,0,1,.31-.62,2.09,2.09,0,0,0,.14.32c.2.37.45,0,.74-.36a1.93,1.93,0,0,1,.11.27c.33,1,.69,1,1,.72a1.11,1.11,0,0,0,.1.43c.38.85.7,1.16,1.6.21.19-.2.35-.35.48-.48.22.1.48.13.7.22h0c0,.6.38,1.09.65.93.27.16.62-.33.65-.93h0c.22-.09.48-.12.7-.22.14.13.29.28.48.48.9.95,1.22.64,1.6-.21a1.07,1.07,0,0,0,.1-.43c.34.29.7.24,1-.72a1.82,1.82,0,0,1,.12-.27c.29.36.54.73.74.36a2,2,0,0,0,.14-.32,3.17,3.17,0,0,1,.31.62c.43,1.15,1.38,1.42,1.72.4.26-.79.47-.66.89-.59.24.65.79.08.82-.67s.28-.71,1.18.24,1.22.64,1.6-.21c.29-.64-.12-1,0-1.36a2.29,2.29,0,0,1,.48.83c.43,1.15,1.38,1.43,1.72.4s.58-.5,1.32-.56c.53,0,0-.86,0-1.48a.73.73,0,0,0,.44-.64c.65-.25.57.59,1.34.61s1.21-.16.92-1.53a7.47,7.47,0,0,1-.17-1,1.2,1.2,0,0,0,.85.18,1,1,0,0,0,.15.61c.46.8.81,1.06,1.61,0s1-1.19,1.15-.4.8,1.33.92.4S59.72,73.8,60,73s1.84-1.46,1-2.12c-.63-.52.42-.55.71-1.22l.16,0c1-.17.56-.93.77-1.36a1.47,1.47,0,0,1,.08.34c.12.8.81,1.33.92.4s1.15-.53,1.38-1.33,1.84-1.46,1-2.12,1.17-.53.71-2,.91-1.19-.11-2.38c.13.14.25.18.38,0,.46-.66.23-1.2,1.15-.93s1.26-.79.69-1.86-.39-1.69.46-1.46c1.5.4,1.15-.8.8-1.72s.8-1.06.34-2-.69-1.06-.69-1.06,1.61-2-.23-1.33c-.78.28.2-.2,0-1.34.08-.43-.13-1,.4-1.3.77-.48,1.68-1.17.3-1.93C69.51,45.86,69.7,45.24,70.72,44.82Z"/><path class="cls-5" d="M30.1,2.49a6.15,6.15,0,0,1,2.66-.72c-.37-.23-.69-.88-1-1.12a1.65,1.65,0,0,0,.3-.13c-.24-.31-.55-.07-.88.26A1,1,0,0,1,30.47.6c-1.19-.73-1.35,1.55-1.81.53s-1.25.73-2,.89c-.46.1-.54.64-.76,1a1,1,0,0,1-.77-.17c-1.19-.73-1.35,1.55-1.81.53s-1.25.73-2,.89-.52,1.39-1.33,1.39-.45.87.21,1.11.52.49-.5,1.26l0,0c-.7-.86-.75.46-1.85-.21s-1.35,1.55-1.8.54-1.25.73-2,.89-.52,1.39-1.33,1.39-.45.86.21,1.11.52.48-.5,1.26-.85,1.17-.3,1.76a.64.64,0,0,1-.59.41c-.5,0-.56.33-.36.64-.33.14-.65.28-1-.07-.59-.65-.85.26-.51,1s.09.77-1.12.51-1.33.2-1.26,1.15.91.69.57,1.68-1.76-.42-1.76.42.46,1.1-.4,1.55-.56,1.53.46,2,1.21,1,.42,1.47a2.15,2.15,0,0,0-.48.34c-.47-.33-.65.47-.35,1.1s.09.77-1.12.51-1.33.2-1.26,1.15.91.69.57,1.68-1.76-.42-1.76.42.46,1.1-.4,1.55-.56,1.53.46,1.95,1.21,1,.42,1.47c-1.39.76-.47,1.44.3,1.93a.7.7,0,0,1,.34.49h0c-1.2-.26-1.33.2-1.26,1.15s.91.69.57,1.68-1.76-.43-1.76.42.46,1.1-.4,1.55-.57,1.53.46,2,1.21,1,.42,1.47c-1.39.76-.47,1.45.3,1.93.53.33.31.86.39,1.3-.15,1.15.83,1.62,0,1.34H2.07c-1.73-.59-.17,1.35-.17,1.35s-.23.13-.69,1.06.69,1.06.34,2-.69,2.12.8,1.72c.86-.23,1,.4.46,1.46s-.23,2.12.69,1.86.69.27,1.15.93c.13.19.25.15.38,0a2.43,2.43,0,0,0-.24.31l0,0a1,1,0,0,0-.1.23v0a.5.5,0,0,0,0,.18v0a.51.51,0,0,0,.05.14l0,.07,0,.06a2.19,2.19,0,0,1,.14.25h0a1.19,1.19,0,0,1,.08.24v0a1.21,1.21,0,0,1,0,.31,2,2,0,0,1-.09.45c-.46,1.46,1.52,1.32.71,2-.52.43,0,.86.44,1.32-.15.13-.22.27-.07.46.51.62,1,.43.64,1.44s.51,1.56,1.5,1,1.5-.21,1.19.73c-.47,1.41.25,1.45,1,1.26a2.63,2.63,0,0,1-.82-2.57c-.37-.05-.82-.42-1.06-.46a1.87,1.87,0,0,1,.75-.39c-1.7-2.47,2.61-1,3.16-1,.37,2.28,3.44,1.24,4.6,1.16.27,0,.21.68.68.62s.87-.68,1.29-.82a13.46,13.46,0,0,1,3.56-.75c.31-.43.67-.81,1-1.27a17.27,17.27,0,0,1-3.12-.18,1.82,1.82,0,0,0,.49-.24c-2.78-.19-5.62.31-8-1.36-.59-.42,0-1.25-.49-1.57-.81-.58-2.1.15-3.06-.16A6.25,6.25,0,0,1,9.7,62c-.86.19-1.62,0-1.52-1.09-2.29-.43-1-2.44.55-2.9-1.05.19-2.53.3-3.37-.33a17.17,17.17,0,0,0,1.31-1.25c-.37-.14-.74-.64-1.06-.78a3.53,3.53,0,0,1,2.83-1.06c-.65-.2-.63-.67-1-1.07.45-.21.8-.71,1.41-.7a2.91,2.91,0,0,1-2.39-.9A8.4,8.4,0,0,1,9,50.42c-2.94-1.25.57-2.72,1.71-2.92-.43-.23-.58-.66-.78-.84.25,0,.52,0,.79,0a2.06,2.06,0,0,1-1.86-1,5.65,5.65,0,0,1,3-1c-.52,0-1-.45-1.32-.62A3.69,3.69,0,0,1,14,42.63a1,1,0,0,0-.21-.16,9.73,9.73,0,0,0,2.46-.26,9.23,9.23,0,0,0-.95-.06,7.29,7.29,0,0,0,0-.82c-.89.1-1.86.3-2.51-.33.37-.42.63-1,1.15-1.19-2,.35-4.56,1.22-6.59.73.22-.09.61-.57.9-.73-.23-.24-.31-.75-.46-.95.35-.14.71-.59,1.14-.65-.2-.06-.74-.47-1-.54a5.44,5.44,0,0,0,.8-.45c-.1-.15-.28-.67-.37-.78A6.51,6.51,0,0,0,10,36.28c-.34-.36-.54-1.1-.84-1.47A24.45,24.45,0,0,0,11.87,33c-1.1-1.81-1.55-2.19.56-3.51-1.29-.24-1.08-1.31-.74-2.25,1-.08,2.21.28,3.11-.2.43-.22.49-1.13,1-1.31,1.3-.43,1.64.78,2.9,1.32a4.49,4.49,0,0,1-1-.65c1.95-.78,4-1.24,6-2a1.75,1.75,0,0,1-2.11-1,7.69,7.69,0,0,0,.74-1c-1.09-.14-2.94-.3-2.35-2a2.93,2.93,0,0,1-2.09-.36c.39-.22.89-.85,1.33-1-.42-.19-.59-.75-.83-.94a6.4,6.4,0,0,1,1.68-1.23,3.26,3.26,0,0,1-2.35-.64c.37-.26.6-.94,1-1.2-.16-.18-.32-.67-.45-.83.31,0,.68-.4,1.12-.39-.08-.58.24-.86.29-1.22A12.28,12.28,0,0,1,21,13.71c-.58-2.86,3.46-.9,4.56-.72-.2-1.08-.31-2.18.88-2.33-.65-.09-.82-.62-1.21-.93.92-.7,2.48-.55,3.61-.56-.48-.69-1.43-.65-2.13-1.19.15,0,.49-.15.73-.18a4.14,4.14,0,0,1-1.29-1.18c.32,0,.63-.2,1-.23a1.24,1.24,0,0,1-1.23-1.24,8.76,8.76,0,0,1,3.63-.35c-.34-.18-.57-.57-.87-.78a4.2,4.2,0,0,1,2.13-.87C30.49,3,30.31,2.66,30.1,2.49Z"/><path class="cls-6" d="M70.72,44.82c1-.43,1.32-1.5.46-2s-.4-.7-.4-1.55-1.42.57-1.76-.42.5-.73.57-1.68-.06-1.41-1.26-1.15h0a.7.7,0,0,1,.34-.49c.77-.48,1.68-1.17.3-1.93-.79-.43-.6-1.05.42-1.47s1.32-1.5.46-1.95-.4-.7-.4-1.55-1.42.57-1.76-.42.5-.73.57-1.68-.06-1.41-1.26-1.15-1.45.2-1.12-.51.12-1.43-.35-1.1a2.16,2.16,0,0,0-.48-.34c-.79-.43-.6-1.05.42-1.47s1.32-1.5.46-2-.4-.7-.4-1.55-1.42.57-1.76-.42.5-.73.57-1.68S64.22,17,63,17.24s-1.45.2-1.12-.51.08-1.62-.51-1-1.19-.41-1.8.05c-.38.29-1.15.15-1.61.27a.62.62,0,0,1,0-.46c.34-1,.8-.13,1.42-.76s.8-1.07-.22-1.84-1.17-1-.5-1.26,1-1.1.21-1.11-.62-1.24-1.33-1.39-1.51-1.9-2-.89l0,0C55.16,7.26,54,7.9,54,6.33,54,4.58,52.64,7,52.54,5s-1.09.34-2-1c-.6-.92-.77-.46-1.21-.31a2,2,0,0,1-.07-.54c0-1.74-1.37.71-1.47-1.31s-1.09.34-2-1-.85.26-2-.46a.71.71,0,0,0-.69-.09l.05.07c-.35.87-.36,1.06.31,1.71A14.66,14.66,0,0,1,43,3.63c-.8.08-1.6,0-2.4.07-.13,1.62-1.67,1-2.73.86A8.81,8.81,0,0,0,36,4.31c-.51.06-1,.61-1.67.49a1.45,1.45,0,0,1,.25.4c-.07.31-.34.34-.31.69.23,0,.63.22.93.22-.47,3,4.42-.16,5.08,2.17.81-.08,1.6-.4,2.4-.4,0,.21,0,.39,0,.6a3,3,0,0,0,2.05.05c.07.19,0,.41.09.61a12.69,12.69,0,0,1,1.59.74.33.33,0,0,0-.08.36,6.15,6.15,0,0,0,2.17-.09.24.24,0,0,0-.07.31,10.46,10.46,0,0,1,1.31-.06c-.2.81-.73.82-1,1.25-.1.18-.95.37-1.17.62-.07.08.15.57,0,.66-1.26,1.12-2.27,1.24-4,2,0,.23-.09.61-.07.84a7.49,7.49,0,0,1-1.85.24,6.72,6.72,0,0,0,.15.82c-1,.09-2,0-3,.06.55,1.9,1.85.76,3.06,1.12.7.2,1.79,1.58,2.51,1.69a18.94,18.94,0,0,0,2.67,0c2.06,0,2.44,1,4.34,1.62-.34.4-.47,1.36-.68,1.71.36,0,.89.47,1.26.49-.74,2.58-1.63,2.15-3.78,3.06-1,.44-2.87,1.81-4.21,2.5.27.21.44.61.72.81-1.63,1.84-4.47,1.89-6.6,1.76.63,1.24-2.7.83-3.35,1.11-1.27.55-2.3,2.72,0,2.24-2.13,2.52-.62,2.08,1.53,3.33.39.23.52,1,1.12,1.24,1.11.45,2.27.15,3.41.34.4,1.91,2.82.05,3.9.14s2,1.06,3.45,1.17a1.66,1.66,0,0,0,.33,2c-.48.26-.84.95-1.26,1.26.19.18.32.55.48.72A5.18,5.18,0,0,0,46.31,47a.43.43,0,0,1,.26.47c-1.2.5-2.55.53-3.68,1.19C43.81,51.07,41,51,39.6,50.94c-.79,2.74-4-.86-5.19-.08-2.08,1.38,1.12,2.53,1.52,2.92a3.71,3.71,0,0,0-.56.42c.4,1.23,1.67,1.38,2.74,1.42-1.46,2.08-1.6,2.24-4,2,.07.1.2.09.3.21a10,10,0,0,0-2,1.91c-.26.26.15.64-.08.92-.64.74-2.2.91-3,1.37A9.37,9.37,0,0,0,30,64.39c-.94.78-2,1.35-3,2,.2.44.12,1.1.49,1.54-.78.93-2.47,1.27-2.09,2.77a41.1,41.1,0,0,0-5,1.41,9.27,9.27,0,0,0-2.66,1c.11.12.07.47-.06,1.1a1.77,1.77,0,0,1,.09.31l-.19.18c-.21,1.17.17,1.34,1,1.33s.69-.86,1.34-.61a.73.73,0,0,0,.44.64c0,.62-.57,1.44,0,1.48.74.06,1-.46,1.31.56s1.29.75,1.72-.4a2.29,2.29,0,0,1,.48-.83c.11.39-.3.72,0,1.36.38.85.7,1.16,1.6.21s1.14-1.05,1.18-.24.58,1.32.82.67c.42-.07.63-.21.89.59.33,1,1.29.75,1.72-.4a3.19,3.19,0,0,1,.31-.62,2.09,2.09,0,0,0,.14.32c.2.37.45,0,.74-.36a1.93,1.93,0,0,1,.11.27c.33,1,.69,1,1,.72a1.11,1.11,0,0,0,.1.43c.38.85.7,1.16,1.6.21.19-.2.35-.35.48-.48.22.1.48.13.7.22h0c0,.6.38,1.09.65.93.27.16.62-.33.65-.93h0c.22-.09.48-.12.7-.22.14.13.29.28.48.48.9.95,1.22.64,1.6-.21a1.07,1.07,0,0,0,.1-.43c.34.29.7.24,1-.72a1.82,1.82,0,0,1,.12-.27c.29.36.54.73.74.36a2,2,0,0,0,.14-.32,3.17,3.17,0,0,1,.31.62c.43,1.15,1.38,1.42,1.72.4.26-.79.47-.66.89-.59.24.65.79.08.82-.67s.28-.71,1.18.24,1.22.64,1.6-.21c.29-.64-.12-1,0-1.36a2.29,2.29,0,0,1,.48.83c.43,1.15,1.38,1.43,1.72.4s.58-.5,1.32-.56c.53,0,0-.86,0-1.48a.73.73,0,0,0,.44-.64c.65-.25.57.59,1.34.61s1.21-.16.92-1.53a7.47,7.47,0,0,1-.17-1,1.2,1.2,0,0,0,.85.18,1,1,0,0,0,.15.61c.46.8.81,1.06,1.61,0s1-1.19,1.15-.4.8,1.33.92.4S59.72,73.8,60,73s1.84-1.46,1-2.12c-.63-.52.42-.55.71-1.22l.16,0c1-.17.56-.93.77-1.36a1.47,1.47,0,0,1,.08.34c.12.8.81,1.33.92.4s1.15-.53,1.38-1.33,1.84-1.46,1-2.12,1.17-.53.71-2,.91-1.19-.11-2.38c.13.14.25.18.38,0,.46-.66.23-1.2,1.15-.93s1.26-.79.69-1.86-.39-1.69.46-1.46c1.5.4,1.15-.8.8-1.72s.8-1.06.34-2-.69-1.06-.69-1.06,1.61-2-.23-1.33c-.78.28.2-.2,0-1.34.08-.43-.13-1,.4-1.3.77-.48,1.68-1.17.3-1.93C69.51,45.86,69.7,45.24,70.72,44.82Z"/><path class="cls-7" d="M70.72,44.82c1-.43,1.32-1.5.46-2s-.4-.7-.4-1.55-1.42.57-1.76-.42.5-.73.57-1.68-.06-1.41-1.26-1.15h0a.7.7,0,0,1,.34-.49c.77-.48,1.68-1.17.3-1.93-.79-.43-.6-1.05.42-1.47s1.32-1.5.46-1.95-.4-.7-.4-1.55-1.42.57-1.76-.42.5-.73.57-1.68-.06-1.41-1.26-1.15-1.45.2-1.12-.51.12-1.43-.35-1.1a2.16,2.16,0,0,0-.48-.34c-.79-.43-.6-1.05.42-1.47s1.32-1.5.46-2-.4-.7-.4-1.55-1.42.57-1.76-.42.5-.73.57-1.68S64.22,17,63,17.24s-1.45.2-1.12-.51.08-1.62-.51-1-1.19-.41-1.8.05c-.38.29-1.15.15-1.61.27a.62.62,0,0,1,0-.46c.34-1,.8-.13,1.42-.76s.8-1.07-.22-1.84-1.17-1-.5-1.26,1-1.1.21-1.11-.62-1.24-1.33-1.39-1.51-1.9-2-.89l0,0C55.16,7.26,54,7.9,54,6.33,54,4.58,52.64,7,52.54,5s-1.09.34-2-1c-.6-.92-.77-.46-1.21-.31a2,2,0,0,1-.07-.54c0-1.74-1.37.71-1.47-1.31,0-.06,0-.11,0-.17a2.54,2.54,0,0,1-1.46.52c.26,1.16.44,2.62,1.78,2.61a6.24,6.24,0,0,1,.56,1,5.51,5.51,0,0,1-1,0c-.2.06-.5.14-.12,0h.12l.13,0c-.72-.31-1.47-.54-2.21-.78,0,1.12,4.76,3,5.8,3.06a7.08,7.08,0,0,0-1,.63c.61.14,1.17.55,1.82.47a3.12,3.12,0,0,0-.49.4c.66,1.11,2.08.56,2.69,1.72a8.11,8.11,0,0,0-2.5.73c.25.07.79.41,1.1.49a7.54,7.54,0,0,0-1.22.48,5.42,5.42,0,0,0,1.6.84,6.18,6.18,0,0,0,2.32,2.4c-1.42-.15-2.61.65-4,.69a9.29,9.29,0,0,1,1.61.61c-.24.14-.47.29-.69.45.72.7,2,.64,3,.93a6,6,0,0,0-.52.62c1.33.79,3.25,1.34,4.11,2.82-.45,0-.94.43-1.29.48.36.33.72,1,1.14,1.3-1,0-1.72.69-2.79.79.09.22.15.36.24.56A15.33,15.33,0,0,1,54,26.91c.17,1.06-1,1.2-1.76,1.93.41.63.33,1,1.26,1.1a3.9,3.9,0,0,0-1.65.73,3.91,3.91,0,0,0,2.85.22l-.06,0c.06,0,.5-.17.38-.05l-.31.08c1.44.65,4.78.87,6.4.85a11.29,11.29,0,0,1-.47,1.5c-1,0-2,0-3,.05,0,.22,0,.4.06.62-1.48.66-2.88.51-4.31,1-1.66.53-2.66,1.4-4.49,1.22a.37.37,0,0,0,.07-.39,6.39,6.39,0,0,0-2.84.61l.54,0a5.53,5.53,0,0,1,1.26,0,7.19,7.19,0,0,1-1.26,0,2,2,0,0,0-1.11.5c1.73,1,4,.07,5.83.2l-.4.23c1.1.57,2.33.34,3.49.46-.13.34-.13.87-.21,1.09a6.29,6.29,0,0,0,2.87-.44,5.66,5.66,0,0,0-1.36,1.07,10.74,10.74,0,0,0,1.43.22c-4.06,3.19,2.66,3.27,3.73,5.94-.35.13-.68.63-1,.77.32.24.51.79.91,1-.15.06-.62.54-.92.62a3,3,0,0,0,1.23,1.65c-.61.44-1.22.87-1.84,1.28a7.43,7.43,0,0,0,.64.58,14.66,14.66,0,0,0-2.52,1c-1.93-1.05-6.61-1.53-8.78-.18a15.12,15.12,0,0,0,3.6.43c-.62.15-1.39.27-2,.48,1.07.91,2.38.58,3.37,1.64a35.3,35.3,0,0,0-5.31,1l.21.17-2.21,0a9.6,9.6,0,0,1,1.28.27,10.38,10.38,0,0,0-3.26,1.07c.38.16.75.47,1.15.61a6.8,6.8,0,0,0-3,.46c.35.22.71.73,1.13,1a8.07,8.07,0,0,1-3.77.86,5.13,5.13,0,0,1,.8.63c-.59.06-.94.7-1.34.88.42,1.26,4.42,1.34,5.54,1.36-.25.16-.59.65-.89.87a3.08,3.08,0,0,0,2.25.64c-.56-.07-.84.34-1.25.5a1.45,1.45,0,0,1,.05.62c-.41.15-.85.71-1.2.83.38.12.84.54,1.34.6.06,2.79-1.9,1-2.87.8A3.6,3.6,0,0,0,39,69a9.42,9.42,0,0,0,1.1,1.76,14,14,0,0,1-2.61-.54c.39.39.59,1,.93,1.42a5.81,5.81,0,0,0-2.41.25c.4.54.41,1,1.08,1.34-1.37-.06-2.68.25-3.79-.86a9,9,0,0,0-1.4,1.31A10.68,10.68,0,0,1,32,72.6c-1.17,1.56-.07,2.56-.47,4.15-.56,2.2-3.14,2.16-5,1.76.13.59.57.95.78.39.42-.07.63-.21.89.59.33,1,1.29.75,1.72-.4a3.19,3.19,0,0,1,.31-.62,2.09,2.09,0,0,0,.14.32c.2.37.45,0,.74-.36a1.93,1.93,0,0,1,.11.27c.33,1,.69,1,1,.72a1.11,1.11,0,0,0,.1.43c.38.85.7,1.16,1.6.21.19-.2.35-.35.48-.48.22.1.48.13.7.22h0c0,.6.38,1.09.65.93.27.16.62-.33.65-.93h0c.22-.09.48-.12.7-.22.14.13.29.28.48.48.9.95,1.22.64,1.6-.21a1.07,1.07,0,0,0,.1-.43c.34.29.7.24,1-.72a1.82,1.82,0,0,1,.12-.27c.29.36.54.73.74.36a2,2,0,0,0,.14-.32,3.17,3.17,0,0,1,.31.62c.43,1.15,1.38,1.42,1.72.4.26-.79.47-.66.89-.59.24.65.79.08.82-.67s.28-.71,1.18.24,1.22.64,1.6-.21c.29-.64-.12-1,0-1.36a2.29,2.29,0,0,1,.48.83c.43,1.15,1.38,1.43,1.72.4s.58-.5,1.32-.56c.53,0,0-.86,0-1.48a.73.73,0,0,0,.44-.64c.65-.25.57.59,1.34.61s1.21-.16.92-1.53a7.47,7.47,0,0,1-.17-1,1.2,1.2,0,0,0,.85.18,1,1,0,0,0,.15.61c.46.8.81,1.06,1.61,0s1-1.19,1.15-.4.8,1.33.92.4S59.72,73.8,60,73s1.84-1.46,1-2.12c-.63-.52.42-.55.71-1.22l.16,0c1-.17.56-.93.77-1.36a1.47,1.47,0,0,1,.08.34c.12.8.81,1.33.92.4s1.15-.53,1.38-1.33,1.84-1.46,1-2.12,1.17-.53.71-2,.91-1.19-.11-2.38c.13.14.25.18.38,0,.46-.66.23-1.2,1.15-.93s1.26-.79.69-1.86-.39-1.69.46-1.46c1.5.4,1.15-.8.8-1.72s.8-1.06.34-2-.69-1.06-.69-1.06,1.61-2-.23-1.33c-.78.28.2-.2,0-1.34.08-.43-.13-1,.4-1.3.77-.48,1.68-1.17.3-1.93C69.51,45.86,69.7,45.24,70.72,44.82Z"/><path class="cls-8" d="M70.72,44.82c1-.43,1.32-1.5.46-2s-.4-.7-.4-1.55-1.42.57-1.76-.42.5-.73.57-1.68-.06-1.41-1.26-1.15h0a.7.7,0,0,1,.34-.49c.77-.48,1.68-1.17.3-1.93-.79-.43-.6-1.05.42-1.47s1.32-1.5.46-1.95-.4-.7-.4-1.55-1.42.57-1.76-.42.5-.73.57-1.68-.06-1.41-1.26-1.15-1.45.2-1.12-.51.12-1.43-.35-1.1a2.16,2.16,0,0,0-.48-.34c-.79-.43-.6-1.05.42-1.47s1.32-1.5.46-2-.4-.7-.4-1.55-1.42.57-1.76-.42.5-.73.57-1.68S64.22,17,63,17.24s-1.45.2-1.12-.51.08-1.62-.51-1-1.19-.41-1.8.05c-.38.29-1.15.15-1.61.27a.62.62,0,0,1,0-.46c.34-1,.8-.13,1.42-.76s.8-1.07-.22-1.84-1.17-1-.5-1.26,1-1.1.21-1.11-.62-1.24-1.33-1.39-1.51-1.9-2-.89l0,0C55.16,7.26,54,7.9,54,6.33,54,4.58,52.64,7,52.54,5s-1.09.34-2-1c-.42-.65-.64-.61-.87-.48-2.11,2.47,2.79,2.37,3,4.09a17.58,17.58,0,0,0,1.92.33,3.32,3.32,0,0,0-.8.45c.26.12.61.65.92.79-.1.21-.15.55-.26.78.31,0,.69.38.92.42-.23.16-.41.49-.62.66a1.74,1.74,0,0,0,1.46,1.38c-.29.8-2.75,1.24-1.07,2.39-.15,0-.45.05-.56,0,.27.64.52,1,1.15,1.17.41.38.05.61.95.78-.94,1.2,1.51,2.09,2.51,2.23a.42.42,0,0,1-.09.37c.54.12,1.21.3,1.76.47-.31.29-.38.71-.55.93.32.14.57.54,1,.63-.13.11-.3.25-.43.38.3.26.42.79.77,1a2,2,0,0,1-2,.41,1.71,1.71,0,0,0,.09.7c-.32,0-.66.26-1,.31a2,2,0,0,0,1.53,1c-.44,1.73-2.38.57-3.45,1a5.5,5.5,0,0,0-.09,1.11c1.5-.63,4.26.33,5.3-.94a2.92,2.92,0,0,1,.84,1c-.2.1-.4.32-.62.43.7,1.17,2.19.72,3.25.8a2.25,2.25,0,0,0,1.06,1.56c-.16.2-.26.6-.45.82.34.08.7.51,1.06.58a5.22,5.22,0,0,1,.41,2.83c0,.23,0,1.05,0,1.39,0,.72-.61,1-.2,2-.77.23-1.59.36-2.37.61A1.86,1.86,0,0,1,63.74,40c-.09-.31-.48-.64-.57-.94-.37.18-1.18.53-1.16.51,0,.46-1.57.57-2.57.83s-1.65,1.59-2.64.32a3.88,3.88,0,0,1-.37.65,4.71,4.71,0,0,0-1.34-.94c0,1,.86,1.3,1.69,1.21.23,2.3,5.86.3,7.27.41a.41.41,0,0,0-.2.33,9.79,9.79,0,0,0,1.74,0s1.34,3,1.56,3.22c-.38,0-.81.5-1.18.58.27.44.35,1.09.8,1.46-.77.7-.37,1.6-.71,2.16-.46.76-1.36,1.07-1.93,1.85.22.16.42.4.63.55a3.81,3.81,0,0,1-2.64.65c-.21,1.69,1.67,2.64,2.17,4.13.62.25.56.3.84,1-.43.07-.84.48-1.35.41.38.2.64.75.92,1-1,.41-1,1.44-.32,2.25L64,62a.52.52,0,0,0,.25.41,2.51,2.51,0,0,1-2,.63c.11.32,0,.74.27,1.19a10,10,0,0,1-1.8.17c-.86.1-1.24,1.17-2.07-.1-.08.37-.47.74-.56,1.12a4.85,4.85,0,0,0-3.07-.57,2.73,2.73,0,0,1,.07.56c-.85,0-4.59-1.23-3.19,1-1.16,1.06-3.1-.74-4.38-.81-1.68-.09-3.5.17-5.23.16.7.18,1.37.8,2.29,1a5.55,5.55,0,0,0,4-.34c.16,2.17,3.48,1.28,4.87,1.34a16.12,16.12,0,0,0,2.5,0c.79-.08.89-.93,1.67-.34-.6,2.6-3.92,1.5-5.52,2.25.44,1.37-1.21,1.45-2.05,1.63.06,1-.4,1.92-.73,1.88-.5,1-5,0-6.59.62-.24-1.75-.84-.65-1.71-.79a12.47,12.47,0,0,0-2.74-.35,7.3,7.3,0,0,1,.61,1.15c-.85.5-2.48.65-2.75-.05-.55,2.12-2,.06-2.47-1a1.3,1.3,0,0,0-.87.72,3.48,3.48,0,0,1,.33.68l-.46-.39a3,3,0,0,1,.13-.29c-.66-1.05-1.65-1-2.88-.88a1.72,1.72,0,0,1,.49.34,2.41,2.41,0,0,1-.53-.34h0a2.74,2.74,0,0,0-3.07.64c-.36.22-1,1-1.29,1.12-.83.23-.43-.23-1.06-.2s-1-.6-1.8-.19a.25.25,0,0,1,.34.07,10.4,10.4,0,0,1-1.84,1.58c-.15-.21-.37-.4-.52-.62a4.62,4.62,0,0,1-.4,1h0c0,.62-.57,1.44,0,1.48.74.06,1-.46,1.31.56s1.29.75,1.72-.4a2.29,2.29,0,0,1,.48-.83c.11.39-.3.72,0,1.36.38.85.7,1.16,1.6.21s1.14-1.05,1.18-.24.58,1.32.82.67c.42-.07.63-.21.89.59.33,1,1.29.75,1.72-.4a3.19,3.19,0,0,1,.31-.62,2.09,2.09,0,0,0,.14.32c.2.37.45,0,.74-.36a1.93,1.93,0,0,1,.11.27c.33,1,.69,1,1,.72a1.11,1.11,0,0,0,.1.43c.38.85.7,1.16,1.6.21.19-.2.35-.35.48-.48.22.1.48.13.7.22h0c0,.6.38,1.09.65.93.27.16.62-.33.65-.93h0c.22-.09.48-.12.7-.22.14.13.29.28.48.48.9.95,1.22.64,1.6-.21a1.07,1.07,0,0,0,.1-.43c.34.29.7.24,1-.72a1.82,1.82,0,0,1,.12-.27c.29.36.54.73.74.36a2,2,0,0,0,.14-.32,3.17,3.17,0,0,1,.31.62c.43,1.15,1.38,1.42,1.72.4.26-.79.47-.66.89-.59.24.65.79.08.82-.67s.28-.71,1.18.24,1.22.64,1.6-.21c.29-.64-.12-1,0-1.36a2.29,2.29,0,0,1,.48.83c.43,1.15,1.38,1.43,1.72.4s.58-.5,1.32-.56c.53,0,0-.86,0-1.48a.73.73,0,0,0,.44-.64c.65-.25.57.59,1.34.61s1.21-.16.92-1.53a7.47,7.47,0,0,1-.17-1,1.2,1.2,0,0,0,.85.18,1,1,0,0,0,.15.61c.46.8.81,1.06,1.61,0s1-1.19,1.15-.4.8,1.33.92.4S59.72,73.8,60,73s1.84-1.46,1-2.12c-.63-.52.42-.55.71-1.22l.16,0c1-.17.56-.93.77-1.36a1.47,1.47,0,0,1,.08.34c.12.8.81,1.33.92.4s1.15-.53,1.38-1.33,1.84-1.46,1-2.12,1.17-.53.71-2,.91-1.19-.11-2.38c.13.14.25.18.38,0,.46-.66.23-1.2,1.15-.93s1.26-.79.69-1.86-.39-1.69.46-1.46c1.5.4,1.15-.8.8-1.72s.8-1.06.34-2-.69-1.06-.69-1.06,1.61-2-.23-1.33c-.78.28.2-.2,0-1.34.08-.43-.13-1,.4-1.3.77-.48,1.68-1.17.3-1.93C69.51,45.86,69.7,45.24,70.72,44.82Z"/><path class="cls-8" d="M59.92,57.43a3.18,3.18,0,0,0-1.78.8c0-.09.13-.62.19-.78-1.11-.14-2.15,1.14-2.91-.21-1,1.26-3.85,3-4.55.42-1.08.33-1.87-.44-2.94-.41.09,1-.2,1.81-1.14,1.62l.35.33a4.13,4.13,0,0,0-.88.06c.09.1.3.43.4.58-.34,0-.78.08-1.1,0,.15.12.3.15.38.32a6.48,6.48,0,0,0-1.53.23c.18.1.47.32.64.43a11.16,11.16,0,0,0-1.81,0c2,1.51,5.83.46,7.95-.62a3.72,3.72,0,0,0-.63.6,6.63,6.63,0,0,0,2.53.2c-.41,0-.81-.16-1.22-.22a4.1,4.1,0,0,0,2.83-.7,1.66,1.66,0,0,0,1.81-.34c-.55-.23-.84-.63-1.52-.56a29.2,29.2,0,0,1,4-.06,8.37,8.37,0,0,1-.33-1,8.15,8.15,0,0,1,2.45-.74Z"/><path class="cls-8" d="M30.83,57.16a.41.41,0,0,1,.18-.52,12.08,12.08,0,0,1-6.06,2c1,1.88-3.27,1.37-4.52,1.42l.07,0a1.92,1.92,0,0,1-2,.19c.32-.14.73-.5,1-.65-.55-.14-1.4.19-1.83.05-.76-.24-1.13-1.24-1.71-1.41s-1.15.53-1.74.6a15.14,15.14,0,0,1-1.81-.21,4.13,4.13,0,0,0,3.2,1.42L15.4,60a2.76,2.76,0,0,0,.49,0l-.22,0a2.84,2.84,0,0,1,1.86,1.2.87.87,0,0,1-.26.56,3.6,3.6,0,0,0,1.78-.38,2.75,2.75,0,0,0,2.62.84.27.27,0,0,1-.23.16c2.1,0,4.6.54,6.33-.6.27-.18.35-.93.75-1.24.63-.5,1.53-.5,2.18-1,.34-.26.84-1.19,1.29-1.55-.06-.08-.54-.55-.59-.59a4.06,4.06,0,0,1,.64-.42A2.64,2.64,0,0,1,30.83,57.16Z"/><path class="cls-6" d="M39.61,9.31A.28.28,0,0,1,39.74,9a8.39,8.39,0,0,1-4.21,1.36c.66,1.3-2.27.95-3.14,1l.05,0a1.33,1.33,0,0,1-1.36.13c.23-.09.5-.35.71-.45-.39-.1-1,.13-1.27,0-.53-.17-.79-.86-1.19-1s-.8.37-1.21.41a10.92,10.92,0,0,1-1.25-.15,2.87,2.87,0,0,0,2.22,1l-.18,0a1.72,1.72,0,0,0,.33,0l-.16,0a2,2,0,0,1,1.29.83.61.61,0,0,1-.18.39,2.52,2.52,0,0,0,1.24-.27,1.91,1.91,0,0,0,1.82.58.19.19,0,0,1-.16.12c1.46,0,3.19.38,4.4-.42.19-.12.25-.65.52-.86.44-.34,1.06-.34,1.51-.68.24-.18.58-.83.89-1.08,0-.05-.37-.38-.41-.41a2.65,2.65,0,0,1,.45-.29A1.89,1.89,0,0,1,39.61,9.31Z"/><path class="cls-5" d="M35.38,18.5a.38.38,0,0,1,.17-.49,11.47,11.47,0,0,1-5.74,1.86c.91,1.78-3.1,1.3-4.28,1.35l.07,0a1.83,1.83,0,0,1-1.86.18c.31-.13.69-.47,1-.61-.53-.13-1.32.18-1.74,0-.72-.23-1.08-1.17-1.63-1.33s-1.09.5-1.65.57A13.9,13.9,0,0,1,18,19.9a3.93,3.93,0,0,0,3,1.35,2.37,2.37,0,0,0-.25-.05,2.53,2.53,0,0,0,.46,0l-.21,0a2.7,2.7,0,0,1,1.76,1.13.81.81,0,0,1-.25.53,3.42,3.42,0,0,0,1.69-.36,2.61,2.61,0,0,0,2.49.8.26.26,0,0,1-.21.16c2,0,4.36.51,6-.57.26-.17.33-.88.71-1.18.6-.47,1.45-.47,2.07-.93.33-.25.8-1.13,1.22-1.47-.05-.07-.51-.52-.56-.55a3.89,3.89,0,0,1,.61-.4A2.51,2.51,0,0,1,35.38,18.5Z"/><path class="cls-5" d="M23.86,34.65a.39.39,0,0,1,.17-.49A11.46,11.46,0,0,1,18.28,36c.9,1.78-3.1,1.29-4.28,1.35l.07,0a1.82,1.82,0,0,1-1.86.18c.31-.13.69-.47,1-.61-.53-.13-1.32.18-1.74,0-.72-.23-1.07-1.17-1.62-1.33s-1.09.5-1.65.56a15,15,0,0,1-1.71-.2,3.93,3.93,0,0,0,3,1.35l-.25-.05a2.69,2.69,0,0,0,.46,0l-.21,0a2.69,2.69,0,0,1,1.76,1.13.83.83,0,0,1-.25.53,3.4,3.4,0,0,0,1.69-.37,2.6,2.6,0,0,0,2.49.8.27.27,0,0,1-.21.16c2,0,4.36.51,6-.57.26-.17.33-.88.71-1.18.6-.47,1.45-.47,2.07-.93.32-.25.8-1.13,1.22-1.47-.06-.07-.51-.52-.56-.56a3.88,3.88,0,0,1,.61-.39A2.56,2.56,0,0,1,23.86,34.65Z"/><path class="cls-5" d="M4.83,47.25c-.28.37-.25,1.05-.39,1.32a3.44,3.44,0,0,0,2.27-.52c1.24.63,1.76,2.27,2.84,1.73.32-.16.61-1.32,1.06-1.58.63-.37,1.35.23,2-.32-.09-.2-.16-.43-.23-.63A4.93,4.93,0,0,0,14.25,47a9,9,0,0,0-.5-1c.91,0,2.25.09,2.29-1.14.81-.11,1.72.22,2.58.08,0-.1,0-.19,0-.29a4.35,4.35,0,0,0,2,.27c-.09-.3,0-.68-.09-1,.33-.06.52-.22.92-.13a.29.29,0,0,1-.3.17c.69,0,1.38,0,2.07,0a1.4,1.4,0,0,1-.46-.49c1.67-.66,6.67,3.43,7.47-.48-1,0-1.9.45-2.89.36a.67.67,0,0,1,0-.34c-.43.11-1-.17-1.47,0,.45-1.52-.32-2.07-1.42-2.57.52.77-1,.87-1.72.78a6.63,6.63,0,0,1,.1-.94c-.75.26-2.89,1.15-2.64,2.33-.52-.06-1.12.11-1.65,0,.14.36,0,1,.1,1.32-.87.29-1.83-.25-2.61-.33s-.82,1.16-1.59.09c-.41.87-1.82.2-2.86.32.08.13.25.37.39.56a5.12,5.12,0,0,1-1.4-.59,6.36,6.36,0,0,1,.91-.58c-2-.19-2.47,1.47-4,1.77-1,.21-2.18-.52-3.35-1,.08-.17.14-.55.26-.78a2.14,2.14,0,0,0-1-.58c0-.17.18-.32.1-.43a2.48,2.48,0,0,1-2,0,5.87,5.87,0,0,0,0-1,2.45,2.45,0,0,1-.51.4c.09.48.21.71-.45,1.05-.86.45-.57,1.53.46,2,.55.23.85.51.9.79.47-.05,1-.14,1.59-.18A1.52,1.52,0,0,0,4.83,47.25Z"/><path class="cls-7" d="M17.76,9.57c-.07.29.1,1.08,0,1.43,1,0,1.94,0,2.91,0-.09.17-.17.87-.31,1.11a12.93,12.93,0,0,1,1.69.25c-.05.15-.17.32-.2.41a2.87,2.87,0,0,1,1.61.59c-.19.27-.28.92-.5,1.19.77.31,1.72.08,2.56.4,0,.2,0,.39,0,.59,1.1-.08,2.15.52,3.23,0l-.59-.15c1.78,0,3.83-.46,5.55-.54a10.8,10.8,0,0,0,3.34-1.07,17.23,17.23,0,0,1-3.87.18,1.1,1.1,0,0,1,0-.47c-.73.45-1.65,1-2.36.47a5.12,5.12,0,0,1,.58-.73c-1.3.31-2.56.86-3.85,1.16a2,2,0,0,1,.06-.54,2.66,2.66,0,0,1-1.66.48c0-.32-.11-.75-.07-1.09-1.11.1-1.47-1-1.39-2.17-.86-.07-.67.24-1.19-.64-.15.14-.13.23-.35.34a12.41,12.41,0,0,1-.37-1.19c-1.48.31-2.52-.59-3.81-1.45a2,2,0,0,0,.23-.3.88.88,0,0,1-1.09,0c-1.19-.73-1.35,1.55-1.8.54a.57.57,0,0,0-.22-.27C16,9.28,16.52,9.59,17.76,9.57Z"/><path class="cls-7" d="M37.08,26.83a6,6,0,0,1-.25-.55c.34-.17.56-.68.93-.83-.14-.17-.32-.46-.43-.58a11.33,11.33,0,0,1,1.87-1c.2-.91.07-.67.68-1.34a11.56,11.56,0,0,1-2.35.8,7.81,7.81,0,0,1-2.25.75c-.25,0-.56-.29-.88-.24-1.24.17-6.54,3-6.95,1.65a13,13,0,0,1-1.87.14.17.17,0,0,1,.23-.17,5.31,5.31,0,0,0-.72,0s.07-.53.06-.54c-.89.31-2,1.08-2.57-.2-1.3-.1-2.46.83-3.77.45-.54-.16-1.39-1-2.1-1.27a5.79,5.79,0,0,0,0-.58A5.65,5.65,0,0,1,14.78,23a4.23,4.23,0,0,0-1.11-2,7.33,7.33,0,0,0,.19,2.32,2.56,2.56,0,0,0,1.71-.11A3.88,3.88,0,0,0,14.78,25a5.69,5.69,0,0,0,2.33.44,1.13,1.13,0,0,1-.06.48,13,13,0,0,0,2.49.49h1.79a1.45,1.45,0,0,0-.26.17A14.62,14.62,0,0,1,24,26.8a2.59,2.59,0,0,1-.53.49A4.84,4.84,0,0,1,26.6,27a5.63,5.63,0,0,1-.86,1.32A3.41,3.41,0,0,1,27.62,28a6,6,0,0,1-.76,1.4,6.73,6.73,0,0,0-2.52.37c-.55.14-2.93,1.11-2,.21a7.12,7.12,0,0,1-1.42,0,.27.27,0,0,1,.21-.28c-2.41.55-4.58.11-6.94.3a18.51,18.51,0,0,0,3.22,1.18c1.24.27,3.73-.28,4.52.66,1.21,0,3.11.3,3.87-.58,1.23,0,2.95-.19,3.78-1.24-.52-1.29,1.75-1.24,1.37-3,1-.06,2,0,3,0A14.7,14.7,0,0,0,37.08,26.83Z"/><path class="cls-8" d="M45.52,32.71a.81.81,0,0,0,.24,0c-1.38,1.62-4.54,1.93-6.4,1.44l.2,0A7.8,7.8,0,0,1,37.32,34a.4.4,0,0,1,.11-.07c-.56.16-1.15.41-1.68.58a2.11,2.11,0,0,0-2-1l.1.21c.47.85,1.33.57,1,1.63.72.06,1.45,0,2.17.06-.24.15-.48.4-.76.54,2.18.31,4.41-.52,6.71-.15l-.2-.17a11.75,11.75,0,0,0,3.07-.6,3.63,3.63,0,0,1-.43-.64,22.5,22.5,0,0,0,2.16-1c-.16-.1-.53-.6-.74-.73.37-.25.67-.77,1.26-.83l-.65-.37A6.34,6.34,0,0,1,45.52,32.71Z"/><path class="cls-6" d="M32.7,47.17c.31.13.59.77.78,1.07a6.37,6.37,0,0,1-.64.19,4.2,4.2,0,0,1,.61.43c-1.16,1.47-7.27,2.92-8.9,2.29a.33.33,0,0,1,0-.44c-.91.38-4.26.16-4.95-.62A9.85,9.85,0,0,1,20.29,49a15.53,15.53,0,0,0,4.44-.63c-.11-.14-.27-.32-.41-.46,1.66.21,3.36.22,4.88.36a.34.34,0,0,0-.07-.36c.72-.34.8-.23,1.34-.74a1.25,1.25,0,0,0,2,.26S32.31,47,32.7,47.17Z"/><path class="cls-9" d="M25.73,35.31s.41-2.91-3.43-2.63C22.3,32.68,23.19,36.86,25.73,35.31Z"/><path class="cls-9" d="M51.53,66.78s.41-2.9-3.43-2.63C48.1,64.15,49,68.33,51.53,66.78Z"/><path class="cls-9" d="M18.46,64.56s-2.52-.44-2.24,4C16.22,68.54,19.84,67.48,18.46,64.56Z"/><path class="cls-9" d="M15.87,51.11s-2-1.9-3.72,2C12.15,53.15,15.72,54.43,15.87,51.11Z"/><path class="cls-9" d="M31.82,66.94s-2.54.25-1.38,4.47C30.44,71.41,33.75,69.41,31.82,66.94Z"/><path class="cls-9" d="M57,53.1s-.41-2.9,3.43-2.63C60.4,50.47,59.51,54.65,57,53.1Z"/><path class="cls-9" d="M30.51,14.41s.41,2.9-3.43,2.63C27.08,17,28,12.85,30.51,14.41Z"/><path class="cls-9" d="M59.33,34.75s.41-2.9-3.43-2.63C55.9,32.12,56.79,36.31,59.33,34.75Z"/><path class="cls-9" d="M43.81,13.4s.09,2.94,3.81,1.81C47.62,15.21,46,11.3,43.81,13.4Z"/><path class="cls-9" d="M38.56,44.35s-1.65,2.22,1.73,4.28C40.28,48.63,41.41,44.55,38.56,44.35Z"/><path class="cls-9" d="M12.26,32.81s.41,2.9-3.43,2.63C8.83,35.44,9.72,31.25,12.26,32.81Z"/><path class="cls-9" d="M25,60c-1.83.28-.32,3.26.82,3.44C26.38,61.56,26.64,61,25,60Z"/></g></g></svg>